<svg width="223" height="308" viewBox="0 0 223 308" xmlns="http://www.w3.org/2000/svg" xmlns:xlink="http://www.w3.org/1999/xlink"><defs><filter x="-1.6%" y="-1.6%" width="104.7%" height="107.7%" filterUnits="objectBoundingBox" id="a"><feOffset dy="1" in="SourceAlpha" result="shadowOffsetOuter1"/><feColorMatrix values="0 0 0 0 0 0 0 0 0 0 0 0 0 0 0 0 0 0 0.05 0" in="shadowOffsetOuter1" result="shadowMatrixOuter1"/><feMerge><feMergeNode in="shadowMatrixOuter1"/><feMergeNode in="SourceGraphic"/></feMerge></filter><path d="M2.343 2.44c.22 0 .399.178.399.398v5.316c0 .22-.179.398-.4.398h-.314c-.22 0-.4-.178-.4-.398V2.838c0-.22.18-.399.4-.399h.315z" id="c"/><filter x="0%" y="0%" width="100%" height="100%" filterUnits="objectBoundingBox" id="b"><feOffset in="SourceAlpha" result="shadowOffsetOuter1"/><feColorMatrix values="0 0 0 0 0 0 0 0 0 0 0 0 0 0 0 0 0 0 0.124122509 0" in="shadowOffsetOuter1"/></filter><path d="M2.343 11.384c.22 0 .399.179.399.399v5.315c0 .22-.179.399-.4.399h-.314c-.22 0-.4-.178-.4-.399v-5.315c0-.22.18-.399.4-.399h.315z" id="e"/><filter x="0%" y="0%" width="100%" height="100%" filterUnits="objectBoundingBox" id="d"><feOffset in="SourceAlpha" result="shadowOffsetOuter1"/><feColorMatrix values="0 0 0 0 0 0 0 0 0 0 0 0 0 0 0 0 0 0 0.124122509 0" in="shadowOffsetOuter1"/></filter><path d="M28.403 4.879c.22 0 .4.178.4.398v5.316c0 .22-.18.399-.4.399h-.315c-.22 0-.399-.179-.399-.399V5.277c0-.22.179-.398.4-.398h.314z" id="g"/><filter x="0%" y="0%" width="100%" height="100%" filterUnits="objectBoundingBox" id="f"><feOffset in="SourceAlpha" result="shadowOffsetOuter1"/><feColorMatrix values="0 0 0 0 0 0 0 0 0 0 0 0 0 0 0 0 0 0 0.124122509 0" in="shadowOffsetOuter1"/></filter><path d="M27.589 13.824c.22 0 .4.178.4.398v5.316c0 .22-.18.398-.4.398h-.315c-.22 0-.399-.178-.399-.398v-5.316c0-.22.179-.398.399-.398h.315z" id="i"/><filter x="0%" y="0%" width="100%" height="100%" filterUnits="objectBoundingBox" id="h"><feOffset in="SourceAlpha" result="shadowOffsetOuter1"/><feColorMatrix values="0 0 0 0 0 0 0 0 0 0 0 0 0 0 0 0 0 0 0.124122509 0" in="shadowOffsetOuter1"/></filter><path d="M27.589 22.768c.22 0 .4.179.4.399v5.316c0 .22-.18.398-.4.398h-.315c-.22 0-.399-.178-.399-.398v-5.316c0-.22.179-.399.399-.399h.315z" id="k"/><filter x="0%" y="0%" width="100%" height="100%" filterUnits="objectBoundingBox" id="j"><feOffset in="SourceAlpha" result="shadowOffsetOuter1"/><feColorMatrix values="0 0 0 0 0 0 0 0 0 0 0 0 0 0 0 0 0 0 0.124122509 0" in="shadowOffsetOuter1"/></filter><path d="M.714 0c.22 0 .4.178.4.398v5.316c0 .22-.18.399-.4.399H.399C.18 6.113 0 5.934 0 5.714V.398C0 .178.179 0 .4 0h.314z" id="m"/><filter x="0%" y="0%" width="100%" height="100%" filterUnits="objectBoundingBox" id="l"><feOffset in="SourceAlpha" result="shadowOffsetOuter1"/><feColorMatrix values="0 0 0 0 0 0 0 0 0 0 0 0 0 0 0 0 0 0 0.124122509 0" in="shadowOffsetOuter1"/></filter><path d="M.714 17.89c.22 0 .4.178.4.398v5.316c0 .22-.18.398-.4.398H.399c-.22 0-.399-.178-.399-.398v-5.316c0-.22.179-.399.4-.399h.314z" id="o"/><filter x="0%" y="0%" width="100%" height="100%" filterUnits="objectBoundingBox" id="n"><feOffset in="SourceAlpha" result="shadowOffsetOuter1"/><feColorMatrix values="0 0 0 0 0 0 0 0 0 0 0 0 0 0 0 0 0 0 0.124122509 0" in="shadowOffsetOuter1"/></filter><path d="M.714 8.945c.22 0 .4.178.4.398v5.316c0 .22-.18.398-.4.398H.399c-.22 0-.399-.178-.399-.398V9.343c0-.22.179-.398.4-.398h.314z" id="q"/><filter x="0%" y="0%" width="100%" height="100%" filterUnits="objectBoundingBox" id="p"><feOffset in="SourceAlpha" result="shadowOffsetOuter1"/><feColorMatrix values="0 0 0 0 0 0 0 0 0 0 0 0 0 0 0 0 0 0 0.124122509 0" in="shadowOffsetOuter1"/></filter><path d="M.714 0c.22 0 .4.178.4.398v5.316c0 .22-.18.399-.4.399H.399C.18 6.113 0 5.934 0 5.714V.398C0 .178.179 0 .4 0h.314z" id="s"/><filter x="0%" y="0%" width="100%" height="100%" filterUnits="objectBoundingBox" id="r"><feOffset in="SourceAlpha" result="shadowOffsetOuter1"/><feColorMatrix values="0 0 0 0 0 0 0 0 0 0 0 0 0 0 0 0 0 0 0.124122509 0" in="shadowOffsetOuter1"/></filter><path d="M25.96 18.703c.22 0 .4.178.4.398v5.316c0 .22-.18.398-.4.398h-.315c-.22 0-.399-.178-.399-.398V19.1c0-.22.179-.398.4-.398h.314z" id="u"/><filter x="0%" y="0%" width="100%" height="100%" filterUnits="objectBoundingBox" id="t"><feOffset in="SourceAlpha" result="shadowOffsetOuter1"/><feColorMatrix values="0 0 0 0 0 0 0 0 0 0 0 0 0 0 0 0 0 0 0.124122509 0" in="shadowOffsetOuter1"/></filter><path d="M.714 8.132c.22 0 .4.178.4.398v5.316c0 .22-.18.398-.4.398H.399c-.22 0-.399-.178-.399-.398V8.53c0-.22.179-.398.4-.398h.314z" id="w"/><filter x="0%" y="0%" width="100%" height="100%" filterUnits="objectBoundingBox" id="v"><feOffset in="SourceAlpha" result="shadowOffsetOuter1"/><feColorMatrix values="0 0 0 0 0 0 0 0 0 0 0 0 0 0 0 0 0 0 0.124122509 0" in="shadowOffsetOuter1"/></filter><path d="M.714 0c.22 0 .4.178.4.398v5.316c0 .22-.18.399-.4.399H.399C.18 6.113 0 5.934 0 5.714V.398C0 .178.179 0 .4 0h.314z" id="y"/><filter x="0%" y="0%" width="100%" height="100%" filterUnits="objectBoundingBox" id="x"><feOffset in="SourceAlpha" result="shadowOffsetOuter1"/><feColorMatrix values="0 0 0 0 0 0 0 0 0 0 0 0 0 0 0 0 0 0 0.124122509 0" in="shadowOffsetOuter1"/></filter><filter x="-1.3%" y="-1.3%" width="103.5%" height="105.8%" filterUnits="objectBoundingBox" id="z"><feOffset dy="1" in="SourceAlpha" result="shadowOffsetOuter1"/><feColorMatrix values="0 0 0 0 0 0 0 0 0 0 0 0 0 0 0 0 0 0 0.05 0" in="shadowOffsetOuter1" result="shadowMatrixOuter1"/><feMerge><feMergeNode in="shadowMatrixOuter1"/><feMergeNode in="SourceGraphic"/></feMerge></filter><path d="M2.953 3.075c.278 0 .503.225.503.502v6.7a.503.503 0 0 1-.503.502h-.397a.503.503 0 0 1-.503-.502v-6.7c0-.277.225-.502.503-.502h.397z" id="B"/><filter x="0%" y="0%" width="100%" height="100%" filterUnits="objectBoundingBox" id="A"><feOffset in="SourceAlpha" result="shadowOffsetOuter1"/><feColorMatrix values="0 0 0 0 0 0 0 0 0 0 0 0 0 0 0 0 0 0 0.124122509 0" in="shadowOffsetOuter1"/></filter><path d="M2.953 14.348c.278 0 .503.225.503.503v6.7a.503.503 0 0 1-.503.502h-.397a.503.503 0 0 1-.503-.502v-6.7c0-.278.225-.503.503-.503h.397z" id="D"/><filter x="0%" y="0%" width="100%" height="100%" filterUnits="objectBoundingBox" id="C"><feOffset in="SourceAlpha" result="shadowOffsetOuter1"/><feColorMatrix values="0 0 0 0 0 0 0 0 0 0 0 0 0 0 0 0 0 0 0.124122509 0" in="shadowOffsetOuter1"/></filter><path d="M.9 0c.278 0 .503.225.503.502v6.7a.503.503 0 0 1-.503.502H.503A.503.503 0 0 1 0 7.202v-6.7C0 .225.225 0 .503 0H.9z" id="F"/><filter x="0%" y="0%" width="100%" height="100%" filterUnits="objectBoundingBox" id="E"><feOffset in="SourceAlpha" result="shadowOffsetOuter1"/><feColorMatrix values="0 0 0 0 0 0 0 0 0 0 0 0 0 0 0 0 0 0 0.124122509 0" in="shadowOffsetOuter1"/></filter><path d="M.9 22.548c.278 0 .503.224.503.502v6.7a.503.503 0 0 1-.503.502H.503A.503.503 0 0 1 0 29.75v-6.7c0-.278.225-.502.503-.502H.9z" id="H"/><filter x="0%" y="0%" width="100%" height="100%" filterUnits="objectBoundingBox" id="G"><feOffset in="SourceAlpha" result="shadowOffsetOuter1"/><feColorMatrix values="0 0 0 0 0 0 0 0 0 0 0 0 0 0 0 0 0 0 0.124122509 0" in="shadowOffsetOuter1"/></filter><path d="M.9 11.274c.278 0 .503.225.503.502v6.7a.503.503 0 0 1-.503.502H.503A.503.503 0 0 1 0 18.476v-6.7c0-.277.225-.502.503-.502H.9z" id="J"/><filter x="0%" y="0%" width="100%" height="100%" filterUnits="objectBoundingBox" id="I"><feOffset in="SourceAlpha" result="shadowOffsetOuter1"/><feColorMatrix values="0 0 0 0 0 0 0 0 0 0 0 0 0 0 0 0 0 0 0.124122509 0" in="shadowOffsetOuter1"/></filter><path d="M.9 0c.278 0 .503.225.503.502v6.7a.503.503 0 0 1-.503.502H.503A.503.503 0 0 1 0 7.202v-6.7C0 .225.225 0 .503 0H.9z" id="L"/><filter x="0%" y="0%" width="100%" height="100%" filterUnits="objectBoundingBox" id="K"><feOffset in="SourceAlpha" result="shadowOffsetOuter1"/><feColorMatrix values="0 0 0 0 0 0 0 0 0 0 0 0 0 0 0 0 0 0 0.124122509 0" in="shadowOffsetOuter1"/></filter><path d="M32.72 23.573c.278 0 .503.224.503.502v6.7a.503.503 0 0 1-.503.502h-.397a.503.503 0 0 1-.503-.502v-6.7c0-.278.225-.502.503-.502h.397z" id="N"/><filter x="0%" y="0%" width="100%" height="100%" filterUnits="objectBoundingBox" id="M"><feOffset in="SourceAlpha" result="shadowOffsetOuter1"/><feColorMatrix values="0 0 0 0 0 0 0 0 0 0 0 0 0 0 0 0 0 0 0.124122509 0" in="shadowOffsetOuter1"/></filter><path d="M.9 10.249c.278 0 .503.225.503.502v6.7a.503.503 0 0 1-.503.502H.503A.503.503 0 0 1 0 17.451v-6.7c0-.277.225-.502.503-.502H.9z" id="P"/><filter x="0%" y="0%" width="100%" height="100%" filterUnits="objectBoundingBox" id="O"><feOffset in="SourceAlpha" result="shadowOffsetOuter1"/><feColorMatrix values="0 0 0 0 0 0 0 0 0 0 0 0 0 0 0 0 0 0 0.124122509 0" in="shadowOffsetOuter1"/></filter><path d="M.9 0c.278 0 .503.225.503.502v6.7a.503.503 0 0 1-.503.502H.503A.503.503 0 0 1 0 7.202v-6.7C0 .225.225 0 .503 0H.9z" id="R"/><filter x="0%" y="0%" width="100%" height="100%" filterUnits="objectBoundingBox" id="Q"><feOffset in="SourceAlpha" result="shadowOffsetOuter1"/><feColorMatrix values="0 0 0 0 0 0 0 0 0 0 0 0 0 0 0 0 0 0 0.124122509 0" in="shadowOffsetOuter1"/></filter><path d="M35.8 6.15c.277 0 .502.224.502.502v6.7a.503.503 0 0 1-.503.502h-.397a.503.503 0 0 1-.503-.503v-6.7c0-.277.225-.502.503-.502h.397z" id="T"/><filter x="0%" y="0%" width="100%" height="100%" filterUnits="objectBoundingBox" id="S"><feOffset in="SourceAlpha" result="shadowOffsetOuter1"/><feColorMatrix values="0 0 0 0 0 0 0 0 0 0 0 0 0 0 0 0 0 0 0.124122509 0" in="shadowOffsetOuter1"/></filter><path d="M34.773 17.423c.278 0 .503.225.503.502v6.7a.503.503 0 0 1-.503.502h-.397a.503.503 0 0 1-.503-.502v-6.7c0-.277.225-.502.503-.502h.397z" id="V"/><filter x="0%" y="0%" width="100%" height="100%" filterUnits="objectBoundingBox" id="U"><feOffset in="SourceAlpha" result="shadowOffsetOuter1"/><feColorMatrix values="0 0 0 0 0 0 0 0 0 0 0 0 0 0 0 0 0 0 0.124122509 0" in="shadowOffsetOuter1"/></filter><path d="M34.773 28.697c.278 0 .503.225.503.502v6.7a.503.503 0 0 1-.503.502h-.397a.503.503 0 0 1-.503-.502v-6.7c0-.277.225-.502.503-.502h.397z" id="X"/><filter x="0%" y="0%" width="100%" height="100%" filterUnits="objectBoundingBox" id="W"><feOffset in="SourceAlpha" result="shadowOffsetOuter1"/><feColorMatrix values="0 0 0 0 0 0 0 0 0 0 0 0 0 0 0 0 0 0 0.124122509 0" in="shadowOffsetOuter1"/></filter></defs><g fill="none" fill-rule="evenodd"><path fill="#AD9E83" d="M90.37 255.052l2.004-.5 7.643 30.656-2.003.5zM133.625 255.052l-2.004-.5-7.643 30.656 2.004.5zM101.032 252.653h2.065v31.594h-2.065zM121.057 252.653h2.065v31.594h-2.065z"/><path d="M130.35 288.927a6.436 6.436 0 0 1-.004.037l-1.371 13.172a6.435 6.435 0 0 1-6.4 5.768H102.72a6.435 6.435 0 0 1-6.4-5.768l-1.367-13.126a2.34 2.34 0 0 1-2.182-2.334v-2.474a2.34 2.34 0 0 1 2.34-2.34h34.599a2.34 2.34 0 0 1 2.34 2.34v2.474c0 1.07-.719 1.972-1.7 2.25z" fill="#A0784E"/><g stroke="#000" stroke-linecap="square" stroke-opacity=".157" stroke-width=".5"><path d="M100.806 298.833l8.737-9.88M98.986 296.106l8.737-9.88M102.2 288.416l.972 9.73M105.84 283.872l1.466 13.79"/></g><path d="M102.328 303.674c26.653 0 21.686-.612 23.822-21.812h3.533a2.365 2.365 0 0 1 2.367 2.363v2.428c0 1.073-.718 1.98-1.7 2.268a6.488 6.488 0 0 1-.01.111l-1.359 13.046a6.504 6.504 0 0 1-6.473 5.826h-19.721a6.508 6.508 0 0 1-6.294-4.842c1.876.4 3.829.612 5.835.612z" fill-opacity=".091" fill="#000"/><g><path d="M133.193 261.741c10.077-17.306 17.48-29.324 22.21-36.055C183.154 186.2 223 149.546 223 106.396c0-42.8-21.186-84.682-62.37-94.694-11.026-2.681-35.44 3.682-49.13 3.682-13.46 0-38.712-6.363-48.488-3.926C21.635 21.775 0 63.368 0 106.396c0 47.141 40.034 79.804 69.167 119.29 4.858 6.585 12.336 18.603 22.435 36.055 7.214-3.945 14.434-5.917 21.66-5.917 7.228 0 13.87 1.972 19.931 5.917z" fill="#26BEC9"/><path d="M130.67 258.871c6.14-14.244 11.35-25.305 15.631-33.185 28.718-52.855 58.495-76.14 58.495-119.29 0-45.849-22.403-87.025-61.785-100.89-9.12-3.212-20.876 9.835-31.511 9.835-10.82 0-22.735-12.986-31.986-9.667-39.102 14.028-61.31 55.058-61.31 100.722 0 47.141 28.865 66.435 60.065 119.29 4.51 7.642 9.927 18.703 16.248 33.185 5.27-1.882 11.52-2.822 18.746-2.822 7.227 0 13.029.94 17.408 2.822z" fill="#FAFAFA"/><path d="M125.269 255.998c4.546-12.174 8.523-22.278 11.93-30.312 22.126-52.162 40.377-68.247 43.753-114.083 3.356-45.564-9.964-99.732-51.913-109.217C117.875-.138 117.875 8.27 111.5 8.27c-6.367 0-6.38-8.408-17.569-5.862-42.21 9.608-53.914 63.36-51.151 109.195 2.762 45.836 22.205 61.921 44.59 114.083 3.695 8.608 7.858 18.712 12.49 30.312h25.409z" fill="#26BEC9"/><path d="M119.54 256.109a613.093 613.093 0 0 0 8.557-30.423c13.067-51.454 24.157-61.277 27.37-107.84C159.326 61.882 134.268.547 111.5.547c-22.77 0-49.344 62.13-43.235 117.299 5.157 46.563 13.582 56.386 28.208 107.84a3686.962 3686.962 0 0 0 8.782 30.423h14.285z" fill="#FAFAFA"/><g filter="url(#a)" transform="rotate(54 -79.393 241.548)"><rect fill="#F7D27C" x=".089" y=".339" width="30.053" height="30.008" rx="1.8"/><use fill="#000" filter="url(#b)" xlink:href="#c"/><use fill="#FFF" xlink:href="#c"/><use fill="#000" filter="url(#d)" xlink:href="#e"/><use fill="#FFF" xlink:href="#e"/><use fill="#000" filter="url(#f)" xlink:href="#g"/><use fill="#FFF" xlink:href="#g"/><use fill="#000" filter="url(#h)" xlink:href="#i"/><use fill="#FFF" xlink:href="#i"/><g><use fill="#000" filter="url(#j)" xlink:href="#k"/><use fill="#FFF" xlink:href="#k"/></g><g><g transform="translate(1.629 21.142)"><use fill="#000" filter="url(#l)" xlink:href="#m"/><use fill="#FFF" xlink:href="#m"/></g></g><g><g transform="rotate(90 13.313 15.343)"><use fill="#000" filter="url(#n)" xlink:href="#o"/><use fill="#FFF" xlink:href="#o"/></g><g transform="rotate(90 13.313 15.343)"><use fill="#000" filter="url(#p)" xlink:href="#q"/><use fill="#FFF" xlink:href="#q"/></g><g transform="rotate(90 13.313 15.343)"><use fill="#000" filter="url(#r)" xlink:href="#s"/><use fill="#FFF" xlink:href="#s"/></g><g transform="rotate(90 13.313 15.343)"><use fill="#000" filter="url(#t)" xlink:href="#u"/><use fill="#FFF" xlink:href="#u"/></g></g><g><g transform="rotate(90 -.02 27.235)"><use fill="#000" filter="url(#v)" xlink:href="#w"/><use fill="#FFF" xlink:href="#w"/></g><g transform="rotate(90 -.02 27.235)"><use fill="#000" filter="url(#x)" xlink:href="#y"/><use fill="#FFF" xlink:href="#y"/></g></g></g><g filter="url(#z)" transform="rotate(105 16.71 52.07)"><path d="M1.953.427h34.238a1.8 1.8 0 0 1 1.8 1.8V36.45a1.8 1.8 0 0 1-1.8 1.8H2.035a1.8 1.8 0 0 1-1.797-1.905c.183-3.15.275-6.803.275-10.958 0-4.752-.12-12.458-.36-23.118a1.8 1.8 0 0 1 1.8-1.84z" fill="#F3B4AF"/><use fill="#000" filter="url(#A)" xlink:href="#B"/><use fill="#FFF" xlink:href="#B"/><use fill="#000" filter="url(#C)" xlink:href="#D"/><use fill="#FFF" xlink:href="#D"/><g transform="translate(2.053 26.647)"><use fill="#000" filter="url(#E)" xlink:href="#F"/><use fill="#FFF" xlink:href="#F"/></g><g transform="rotate(90 16.78 19.338)"><use fill="#000" filter="url(#G)" xlink:href="#H"/><use fill="#FFF" xlink:href="#H"/></g><g transform="rotate(90 16.78 19.338)"><use fill="#000" filter="url(#I)" xlink:href="#J"/><use fill="#FFF" xlink:href="#J"/></g><g transform="rotate(90 16.78 19.338)"><use fill="#000" filter="url(#K)" xlink:href="#L"/><use fill="#FFF" xlink:href="#L"/></g><g transform="rotate(90 16.78 19.338)"><use fill="#000" filter="url(#M)" xlink:href="#N"/><use fill="#FFF" xlink:href="#N"/></g><g><g transform="rotate(90 -.026 34.327)"><use fill="#000" filter="url(#O)" xlink:href="#P"/><use fill="#FFF" xlink:href="#P"/></g><g transform="rotate(90 -.026 34.327)"><use fill="#000" filter="url(#Q)" xlink:href="#R"/><use fill="#FFF" xlink:href="#R"/></g></g><g><use fill="#000" filter="url(#S)" xlink:href="#T"/><use fill="#FFF" xlink:href="#T"/></g><g><use fill="#000" filter="url(#U)" xlink:href="#V"/><use fill="#FFF" xlink:href="#V"/></g><g><use fill="#000" filter="url(#W)" xlink:href="#X"/><use fill="#FFF" xlink:href="#X"/></g></g><path d="M115.468 119.864l15.203-16.159h-11.33l-15.617 15.574V84.521h-9.063v58.106h9.063V130.81l4.547-4.577c1.78 8.903 9.641 16.452 19.07 16.452 1.42 0 2.801-.155 4.134-.443v-7.76a11.645 11.645 0 0 1-4.09.71c-5.793-.04-11.968-5.355-11.968-11.961 0-.529.005-2.221.051-3.367z" fill="#26BEC9"/><path d="M91.326 262.058c-3.284-5.701-6.359-12.548-11.385-20.183 1.871-5.432 38.095-4.824 57.845-36.241 22.845-36.34 29.798-49.127 32.678-95.074 3.637-58.008-20.427-88.899-44.724-108.634 3.238.172 8.178 1.624 12.046 3.24.895-.1 2.614-.622 6.114.636a76.912 76.912 0 0 1 11.503 5.271c1.774 0 4.428.434 5.228.629C201.814 21.714 223 63.597 223 106.396c0 43.15-39.846 79.804-67.597 119.29-4.73 6.73-12.272 19.066-22.349 36.372-4.638-1.913-7.314-2.48-12.337-3.461 0 0-7.437-1.091-16.703 0-2.806.33-7.035 1.484-12.688 3.46z" fill-opacity=".053" fill="#333"/></g><path d="M86.47 253.675c8.604-3.105 17.183-4.657 25.734-4.657 8.547 0 17.094 1.55 25.64 4.651a1469.768 1469.768 0 0 0-4.903 8.362c-6.06-2.659-12.704-3.988-19.93-3.988-7.227 0-14.447 1.33-21.661 3.988-1.701-2.94-3.328-5.725-4.88-8.356z" fill="#37AEB1"/><path d="M89.2 258.448c7.666-2.652 15.312-3.977 22.936-3.977 7.612 0 15.224 1.321 22.836 3.965-.687 1.172-1.387 2.37-2.1 3.595-6.06-2.659-12.703-3.988-19.93-3.988s-14.447 1.33-21.66 3.988c-.707-1.22-1.401-2.415-2.082-3.583z" fill-opacity=".622" fill="#138184"/></g></svg>