<svg width="688" height="503" viewBox="0 0 688 503" xmlns="http://www.w3.org/2000/svg"><path d="M0 260.469c0 61.04 42.98 67.077 62.955 117.708 17.322 43.908-60.428 92.392 69.49 120.964 85.604 18.826 160.845-37.345 238.84-37.345 126.378 0 282.67 5.78 305.743-32.996C684.953 415.48 688 402.65 688 390.13c0-41.662-33.727-79.912-33.727-121.403 0-53.962 48.835-110.854 9.371-177.605C624.181 24.371 563.722 5 510.232 5c-53.491 0-76.075 9.591-150.522 47.495C285.263 90.4 260.945 65.17 186.15 68.872 111.352 72.574 14.965 157.115 2.526 232.406.787 242.933 0 252.206 0 260.47V0h688v503H0V260.469z" fill="#FFF" fill-rule="evenodd"/></svg>