<svg width="678" height="498" viewBox="0 0 678 498" xmlns="http://www.w3.org/2000/svg"><g fill="none" fill-rule="evenodd"><path d="M0 0h688v498H0z"/><g transform="translate(116 121)" fill="#FFF"><rect y="47.61" width="147.718" height="30.39" rx="15.195"/><rect x="34.4" y="25.325" width="137.6" height="30.39" rx="15.195"/><rect x="71.835" width="61.718" height="30.39" rx="15.195"/></g><g transform="translate(361 368)" fill="#FFF"><rect x="54.54" y="30.5" width="147.46" height="30.5" rx="15.25"/><rect width="147.46" height="30.5" rx="15.25"/></g><g transform="translate(54 428)" fill="#FFF"><rect y="23" width="176" height="26" rx="13"/><rect x="44.506" width="88" height="26" rx="13"/></g><g fill="#999"><path d="M549 112.963c1.124-2.447 5.62-2.631 10.033-.414 4.412 2.218 7.08 6.004 5.956 8.45-.026.056-16.016-7.979-15.989-8.036z"/><path d="M581.492 112.963c-1.125-2.446-5.62-2.632-10.033-.413-4.412 2.217-7.08 6.003-5.955 8.45.024.055 16.014-7.98 15.988-8.037z"/><g opacity=".491"><path d="M594.692 88.178c.703-1.468 3.513-1.579 6.27-.248 2.758 1.33 4.426 3.602 3.724 5.07-.017.033-10.01-4.788-9.994-4.822z"/><path d="M615 88.178c-.703-1.468-3.513-1.58-6.271-.248-2.758 1.33-4.425 3.602-3.722 5.07.015.033 10.01-4.788 9.993-4.822z"/></g></g></g></svg>