<?xml version="1.0" encoding="UTF-8"?>
<svg width="61px" height="61px" viewBox="0 0 61 61" version="1.1" xmlns="http://www.w3.org/2000/svg" xmlns:xlink="http://www.w3.org/1999/xlink">
    <!-- Generator: Sketch 63.1 (92452) - https://sketch.com -->
    <title>1</title>
    <desc>Created with Sketch.</desc>
    <g id="Landing-page" stroke="none" stroke-width="1" fill="none" fill-rule="evenodd">
        <g transform="translate(-177.000000, -298.000000)" fill="#FFFFFF" fill-rule="nonzero" id="Group-2">
            <g transform="translate(177.000000, 164.000000)">
                <g id="Group-14" transform="translate(0.800000, 134.800000)">
                    <path d="M20.1,53 C20.3,53.2666667 20.5,53.25 20.7,52.95 C20.9,52.65 20.8333333,52.4 20.5,52.2 C19.7666667,51.2666667 19.4,50.1666667 19.4,48.9 C19.4,48.1 19.5,47.2333333 19.7,46.3 C19.9,45.3666667 20.3,44.3333333 20.9,43.2 C23.8333333,37.5333333 27.2166667,31.5333333 31.05,25.2 C34.8833333,18.8666667 39.1,12.5666667 43.7,6.3 L43.7,6.3 L43.5,6 C42.8333333,6.2 42.1166667,6.36666667 41.35,6.5 C40.5833333,6.63333333 39.8666667,6.76666667 39.2,6.9 C37.6666667,7.96666667 35.8833333,9.13333333 33.85,10.4 C31.8166667,11.6666667 29.75,12.9333333 27.65,14.2 C25.55,15.4666667 23.5,16.65 21.5,17.75 C19.5,18.85 17.7333333,19.8 16.2,20.6 C16.2,21 16.2333333,21.3333333 16.3,21.6 C16.3666667,21.8666667 16.4666667,22.1 16.6,22.3 C18.3333333,21.2333333 20.1166667,20.1333333 21.95,19 C23.7833333,17.8666667 25.5833333,16.75 27.35,15.65 C29.1166667,14.55 30.8,13.5 32.4,12.5 C34,11.5 35.4333333,10.6333333 36.7,9.9 C36.7666667,9.76666667 36.9,9.7 37.1,9.7 C37.1666667,9.76666667 37.2,9.83333333 37.2,9.9 L37.2,9.9 L37.2,10 C37.2,10.0666667 37.1666667,10.1333333 37.1,10.2 C35.4333333,12.5333333 33.6166667,15.1333333 31.65,18 C29.6833333,20.8666667 27.7833333,23.7333333 25.95,26.6 C24.1166667,29.4666667 22.4166667,32.2333333 20.85,34.9 C19.2833333,37.5666667 18.0333333,39.8666667 17.1,41.8 C16.3666667,43.2666667 16,44.7333333 16,46.2 C16,47.3333333 16.4,48.3833333 17.2,49.35 C18,50.3166667 18.9666667,51.5333333 20.1,53 Z" id="1"></path>
                </g>
            </g>
        </g>
    </g>
</svg>