<?xml version="1.0" encoding="UTF-8"?>
<svg width="60px" height="60px" viewBox="0 0 60 60" version="1.1" xmlns="http://www.w3.org/2000/svg" xmlns:xlink="http://www.w3.org/1999/xlink">
    <!-- Generator: Sketch 63.1 (92452) - https://sketch.com -->
    <title>2</title>
    <desc>Created with Sketch.</desc>
    <g id="Landing-page" stroke="none" stroke-width="1" fill="none" fill-rule="evenodd">
        <g transform="translate(-564.000000, -299.000000)" fill="#FFFFFF" fill-rule="nonzero" id="Group-2">
            <g transform="translate(177.000000, 164.000000)">
                <path d="M398.3,187.2 C399.3,187.2 400.366667,187.016667 401.5,186.65 C402.633333,186.283333 403.783333,185.816667 404.95,185.25 C406.116667,184.683333 407.233333,184.05 408.3,183.35 C409.366667,182.65 410.333333,181.966667 411.2,181.3 C413.666667,181.5 415.983333,181.783333 418.15,182.15 C420.316667,182.516667 422.3,182.933333 424.1,183.4 C425.9,183.866667 427.45,184.366667 428.75,184.9 C430.05,185.433333 431.033333,186 431.7,186.6 L431.7,186.6 L431.9,186.5 C432.1,185.966667 432.3,185.25 432.5,184.35 C432.7,183.45 432.866667,182.666667 433,182 C433,181.133333 432.6,180.6 431.8,180.4 C430.133333,179.866667 427.733333,179.433333 424.6,179.1 C421.466667,178.766667 418.233333,178.466667 414.9,178.2 C417.233333,176.333333 419.816667,174.1 422.65,171.5 C425.483333,168.9 428.15,166.233333 430.65,163.5 C433.15,160.766667 435.233333,158.1 436.9,155.5 C438.566667,152.9 439.4,150.633333 439.4,148.7 C439.4,147.233333 439.166667,146.066667 438.7,145.2 C438.233333,144.333333 437.633333,143.666667 436.9,143.2 C436.166667,142.733333 435.4,142.416667 434.6,142.25 C433.8,142.083333 433.033333,142 432.3,142 C430.433333,142 428.666667,142.333333 427,143 C425.333333,143.666667 423.783333,144.516667 422.35,145.55 C420.916667,146.583333 419.566667,147.75 418.3,149.05 C417.033333,150.35 415.9,151.6 414.9,152.8 C414.766667,153.066667 414.8,153.283333 415,153.45 C415.2,153.616667 415.4,153.566667 415.6,153.3 C416.4,152.3 417.233333,151.35 418.1,150.45 C418.966667,149.55 419.916667,148.733333 420.95,148 C421.983333,147.266667 423.133333,146.683333 424.4,146.25 C425.666667,145.816667 427.1,145.6 428.7,145.6 C430.766667,145.6 432.316667,146.183333 433.35,147.35 C434.383333,148.516667 434.9,150.166667 434.9,152.3 C434.9,154.233333 434.2,156.35 432.8,158.65 C431.4,160.95 429.65,163.25 427.55,165.55 C425.45,167.85 423.15,170.1 420.65,172.3 C418.15,174.5 415.833333,176.466667 413.7,178.2 C412.966667,178.133333 412.066667,178.1 411,178.1 L411,178.1 L407.6,178.1 C405.733333,178.1 403.983333,178.3 402.35,178.7 C400.716667,179.1 399.283333,179.633333 398.05,180.3 C396.816667,180.966667 395.833333,181.716667 395.1,182.55 C394.366667,183.383333 394,184.233333 394,185.1 C394,186.033333 394.433333,186.616667 395.3,186.85 C396.166667,187.083333 397.166667,187.2 398.3,187.2 Z M398.9,185.4 C397.766667,185.4 396.933333,185.233333 396.4,184.9 C395.866667,184.566667 395.6,184.166667 395.6,183.7 C395.6,182.566667 396.45,181.833333 398.15,181.5 C399.85,181.166667 402.3,181 405.5,181 C406.233333,181 407.033333,181.016667 407.9,181.05 C408.766667,181.083333 409.4,181.133333 409.8,181.2 C408.866667,182 407.5,182.9 405.7,183.9 C403.9,184.9 401.633333,185.4 398.9,185.4 Z" id="2"></path>
            </g>
        </g>
    </g>
</svg>