<?xml version="1.0" encoding="UTF-8"?>
<svg width="60px" height="60px" viewBox="0 0 60 60" version="1.1" xmlns="http://www.w3.org/2000/svg" xmlns:xlink="http://www.w3.org/1999/xlink">
    <!-- Generator: Sketch 63.1 (92452) - https://sketch.com -->
    <title>3</title>
    <desc>Created with Sketch.</desc>
    <g id="Landing-page" stroke="none" stroke-width="1" fill="none" fill-rule="evenodd">
        <g transform="translate(-959.000000, -299.000000)" fill="#FFFFFF" fill-rule="nonzero" id="Group-2">
            <g transform="translate(177.000000, 164.000000)">
                <path d="M800.8,188.9 C803.8,188.9 806.733333,188.316667 809.6,187.15 C812.466667,185.983333 815,184.533333 817.2,182.8 C819.4,181.066667 821.166667,179.2 822.5,177.2 C823.833333,175.2 824.5,173.333333 824.5,171.6 C824.5,170.333333 824.25,169.35 823.75,168.65 C823.25,167.95 822.666667,167.2 822,166.4 C821.066667,165.333333 820.333333,164.416667 819.8,163.65 C819.266667,162.883333 819,162.166667 819,161.5 C819,161.033333 819.083333,160.616667 819.25,160.25 C819.416667,159.883333 819.716667,159.5 820.15,159.1 C820.583333,158.7 821.166667,158.25 821.9,157.75 C822.633333,157.25 823.6,156.633333 824.8,155.9 C827.2,154.366667 828.883333,153 829.85,151.8 C830.816667,150.6 831.3,149.433333 831.3,148.3 C831.3,146.366667 830.416667,144.866667 828.65,143.8 C826.883333,142.733333 824.7,142.133333 822.1,142 C821.633333,142.2 820.983333,142.533333 820.15,143 C819.316667,143.466667 818.633333,143.933333 818.1,144.4 C818.033333,144.733333 818.166667,144.9 818.5,144.9 C820.233333,145.033333 821.7,145.316667 822.9,145.75 C824.1,146.183333 825.066667,146.683333 825.8,147.25 C826.533333,147.816667 827.05,148.416667 827.35,149.05 C827.65,149.683333 827.8,150.3 827.8,150.9 C827.8,152.433333 826.766667,153.833333 824.7,155.1 C822.433333,156.5 820.616667,157.6 819.25,158.4 C817.883333,159.2 816.833333,159.866667 816.1,160.4 C815.366667,160.933333 814.883333,161.383333 814.65,161.75 C814.416667,162.116667 814.3,162.6 814.3,163.2 C814.3,163.8 814.5,164.4 814.9,165 C815.3,165.6 815.9,166.366667 816.7,167.3 C817.833333,168.7 818.716667,169.966667 819.35,171.1 C819.983333,172.233333 820.3,173.366667 820.3,174.5 C820.3,176.366667 819.833333,178.033333 818.9,179.5 C817.966667,180.966667 816.716667,182.216667 815.15,183.25 C813.583333,184.283333 811.783333,185.066667 809.75,185.6 C807.716667,186.133333 805.6,186.4 803.4,186.4 C799.8,186.4 797.25,185.766667 795.75,184.5 C794.25,183.233333 793.4,181.6 793.2,179.6 L793.2,179.6 L793.2,178.2 L792.8,178.3 C792.266667,179.5 792,180.766667 792,182.1 C792,183.433333 792.25,184.55 792.75,185.45 C793.25,186.35 793.9,187.05 794.7,187.55 C795.5,188.05 796.433333,188.4 797.5,188.6 C798.566667,188.8 799.666667,188.9 800.8,188.9 Z" id="3"></path>
            </g>
        </g>
    </g>
</svg>