<?xml version="1.0" encoding="UTF-8"?>
<svg width="46px" height="46px" viewBox="0 0 46 46" version="1.1" xmlns="http://www.w3.org/2000/svg" xmlns:xlink="http://www.w3.org/1999/xlink">
    <!-- Generator: Sketch 63.1 (92452) - https://sketch.com -->
    <title>clover</title>
    <desc>Created with Sketch.</desc>
    <g id="Landing-page" stroke="none" stroke-width="1" fill="none" fill-rule="evenodd">
        <g transform="translate(-697.000000, -968.000000)" fill-rule="nonzero" id="clover">
            <g transform="translate(720.000000, 991.000000) rotate(-315.000000) translate(-720.000000, -991.000000) translate(696.000000, 967.000000)">
                <path d="M22.2635791,1.01587741 C19.6595715,-0.668692303 16.2319659,-0.220084088 14.1397581,2.07862112 C11.2867473,5.21375181 11.2867473,10.0301563 14.1397581,13.1649208 L24.0000681,24 L33.8603781,13.1649208 C36.7130258,10.0301563 36.7133888,5.21375181 33.8603781,2.07862112 C31.7681702,-0.220084088 28.3405646,-0.668692303 25.736557,1.01587741 C24.6784748,1.70032538 23.3220243,1.70032538 22.2635791,1.01587741 Z" id="Path" fill="#A2BD30"></path>
                <path d="M33.8604778,2.07862112 C31.7682343,-0.220084088 28.3405704,-0.668692303 25.7365185,1.01587741 C25.207287,1.35828444 24.6036435,1.52930491 24,1.52930491 L24,24 L33.8604778,13.1649208 C36.7131741,10.0301563 36.7131741,5.21375181 33.8604778,2.07862112 L33.8604778,2.07862112 Z" id="Path" fill-opacity="0.292832168" fill="#81852C"></path>
                <path d="M25.736557,46.9841226 C28.3405646,48.6686923 31.7681702,48.2200841 33.8603781,45.9213789 C36.7133888,42.7862482 36.7130258,37.9698437 33.8603781,34.8350792 L24.0000681,24 L14.1397581,34.8350792 C11.2867473,37.9698437 11.2867473,42.7862482 14.1397581,45.9213789 C16.2319659,48.2200841 19.6595715,48.6686923 22.2635791,46.9841226 C23.3220243,46.2996746 24.6784748,46.2996746 25.736557,46.9841226 Z" id="Path" fill="#A2BD30"></path>
                <path d="M14.1397459,45.9213789 C16.2319419,48.2200841 19.6595281,48.6686923 22.2635209,46.9841226 C22.7927404,46.6417156 23.3963702,46.4706951 24,46.4706951 L24,24 L14.1397459,34.8350792 C11.2867514,37.9698437 11.2867514,42.7862482 14.1397459,45.9213789 Z" id="Path" fill-opacity="0.292832168" fill="#81852C"></path>
                <path d="M46.9841226,22.2634233 C48.6686923,19.6593862 48.2200841,16.2317417 45.9213789,14.1395101 C42.7862482,11.28683 37.9698437,11.28683 34.8350792,14.1395101 L24,23.9999319 L34.8350792,33.8603538 C37.9698437,36.7130339 42.7862482,36.7133969 45.9213789,33.8603538 C48.2200841,31.7681222 48.6686923,28.3404777 46.9841226,25.7364406 C46.2996746,24.6783464 46.2996746,23.3218805 46.9841226,22.2634233 Z" id="Path" fill="#A2BD30"></path>
                <path d="M45.9213789,33.8604778 C48.2200841,31.7682343 48.6686923,28.3405704 46.9841226,25.7365185 C46.6417156,25.207287 46.4706951,24.6036435 46.4706951,24 L24,24 L34.8350792,33.8604778 C37.9698437,36.7131741 42.7862482,36.7131741 45.9213789,33.8604778 L45.9213789,33.8604778 Z" id="Path" fill-opacity="0.292832168" fill="#81852C"></path>
                <path d="M1.01587741,25.736557 C-0.668692303,28.3405646 -0.220084088,31.7681702 2.07862112,33.8603781 C5.21375181,36.7133888 10.0301563,36.7130258 13.1649208,33.8603781 L24,24.0000681 L13.1649208,14.1397581 C10.0301563,11.2867473 5.21375181,11.2867473 2.07862112,14.1397581 C-0.220084088,16.2319659 -0.668692303,19.6595715 1.01587741,22.2635791 C1.70032538,23.3220243 1.70032538,24.6784748 1.01587741,25.736557 Z" id="Path" fill="#A2BD30"></path>
                <path d="M2.07862112,14.1397459 C-0.220084088,16.2319419 -0.668692303,19.6595281 1.01587741,22.2635209 C1.35828444,22.7927404 1.52930491,23.3963702 1.52930491,24 L24,24 L13.1649208,14.1397459 C10.0301563,11.2867514 5.21375181,11.2867514 2.07862112,14.1397459 Z" id="Path" fill-opacity="0.292832168" fill="#81852C"></path>
            </g>
        </g>
    </g>
</svg>