<?xml version="1.0" encoding="UTF-8"?>
<svg width="30px" height="44px" viewBox="0 0 30 44" version="1.1" xmlns="http://www.w3.org/2000/svg" xmlns:xlink="http://www.w3.org/1999/xlink">
    <!-- Generator: Sketch 63.1 (92452) - https://sketch.com -->
    <title>ic-control</title>
    <desc>Created with Sketch.</desc>
    <g id="Landing-page" stroke="none" stroke-width="1" fill="none" fill-rule="evenodd">
        <g transform="translate(-1112.000000, -5462.000000)" id="ic-control">
            <g transform="translate(1112.000000, 5462.000000)">
                <g id="up">
                    <path d="M6,0 L24,0 C27.3137085,-6.08718376e-16 30,2.6862915 30,6 L30,20 L30,20 L0,20 L0,6 C-4.05812251e-16,2.6862915 2.6862915,6.08718376e-16 6,0 Z" id="Rectangle" fill="#84A403"></path>
                    <path d="M20.2544789,13.7946521 C20.3750148,13.7946521 20.4821577,13.7410807 20.562515,13.6607234 L21.2321586,12.9910798 C21.3125159,12.9107225 21.3660874,12.7901867 21.3660874,12.6830437 C21.3660874,12.5759007 21.3125159,12.4553648 21.2321586,12.3750076 L14.9910798,6.13392873 C14.9107225,6.05357149 14.7901867,6 14.6830437,6 C14.5759007,6 14.4553648,6.05357149 14.3750076,6.13392873 L8.13392873,12.3750076 C8.05357149,12.4553648 8,12.5759007 8,12.6830437 C8,12.7901867 8.05357149,12.9107225 8.13392873,12.9910798 L8.80357239,13.6607234 C8.88392963,13.7410807 9.00446548,13.7946521 9.11160847,13.7946521 C9.21875145,13.7946521 9.33928731,13.7410807 9.41964455,13.6607234 L14.6830437,8.39732429 L19.9464428,13.6607234 C20.0268001,13.7410807 20.1473359,13.7946521 20.2544789,13.7946521 Z" id="" fill="#FFFFFF" fill-rule="nonzero"></path>
                </g>
                <g id="down" transform="translate(0.000000, 24.000000)">
                    <path d="M0,0 L30,0 L30,14 C30,17.3137085 27.3137085,20 24,20 L6,20 C2.6862915,20 4.05812251e-16,17.3137085 0,14 L0,0 L0,0 Z" id="Rectangle-Copy-3" fill="#84A403"></path>
                    <path d="M20.2544789,13.7946521 C20.3750148,13.7946521 20.4821577,13.7410807 20.562515,13.6607234 L21.2321586,12.9910798 C21.3125159,12.9107225 21.3660874,12.7901867 21.3660874,12.6830437 C21.3660874,12.5759007 21.3125159,12.4553648 21.2321586,12.3750076 L14.9910798,6.13392873 C14.9107225,6.05357149 14.7901867,6 14.6830437,6 C14.5759007,6 14.4553648,6.05357149 14.3750076,6.13392873 L8.13392873,12.3750076 C8.05357149,12.4553648 8,12.5759007 8,12.6830437 C8,12.7901867 8.05357149,12.9107225 8.13392873,12.9910798 L8.80357239,13.6607234 C8.88392963,13.7410807 9.00446548,13.7946521 9.11160847,13.7946521 C9.21875145,13.7946521 9.33928731,13.7410807 9.41964455,13.6607234 L14.6830437,8.39732429 L19.9464428,13.6607234 C20.0268001,13.7410807 20.1473359,13.7946521 20.2544789,13.7946521 Z" id="" fill="#FFFFFF" fill-rule="nonzero" transform="translate(14.683044, 9.897326) scale(1, -1) translate(-14.683044, -9.897326) "></path>
                </g>
            </g>
        </g>
    </g>
</svg>