<?xml version="1.0" encoding="UTF-8"?>
<svg width="56px" height="56px" viewBox="0 0 56 56" version="1.1" xmlns="http://www.w3.org/2000/svg" xmlns:xlink="http://www.w3.org/1999/xlink">
    <!-- Generator: Sketch 63.1 (92452) - https://sketch.com -->
    <title>Group 24</title>
    <desc>Created with Sketch.</desc>
    <defs>
        <circle id="path-1" cx="28" cy="28" r="28"></circle>
    </defs>
    <g id="Landing-page" stroke="none" stroke-width="1" fill="none" fill-rule="evenodd">
        <g transform="translate(-166.000000, -3775.000000)" id="Group-25">
            <g transform="translate(150.000000, 3744.000000)">
                <g id="Group-24" transform="translate(16.000000, 31.000000)">
                    <mask id="mask-2" fill="white">
                        <use xlink:href="#path-1"></use>
                    </mask>
                    <use id="Mask" fill="#F4F4F4" xlink:href="#path-1"></use>
                    <g id="employee" mask="url(#mask-2)">
                        <g transform="translate(7.000000, 6.000000)">
                            <path d="M23.7768007,45.4574414 C23.7768007,41.8449612 23.7768007,28.8936009 23.7768007,24.4219207 C23.7768007,21.4916806 25.3008008,19.6726406 26.5416008,18.6769606 L24.8150407,19.3464006 C24.8150407,19.3464006 20.4800006,21.1284806 20.4800006,26.0704008 C20.4800006,30.5420809 20.4800006,41.8451212 20.4800006,45.4576014 C20.4800006,46.2553614 21.1268806,46.9020814 21.9244807,46.9020814 C22.0315207,46.9020814 23.2630407,46.9020814 25.2212808,46.9020814 C24.4236807,46.9020814 23.7768007,46.2552014 23.7768007,45.4574414 Z" id="Path" fill="#D8DCE5" fill-rule="nonzero"></path>
                            <path d="M20.3800006,0.138080004 C14.5240004,0.138080004 9.77712029,4.88512015 9.77712029,10.7409603 L9.77712029,15.0281604 C10.4857603,14.3713604 11.4939203,14.0142404 12.4779204,14.1457604 L12.4779204,13.6174404 C12.4779204,13.1974404 12.8364804,12.8656004 13.2523204,12.8971204 C17.3516805,13.1916804 21.5236806,11.8889604 24.6780807,9.82832029 C24.9726407,9.63584029 25.3625608,9.68368029 25.6017608,9.9409603 C28.2985608,12.8398404 28.2822408,12.7275204 28.2822408,13.1060804 L28.2822408,14.1435204 C29.3609609,13.9817604 30.3177609,14.3152004 30.9825609,14.9332804 L30.9825609,10.7409603 C30.9828809,4.88496015 26.2360008,0.138080004 20.3800006,0.138080004 Z" id="Path" fill="#666666" fill-rule="nonzero"></path>
                            <path d="M13.1113604,10.7409603 C13.1113604,5.45232016 16.9833605,1.06944003 22.0472007,0.269440008 C21.5040006,0.183680005 20.9475206,0.137920004 20.3801606,0.137920004 C14.5241604,0.137920004 9.77728029,4.88496015 9.77728029,10.7409603 L9.77728029,15.0281604 C10.4859203,14.3712004 11.4940803,14.0142404 12.4780804,14.1457604 L12.4780804,13.6174404 C12.4780804,13.2459204 12.7588804,12.9446404 13.1113604,12.9014404 L13.1113604,10.7409603 Z" id="Path" fill="#555555" fill-rule="nonzero"></path>
                            <path d="M28.2683208,13.7595204 L28.2683208,19.5904006 C28.2683208,19.6536006 28.2649608,19.7160006 28.2635208,19.7790406 C30.3268809,20.0915206 31.943041,18.6006406 31.943041,16.7696005 C31.942881,14.9348804 30.3254409,13.4512004 28.2683208,13.7595204 Z" id="Path" fill="#FACCB2" fill-rule="nonzero"></path>
                            <path d="M30.9876809,14.5600004 C30.3200009,13.9344004 29.3556809,13.5964804 28.2683208,13.7595204 L28.2683208,19.5904006 C28.2683208,19.6536006 28.2649608,19.7160006 28.2635208,19.7790406 C29.3542409,19.9441606 30.3196809,19.6052806 30.9876809,18.9787206 L30.9876809,14.5600004 Z" id="Path" fill="#F8BB9D" fill-rule="nonzero"></path>
                            <path d="M12.5016004,19.5976006 L12.5016004,13.7542404 C10.7006403,13.5137604 8.81744026,14.8958404 8.81744026,16.7696005 C8.81744026,18.6028806 10.4340803,20.1003206 12.5060804,19.7867206 C12.5046404,19.7235206 12.5016004,19.6606406 12.5016004,19.5976006 Z" id="Path" fill="#FACCB2" fill-rule="nonzero"></path>
                            <path d="M12.5016004,18.6908806 C12.0697604,18.1627205 11.8176004,17.4926405 11.8176004,16.7694405 C11.8176004,16.0707205 12.0796804,15.4403205 12.5016004,14.9369604 L12.5016004,13.7540804 C10.7006403,13.5136004 8.81744026,14.8956804 8.81744026,16.7694405 C8.81744026,18.6027206 10.4340803,20.1001606 12.5060804,19.7865606 C12.5046404,19.7235206 12.5014404,19.6606406 12.5014404,19.5976006 L12.5016004,18.6908806 L12.5016004,18.6908806 Z" id="Path" fill="#F8BB9D" fill-rule="nonzero"></path>
                            <path d="M20.4929606,26.9966408 C18.7800006,26.9966408 17.2745605,26.5264008 16.0433605,25.7396808 L16.0433605,30.0835209 L20.4739206,35.5523211 L24.9043207,30.0835209 L24.9043207,25.6222408 C23.6492807,26.4878408 22.1296007,26.9966408 20.4929606,26.9966408 Z" id="Path" fill="#FACCB2" fill-rule="nonzero"></path>
                            <path d="M19.3401606,26.9220808 C18.0995205,26.7612808 16.9900805,26.3444808 16.0433605,25.7396808 L16.0433605,30.0835209 L19.3401606,34.152801 C19.3401606,34.152641 19.3401606,26.9220808 19.3401606,26.9220808 Z" id="Path" fill="#F8BB9D" fill-rule="nonzero"></path>
                            <path d="M36.6249611,34.250401 L24.9043207,29.7112009 L20.4739206,35.180001 L16.0433605,29.7112009 L4.33504013,34.250401 C4.33504013,34.250401 0,36.0326411 0,40.9744012 C0,45.4460814 0,56.7491217 0,60.3614418 C0,61.1592018 0.646880019,61.8059218 1.44448004,61.8059218 C2.05232006,61.8059218 38.8980812,61.8059218 39.5153612,61.8059218 C40.3131212,61.8059218 40.9598412,61.1590418 40.9598412,60.3614418 C40.9598412,56.7491217 40.9598412,45.4459214 40.9598412,40.9744012 C40.9598412,36.0324811 36.6249611,34.250401 36.6249611,34.250401 Z" id="Path" fill="#E4EAF8" fill-rule="nonzero"></path>
                            <path d="M3.2968001,60.3614418 C3.2968001,56.7489617 3.2968001,43.7976013 3.2968001,39.3259212 C3.2968001,36.3956811 4.82080014,34.576641 6.06160018,33.580961 L4.33504013,34.250401 C4.33504013,34.250401 0,36.0324811 0,40.9744012 C0,45.4460814 0,56.7491217 0,60.3616018 C0,61.1593618 0.646880019,61.8060818 1.44448004,61.8060818 C1.55152005,61.8060818 2.78304008,61.8060818 4.74128014,61.8060818 C3.94368012,61.8060818 3.2968001,61.1592018 3.2968001,60.3614418 Z" id="Path" fill="#D1DBF1" fill-rule="nonzero"></path>
                            <path d="M25.6019208,9.56864029 C25.3625608,9.31136028 24.9726407,9.26352028 24.6782407,9.45600028 C21.5238406,11.5166403 17.3518405,12.8193604 13.2524804,12.5248004 C12.8366404,12.4932804 12.4780804,12.8251204 12.4780804,13.2451204 L12.4780804,19.5793606 C12.4780804,23.6504007 15.6680005,27.3688008 20.4931206,27.3688008 C24.7883207,27.3688008 28.2827208,23.8744007 28.2827208,19.5793606 L28.2827208,12.7337604 C28.2825608,12.3553604 28.2987208,12.4673604 25.6019208,9.56864029 Z" id="Path" fill="#FACCB2" fill-rule="nonzero"></path>
                            <path d="M15.7801605,19.5795206 L15.7801605,12.5104004 C14.9408004,12.5776004 14.0952004,12.5854404 13.2524804,12.5249604 C12.8366404,12.4934404 12.4780804,12.8252804 12.4780804,13.2452804 L12.4780804,19.5796806 C12.4780804,23.6507207 15.6680005,27.3691208 20.4931206,27.3691208 C21.0196806,27.3691208 21.5339206,27.3160008 22.0315207,27.2158408 C18.4705606,26.4993608 15.7801605,23.3480007 15.7801605,19.5795206 Z" id="Path" fill="#F8BB9D" fill-rule="nonzero"></path>
                            <g id="Group" stroke-width="1" fill="none" fill-rule="evenodd" transform="translate(11.680000, 29.600001)">
                                <path d="M14.1433604,8.39008025 L17.4563205,1.75024005 L13.2243204,0.111200003 L8.79392026,5.58000017 L13.1134404,8.64784026 C13.4630404,8.89616027 13.9518404,8.77376026 14.1433604,8.39008025 Z" id="Path" fill="#D1DBF1" fill-rule="nonzero"></path>
                                <path d="M3.4505601,8.39008025 L0.137600004,1.75024005 L4.36960013,0.111200003 L8.80000026,5.58000017 L4.48048013,8.64784026 C4.13088012,8.89616027 3.64208011,8.77376026 3.4505601,8.39008025 Z" id="Path" fill="#D1DBF1" fill-rule="nonzero"></path>
                            </g>
                            <path d="M24.9798407,56.4420817 L22.1363207,39.6145612 L20.4796806,39.6145612 L20.4744006,39.6145612 L18.8176006,39.6145612 L15.9740805,56.4420817 C15.9441605,56.6588817 16.0078405,56.8790417 16.1433605,57.0284817 L16.1433605,57.0284817 L16.1433605,57.0284817 L20.0691206,61.3542418 C20.2878406,61.5952018 20.6660806,61.5952018 20.8848006,61.3542418 L24.8105607,57.0284817 L24.8105607,57.0284817 L24.8105607,57.0284817 C24.9460807,56.8788817 25.0097607,56.6588817 24.9798407,56.4420817 Z" id="Path" fill="#72ADE3" fill-rule="nonzero"></path>
                            <g id="Group" stroke-width="1" fill="none" fill-rule="evenodd" transform="translate(15.840000, 35.040001)">
                                <path d="M3.60560011,21.9884807 C3.4700801,21.8390407 3.4064001,21.6188806 3.4363201,21.4020806 L6.27984019,4.57456014 L4.63968014,4.57456014 L4.63440014,4.57456014 L2.97760009,4.57456014 L0.134080004,21.4020806 C0.104160003,21.6188806 0.167840005,21.8390407 0.303360009,21.9884807 L4.22912013,26.3140808 C4.44784013,26.5550408 4.82608014,26.5550408 5.04480015,26.3140808 L6.28800019,24.9441607 L3.60560011,21.9884807 Z" id="Path" fill="#4A8CC8" fill-rule="nonzero"></path>
                                <polygon id="Path" fill="#72ADE3" fill-rule="nonzero" points="4.63968014 0.143680004 4.63968014 0.140000004 4.63696014 0.141920004 4.63424014 0.140000004 4.63424014 0.143680004 1.49248004 2.37504007 2.97760009 4.61024014 4.63424014 4.61024014 4.63968014 4.61024014 6.29632019 4.61024014 7.78128023 2.37504007"></polygon>
                            </g>
                            <path d="M22.1252807,36.3526411 L20.4795206,35.183841 L20.4795206,35.180001 L20.4768006,35.181921 L20.4740806,35.180001 L20.4740806,35.183841 L17.3323205,37.4152011 L18.8174406,39.6502412 L20.4740806,39.6502412 L20.4793606,39.6502412 L22.1140807,39.6502412 L20.8392006,37.7315211 C20.7220806,37.5552011 20.7660806,37.3177611 20.9387206,37.1950411 L22.1252807,36.3526411 Z" id="Path" fill="#4A8CC8" fill-rule="nonzero"></path>
                            <g id="Group" stroke-width="1" fill="none" fill-rule="evenodd" transform="translate(6.920000, 41.920001)">
                                <path d="M1.45992043,19.8860806 L1.45992043,1.29200004 C1.45992043,0.609280018 1.23609488,0.0556800017 0.959920431,0.0556800017 C0.683745978,0.0556800017 0.459920431,0.609120018 0.459920431,1.29200004 L0.459920431,19.8860806 C0.765084143,19.8860806 1.10059598,19.8860806 1.45992043,19.8860806 Z" id="Path" fill="#D1DBF1" fill-rule="nonzero"></path>
                                <path d="M26.4599204,19.8860806 L26.4599204,1.29200004 C26.4599204,0.609280018 26.2360949,0.0556800017 25.9599204,0.0556800017 C25.6838107,0.0556800017 25.4599204,0.609120018 25.4599204,1.29200004 L25.4599204,19.8860806 C25.818339,19.8860806 26.1534626,19.8860806 26.4599204,19.8860806 Z" id="Path" fill="#D1DBF1" fill-rule="nonzero"></path>
                            </g>
                        </g>
                    </g>
                </g>
            </g>
        </g>
    </g>
</svg>