<svg xmlns="http://www.w3.org/2000/svg" width="169" height="140" viewBox="0 0 169 140">
  <defs>
    <linearGradient id="icon-msg-a" x1="0%" x2="100%" y1="50%" y2="50%">
      <stop offset="0%" stop-color="#ECC4D7"/>
      <stop offset="42%" stop-color="#EFD4D1"/>
      <stop offset="100%" stop-color="#F2EAC9"/>
    </linearGradient>
    <linearGradient id="icon-msg-b" x1="-.007%" x2="99.988%" y1="49.996%" y2="49.996%">
      <stop offset="0%" stop-color="#ECC4D7"/>
      <stop offset="42%" stop-color="#EFD4D1"/>
      <stop offset="100%" stop-color="#F2EAC9"/>
    </linearGradient>
    <linearGradient id="icon-msg-c" x1=".048%" x2="99.998%" y1="50.001%" y2="50.001%">
      <stop offset="0%" stop-color="#ECC4D7"/>
      <stop offset="42%" stop-color="#EFD4D1"/>
      <stop offset="100%" stop-color="#F2EAC9"/>
    </linearGradient>
    <linearGradient id="icon-msg-d" x1="-.011%" x2="100%" y1="50.001%" y2="50.001%">
      <stop offset="0%" stop-color="#ECC4D7"/>
      <stop offset="42%" stop-color="#EFD4D1"/>
      <stop offset="100%" stop-color="#F2EAC9"/>
    </linearGradient>
    <linearGradient id="icon-msg-e" x1=".03%" x2="100.007%" y1="49.991%" y2="49.991%">
      <stop offset="0%" stop-color="#ECC4D7"/>
      <stop offset="42%" stop-color="#EFD4D1"/>
      <stop offset="100%" stop-color="#F2EAC9"/>
    </linearGradient>
  </defs>
  <g fill="none">
    <path fill="#BDD657" d="M96.0902836,0.0676182773 C77.0676871,1.26842562 65.3352604,16.5291713 48.2204003,23.0088676 C40.5316446,25.9211169 31.8692434,26.9890193 23.9827159,29.5701722 C10.5677082,33.9583652 -0.750919199,44.1127651 0.460052232,55.2511276 C2.03005539,69.6887956 22.3488172,78.6540465 28.7353224,92.2872902 C30.4970119,96.0505971 31.142052,100.079714 32.9585091,103.824367 C37.4920454,113.172011 49.7782329,119.992131 62.7763987,120.379187 C73.2157026,120.689298 83.1773118,117.250093 93.5070807,116.037627 C106.1523,114.550025 119.043973,116.431679 131.844367,116.098251 C144.644761,115.764822 158.619615,112.430542 164.896585,103.887322 C169.977797,96.969273 168.736399,88.3514402 165.924998,80.7105748 C163.113597,73.0697095 158.84477,65.6130457 158.275796,57.6853856 C157.618586,48.4543249 161.52838,37.819602 153.574915,30.8712411 C147.67219,25.7019404 136.770404,24.4824797 132.559388,18.4201514 C128.013681,11.8914902 126.419337,11.0217792 118.776221,7.15121574 C111.218299,3.31562725 106.054935,-0.561931201 96.0902836,0.0676182773 Z" opacity=".24"/>
    <rect width="45.544" height="86.652" x="90.631" y="13.472" fill="#BDD657" rx="5.155"/>
    <path fill="#BDD657" d="M134.302869,19.9730401 L134.302869,92.8328998 C134.301581,95.4937537 132.144172,97.6501191 129.483318,97.6501191 L97.322666,97.6501191 C94.6636329,97.6475466 92.5090635,95.4919338 92.5077783,92.8328998 L92.5077783,19.9753718 C92.5090635,17.31505 94.6646768,15.1583933 97.3249976,15.1558208 L102.221494,15.1558208 L102.221494,15.5358821 C102.221494,16.2550766 102.507192,16.9448147 103.01574,17.453362 C103.524287,17.9619093 104.214025,18.2476082 104.93322,18.2476082 L121.623276,18.2476082 C122.34266,18.2482276 123.032758,17.9627276 123.54144,17.454046 C124.050121,16.9453644 124.335621,16.2552663 124.335002,15.5358821 L124.335002,15.1558208 L129.485649,15.1558208 C132.145061,15.1583915 134.300298,17.3136289 134.302869,19.9730401 Z"/>
    <path fill="#000" fill-opacity=".239" d="M134.302869,19.9730401 L134.302869,92.8328998 C134.301581,95.4937537 132.144172,97.6501191 129.483318,97.6501191 L97.322666,97.6501191 C94.6636329,97.6475466 92.5090635,95.4919338 92.5077783,92.8328998 L92.5077783,19.9753718 C92.5090635,17.31505 94.6646768,15.1583933 97.3249976,15.1558208 L102.221494,15.1558208 L102.221494,15.5358821 C102.221494,16.2550766 102.507192,16.9448147 103.01574,17.453362 C103.524287,17.9619093 104.214025,18.2476082 104.93322,18.2476082 L121.623276,18.2476082 C122.34266,18.2482276 123.032758,17.9627276 123.54144,17.454046 C124.050121,16.9453644 124.335621,16.2552663 124.335002,15.5358821 L124.335002,15.1558208 L129.485649,15.1558208 C132.145061,15.1583915 134.300298,17.3136289 134.302869,19.9730401 Z" opacity=".81"/>
    <rect width="30.722" height="11.127" x="99.433" y="61.735" fill="#FFF" opacity=".17" rx="2.378"/>
    <path fill="url(#icon-msg-a)" d="M142.214207,68.0706203 L131.197091,57.5128424 C131.197091,57.5128424 127.186628,60.6885697 128.89807,66.4361233 C130.609512,72.1836769 136.175195,79.1017262 136.175195,79.1017262 L136.175195,94.9570464 C136.175195,94.9570464 136.23815,100.114689 131.017553,100.114689 L95.7860989,100.114689 C95.7860989,100.114689 98.859233,108.205565 105.112758,115.07465 C111.366283,121.943734 122.586253,130.428662 122.10593,139.261008 L152.613432,139.261008 C152.613432,139.261008 144.797692,111.441916 147.483769,100.124015 C150.169847,88.8061148 149.167231,74.7275231 142.214207,68.0706203 Z"/>
    <path fill="url(#icon-msg-b)" d="M95.5809124,46.3744799 C94.4663767,46.1016752 91.6730423,44.1757201 89.3973375,42.1168601 C87.9517054,40.8111279 86.7135914,39.4517673 86.2449268,38.4258348 C85.0371245,35.7863904 84.824943,30.0061935 89.3973375,30.4492098 C89.3973375,30.4492098 91.2626693,30.0248468 95.5809124,36.4625731 C99.8991555,42.9002995 97.4042742,46.8221596 95.5809124,46.3744799 Z"/>
    <path fill="url(#icon-msg-c)" d="M96.4716083,57.1071327 C95.305776,57.0371828 92.0414453,55.561239 89.3903425,53.884772 C87.8327905,52.9008095 86.4757616,51.8468971 85.8602021,50.9655278 C84.1953935,48.5872298 82.9479529,42.9399378 87.5273424,42.5552131 C87.5273424,42.5552131 88.044972,42.3220466 89.3926742,43.021546 C90.5188683,43.6021306 92.2233152,44.8215912 94.6925481,47.3561108 C100.104342,52.9124678 98.3509301,57.2190526 96.4716083,57.1071327 Z"/>
    <path fill="url(#icon-msg-d)" d="M93.6316407,71.0738045 C92.857528,70.8639546 91.0877945,69.5232474 89.3973375,67.9097354 C87.7651722,66.3591784 86.2239418,64.5568015 85.6993173,63.2673909 C84.6267515,60.6326098 84.3003184,54.8104429 88.0916053,55.157861 C88.0916053,55.157861 88.4949833,55.0342828 89.3973375,55.7827471 C90.2483952,56.4822466 91.5448008,57.974512 93.3611676,61.0802894 C97.1081528,67.4760458 95.1472228,71.4818458 93.6316407,71.0738045 Z"/>
    <path fill="url(#icon-msg-e)" d="M95.3710626,82.6505199 C94.3894317,82.5759066 91.5354741,81.1396011 89.3973375,79.6053657 C88.3900584,78.8825497 87.5320057,78.1387486 87.1193011,77.5068675 C85.8135688,75.5366108 84.7876363,70.8849396 88.3294351,70.6121349 C88.3294351,70.6121349 88.6302198,70.4768983 89.3973375,70.8243163 C90.2483952,71.209041 91.6777056,72.1930035 93.9044455,74.6249299 C98.129422,79.2392944 96.8166947,82.7601081 95.3710626,82.6505199 Z"/>
    <rect width="30.722" height="11.127" x="99.433" y="30.426" fill="#FFF" opacity=".17" rx="2.378"/>
    <rect width="30.722" height="11.127" x="99.433" y="46.081" fill="#FFF" opacity=".17" rx="2.378"/>
    <path fill="#BDD657" d="M85.9091676,8.860326 L85.9091676,99.1726962 C85.9097857,100.539137 85.3674028,101.849823 84.401402,102.816261 C83.4354012,103.782699 82.1249604,104.325675 80.7585197,104.325675 L37.8978585,104.325675 C36.5314178,104.325675 35.220977,103.782699 34.2549762,102.816261 C33.2889754,101.849823 32.7465925,100.539137 32.7472106,99.1726962 L32.7472106,8.860326 C32.7465925,7.49388543 33.2889754,6.18319902 34.2549762,5.2167609 C35.220977,4.25032278 36.5314178,3.70734693 37.8978585,3.70734693 L80.7585197,3.70734693 C82.1249604,3.70734693 83.4354012,4.25032278 84.401402,5.2167609 C85.3674028,6.18319902 85.9097857,7.49388543 85.9091676,8.860326 Z"/>
    <path fill="#FFF" d="M45.8931369,3.70734693 L45.8931369,104.325675 L37.8978585,104.325675 C36.5314178,104.325675 35.220977,103.782699 34.2549762,102.816261 C33.2889754,101.849823 32.7465925,100.539137 32.7472106,99.1726962 L32.7472106,8.860326 C32.7465925,7.49388543 33.2889754,6.18319902 34.2549762,5.2167609 C35.220977,4.25032278 36.5314178,3.70734693 37.8978585,3.70734693 L45.8931369,3.70734693 Z" opacity=".17"/>
    <path fill="#97BA0B" d="M77.8859087,51.2056893 L77.8859087,67.4853724 C77.8859087,68.9289322 76.7156723,70.0991686 75.2721126,70.0991686 L32.7472111,70.0991686 L32.7472111,48.5942237 L75.2721126,48.5942237 C75.9651199,48.593606 76.6299553,48.8684685 77.1202043,49.3582801 C77.6104533,49.8480918 77.8859087,50.5126816 77.8859087,51.2056893 L77.8859087,51.2056893 Z"/>
    <rect width="54.514" height="21.507" x="20.543" y="44.675" fill="#BDD657" rx="2.614"/>
    <path fill="#97BA0B" d="M67.4255174 50.4832251L41.3366455 50.4832251C40.8096014 50.4832251 40.3820703 49.9282335 40.3810815 49.2427773L40.3810815 49.2427773C40.3810815 48.5564104 40.8089021 48 41.3366455 48L67.4255174 48C67.9532608 48 68.3810815 48.5564104 68.3810815 49.2427773L68.3810815 49.2427773C68.3810815 49.5721683 68.2803495 49.8880344 68.1010948 50.1207302 67.92184 50.3534261 67.6787837 50.4838421 67.4255174 50.4832251zM58.732663 58.1170933L41.0294999 58.1170933C40.6713883 58.1170933 40.3810815 57.5606829 40.3810815 56.874316L40.3810815 56.874316C40.3817524 56.1888598 40.6718629 55.6338682 41.0294999 55.6338682L58.732663 55.6338682C58.9045223 55.6332512 59.0694533 55.7636672 59.1910905 55.9963631 59.3127276 56.2290589 59.3810815 56.544925 59.3810815 56.874316L59.3810815 56.874316C59.3810815 57.5606829 59.0907746 58.1170933 58.732663 58.1170933L58.732663 58.1170933z"/>
    <path fill="#97BA0B" d="M75.554244 24.7156484L41.6238588 24.7156484C40.9384013 24.7156484 40.3823675 24.1606568 40.3810815 23.4752006L40.3810815 23.4752006C40.3810815 22.7888336 40.9374918 22.2324233 41.6238588 22.2324233L75.554244 22.2324233C76.2406109 22.2324233 76.7970213 22.7888336 76.7970213 23.4752006L76.7970213 23.4752006C76.7970213 23.8045916 76.6660124 24.1204577 76.4328792 24.3531535 76.199746 24.5858493 75.8836344 24.7162654 75.554244 24.7156484zM75.554244 32.3495165L41.6238588 32.3495165C40.9374918 32.3495165 40.3810815 31.7931062 40.3810815 31.1067392L40.3810815 31.1067392C40.3823675 30.421283 40.9384013 29.8662914 41.6238588 29.8662914L75.554244 29.8662914C75.8836344 29.8656744 76.199746 29.9960905 76.4328792 30.2287863 76.6660124 30.4614821 76.7970213 30.7773482 76.7970213 31.1067392L76.7970213 31.1067392C76.7970213 31.7931062 76.2406109 32.3495165 75.554244 32.3495165L75.554244 32.3495165zM75.554244 39.9787258L41.6238588 39.9787258C40.9384013 39.9787258 40.3823675 39.4237341 40.3810815 38.7382779L40.3810815 38.7382779C40.3810815 38.051911 40.9374918 37.4955006 41.6238588 37.4955006L75.554244 37.4955006C76.2406109 37.4955006 76.7970213 38.051911 76.7970213 38.7382779L76.7970213 38.7382779C76.7970213 39.0676689 76.6660124 39.383535 76.4328792 39.6162308 76.199746 39.8489267 75.8836344 39.9793427 75.554244 39.9787258L75.554244 39.9787258z" opacity=".426"/>
    <path fill="#97BA0B" d="M36.7451636,49.9189615 L36.7451636,59.8215416 C36.7448446,60.8493824 35.9347228,61.6944588 34.9078118,61.73817 C34.8798801,61.740495 34.8518036,61.740495 34.8238719,61.73817 L24.9212917,61.73817 C23.8601916,61.73817 23,60.8779784 23,59.8168783 L23,49.9189615 C23,49.4096174 23.2024952,48.9211687 23.5628745,48.5612268 C23.9232538,48.2012849 24.411948,47.9993825 24.9212917,48 L34.8238719,48 C35.3332156,47.9993825 35.8219098,48.2012849 36.1822891,48.5612268 C36.5426684,48.9211687 36.7451636,49.4096174 36.7451636,49.9189615 L36.7451636,49.9189615 Z"/>
    <path fill="#FFF" d="M29.7941176,51.4771242 C30.1383442,51.4771242 30.3910675,51.4041394 30.5522876,51.2581699 C30.7135076,51.1122004 30.7941176,50.9215686 30.7941176,50.6862745 C30.7941176,50.4771242 30.7287582,50.3104575 30.5980392,50.1862745 C30.4673203,50.0620915 30.2494553,50 29.9444444,50 C29.6350763,50 29.3954248,50.0718954 29.2254902,50.2156863 C29.0555556,50.3594771 28.9684096,50.5511983 28.9640523,50.7908497 C28.9640523,51.0130719 29.0315904,51.1830065 29.1666667,51.3006536 C29.3017429,51.4183007 29.5108932,51.4771242 29.7941176,51.4771242 Z M31.1470588,59.0653595 C31.2864924,59.0653595 31.3801743,59.043573 31.4281046,59 C31.4760349,58.956427 31.5,58.875817 31.5,58.7581699 C31.5,58.627451 31.4716776,58.5054466 31.4150327,58.3921569 L31.4150327,58.3921569 L30.7222222,58.3921569 C30.6917211,57.7864924 30.6764706,57.0762527 30.6764706,56.2614379 L30.6764706,56.2614379 L30.6764706,53.2875817 C30.6764706,53.0697168 30.667756,52.916122 30.6503268,52.8267974 C30.6328976,52.7374728 30.5631808,52.6764706 30.4411765,52.6437908 C30.3191721,52.6111111 30.0860566,52.5947712 29.7418301,52.5947712 C29.2538126,52.5947712 28.9248366,52.6143791 28.754902,52.6535948 C28.5849673,52.6928105 28.5,52.8017429 28.5,52.9803922 C28.5,53.1023965 28.5283224,53.2091503 28.5849673,53.3006536 C28.7374728,53.3006536 28.8649237,53.3159041 28.9673203,53.3464052 C29.0697168,53.3769063 29.1492375,53.4553377 29.2058824,53.5816993 C29.2625272,53.708061 29.2984749,53.9379085 29.3137255,54.2712418 C29.328976,54.6045752 29.3366013,55.2679739 29.3366013,56.2614379 C29.3366013,57.0762527 29.3213508,57.7864924 29.2908497,58.3921569 L29.2908497,58.3921569 L28.8071895,58.3921569 C28.6938998,58.3921569 28.6143791,58.4150327 28.5686275,58.4607843 C28.5228758,58.5065359 28.5,58.577342 28.5,58.6732026 C28.5,58.795207 28.5261438,58.9259259 28.5784314,59.0653595 L28.5784314,59.0653595 L31.1470588,59.0653595 Z"/>
  </g>
</svg>
