<?xml version="1.0" encoding="UTF-8"?>
<svg width="56px" height="56px" viewBox="0 0 56 56" version="1.1" xmlns="http://www.w3.org/2000/svg" xmlns:xlink="http://www.w3.org/1999/xlink">
    <!-- Generator: Sketch 63.1 (92452) - https://sketch.com -->
    <title>Group 24 Copy 3</title>
    <desc>Created with Sketch.</desc>
    <defs>
        <circle id="path-1" cx="28" cy="28" r="28"></circle>
    </defs>
    <g id="Landing-page" stroke="none" stroke-width="1" fill="none" fill-rule="evenodd">
        <g transform="translate(-166.000000, -3982.000000)" id="Group-30">
            <g transform="translate(150.000000, 3951.000000)">
                <g id="Group-7-Copy-2" transform="translate(16.000000, 31.000000)">
                    <g id="Group-24-Copy-3">
                        <mask id="mask-2" fill="white">
                            <use xlink:href="#path-1"></use>
                        </mask>
                        <use id="Mask" fill="#F4F4F4" xlink:href="#path-1"></use>
                        <g id="employee" mask="url(#mask-2)">
                            <g transform="translate(7.000000, 6.000000)">
                                <path d="M9.77728029,18.6769606 C9.47072027,21.4998963 9.00493371,24.6087483 8.37992061,28.0035165 C7.7549075,31.3982848 6.80977107,33.9145529 5.5445113,35.5523211 L36.0783529,35.5523211 C34.1981203,32.6684176 32.9653095,29.9405776 32.3799206,27.3688008 C31.7945317,24.7970241 31.3287451,21.899744 30.9825609,18.6769606 L9.77728029,18.6769606 Z" id="Path-2" fill="#555555" fill-rule="evenodd"></path>
                                <path d="M23.7768007,45.4574414 C23.7768007,41.8449612 23.7768007,28.8936009 23.7768007,24.4219207 C23.7768007,21.4916806 25.3008008,19.6726406 26.5416008,18.6769606 L24.8150407,19.3464006 C24.8150407,19.3464006 20.4800006,21.1284806 20.4800006,26.0704008 C20.4800006,30.5420809 20.4800006,41.8451212 20.4800006,45.4576014 C20.4800006,46.2553614 21.1268806,46.9020814 21.9244807,46.9020814 C22.0315207,46.9020814 23.2630407,46.9020814 25.2212808,46.9020814 C24.4236807,46.9020814 23.7768007,46.2552014 23.7768007,45.4574414 Z" id="Path" fill="#D8DCE5" fill-rule="nonzero"></path>
                                <path d="M20.3800006,0.138080004 C14.5240004,0.138080004 9.77712029,4.88512015 9.77712029,10.7409603 L9.77712029,15.0281604 C10.4857603,14.3713604 11.4939203,14.0142404 12.4779204,14.1457604 L12.4779204,13.6174404 C12.4779204,13.1974404 12.8364804,12.8656004 13.2523204,12.8971204 C17.3516805,13.1916804 21.5236806,11.8889604 24.6780807,9.82832029 C24.9726407,9.63584029 25.3625608,9.68368029 25.6017608,9.9409603 C28.2985608,12.8398404 28.2822408,12.7275204 28.2822408,13.1060804 L28.2822408,14.1435204 C29.3609609,13.9817604 30.3177609,14.3152004 30.9825609,14.9332804 L30.9825609,10.7409603 C30.9828809,4.88496015 26.2360008,0.138080004 20.3800006,0.138080004 Z" id="Path" fill="#666666" fill-rule="nonzero" transform="translate(20.379841, 7.583120) scale(-1, 1) translate(-20.379841, -7.583120) "></path>
                                <path d="M13.1113604,10.7409603 C13.1113604,5.45232016 16.9833605,1.06944003 22.0472007,0.269440008 C21.5040006,0.183680005 20.9475206,0.137920004 20.3801606,0.137920004 C14.5241604,0.137920004 9.77728029,4.88496015 9.77728029,10.7409603 L9.77728029,15.0281604 C10.4859203,14.3712004 11.4940803,14.0142404 12.4780804,14.1457604 L12.4780804,13.6174404 C12.4780804,13.2459204 12.7588804,12.9446404 13.1113604,12.9014404 L13.1113604,10.7409603 Z" id="Path" fill="#555555" fill-rule="nonzero"></path>
                                <path d="M28.2683208,13.7595204 L28.2683208,19.5904006 C28.2683208,19.6536006 28.2649608,19.7160006 28.2635208,19.7790406 C30.3268809,20.0915206 31.943041,18.6006406 31.943041,16.7696005 C31.942881,14.9348804 30.3254409,13.4512004 28.2683208,13.7595204 Z" id="Path" fill="#FACCB2" fill-rule="nonzero"></path>
                                <path d="M30.9876809,14.5600004 C30.3200009,13.9344004 29.3556809,13.5964804 28.2683208,13.7595204 L28.2683208,19.5904006 C28.2683208,19.6536006 28.2649608,19.7160006 28.2635208,19.7790406 C29.3542409,19.9441606 30.3196809,19.6052806 30.9876809,18.9787206 L30.9876809,14.5600004 Z" id="Path" fill="#F8BB9D" fill-rule="nonzero"></path>
                                <path d="M12.5016004,19.5976006 L12.5016004,13.7542404 C10.7006403,13.5137604 8.81744026,14.8958404 8.81744026,16.7696005 C8.81744026,18.6028806 10.4340803,20.1003206 12.5060804,19.7867206 C12.5046404,19.7235206 12.5016004,19.6606406 12.5016004,19.5976006 Z" id="Path" fill="#FACCB2" fill-rule="nonzero"></path>
                                <path d="M12.5016004,18.6908806 C12.0697604,18.1627205 11.8176004,17.4926405 11.8176004,16.7694405 C11.8176004,16.0707205 12.0796804,15.4403205 12.5016004,14.9369604 L12.5016004,13.7540804 C10.7006403,13.5136004 8.81744026,14.8956804 8.81744026,16.7694405 C8.81744026,18.6027206 10.4340803,20.1001606 12.5060804,19.7865606 C12.5046404,19.7235206 12.5014404,19.6606406 12.5014404,19.5976006 L12.5016004,18.6908806 L12.5016004,18.6908806 Z" id="Path" fill="#F8BB9D" fill-rule="nonzero"></path>
                                <path d="M20.4929606,26.9966408 C18.7800006,26.9966408 17.2745605,26.5264008 16.0433605,25.7396808 L16.0433605,30.0835209 L20.4739206,35.5523211 L24.9043207,30.0835209 L24.9043207,25.6222408 C23.6492807,26.4878408 22.1296007,26.9966408 20.4929606,26.9966408 Z" id="Path" fill="#FACCB2" fill-rule="nonzero"></path>
                                <path d="M19.3401606,26.9220808 C18.0995205,26.7612808 16.9900805,26.3444808 16.0433605,25.7396808 L16.0433605,30.0835209 L19.3401606,34.152801 C19.3401606,34.152641 19.3401606,26.9220808 19.3401606,26.9220808 Z" id="Path" fill="#F8BB9D" fill-rule="nonzero"></path>
                                <path d="M36.6249611,34.250401 L24.9043207,29.7112009 L20.4739206,35.180001 L16.0433605,29.7112009 L4.33504013,34.250401 C4.33504013,34.250401 0,36.0326411 0,40.9744012 C0,45.4460814 0,56.7491217 0,60.3614418 C0,61.1592018 0.646880019,61.8059218 1.44448004,61.8059218 C2.05232006,61.8059218 38.8980812,61.8059218 39.5153612,61.8059218 C40.3131212,61.8059218 40.9598412,61.1590418 40.9598412,60.3614418 C40.9598412,56.7491217 40.9598412,45.4459214 40.9598412,40.9744012 C40.9598412,36.0324811 36.6249611,34.250401 36.6249611,34.250401 Z" id="Path" fill="#FFCCCD" fill-rule="nonzero"></path>
                                <path d="M3.2968001,60.3614418 C3.2968001,56.7489617 3.2968001,43.7976013 3.2968001,39.3259212 C3.2968001,36.3956811 4.82080014,34.576641 6.06160018,33.580961 L4.33504013,34.250401 C4.33504013,34.250401 0,36.0324811 0,40.9744012 C0,45.4460814 0,56.7491217 0,60.3616018 C0,61.1593618 0.646880019,61.8060818 1.44448004,61.8060818 C1.55152005,61.8060818 2.78304008,61.8060818 4.74128014,61.8060818 C3.94368012,61.8060818 3.2968001,61.1592018 3.2968001,60.3614418 Z" id="Path" fill="#F2AFB0" fill-rule="nonzero"></path>
                                <path d="M25.6019208,9.56864029 C25.3625608,9.31136028 24.9726407,9.26352028 24.6782407,9.45600028 C21.5238406,11.5166403 17.3518405,12.8193604 13.2524804,12.5248004 C12.8366404,12.4932804 12.4780804,12.8251204 12.4780804,13.2451204 L12.4780804,19.5793606 C12.4780804,23.6504007 15.6680005,27.3688008 20.4931206,27.3688008 C24.7883207,27.3688008 28.2827208,23.8744007 28.2827208,19.5793606 L28.2827208,12.7337604 C28.2825608,12.3553604 28.2987208,12.4673604 25.6019208,9.56864029 Z" id="Path" fill="#FACCB2" fill-rule="nonzero" transform="translate(20.380401, 18.353557) scale(-1, 1) translate(-20.380401, -18.353557) "></path>
                                <path d="M15.7801605,19.5795206 L15.7801605,9.33831375 C14.9408004,9.40551376 14.1505997,10.622846 13.3174896,11.3898726 C12.9434455,11.7342469 12.4780804,12.4154209 12.4780804,13.2452804 L12.4780804,19.5796806 C12.4780804,23.6507207 15.6680005,27.3691208 20.4931206,27.3691208 C21.0196806,27.3691208 21.5339206,27.3160008 22.0315207,27.2158408 C18.4705606,26.4993608 15.7801605,23.3480007 15.7801605,19.5795206 Z" id="Path" fill="#F8BB9D" fill-rule="nonzero"></path>
                                <g id="Group" stroke-width="1" fill="none" fill-rule="evenodd" transform="translate(11.680000, 29.600001)">
                                    <path d="M14.1433604,8.39008025 L17.4563205,1.75024005 L13.2243204,0.111200003 L8.79392026,5.58000017 L13.1134404,8.64784026 C13.4630404,8.89616027 13.9518404,8.77376026 14.1433604,8.39008025 Z" id="Path" fill="#F2AFB0" fill-rule="nonzero"></path>
                                    <path d="M3.4505601,8.39008025 L0.137600004,1.75024005 L4.36960013,0.111200003 L8.80000026,5.58000017 L4.48048013,8.64784026 C4.13088012,8.89616027 3.64208011,8.77376026 3.4505601,8.39008025 Z" id="Path" fill="#F2AFB0" fill-rule="nonzero"></path>
                                    <path d="M8.61970705,6.39999912 C7.66940201,6.20730002 6.11155646,8.63250028 5.32290695,10.2594874 C4.53425744,11.8864746 4.42519911,13.8347126 4.31999965,15.2703131 C4.24986668,16.22738 4.38872942,17.2241653 4.73658788,18.260669 C5.01710085,17.8828676 5.36927055,17.4160174 5.79309699,16.8601185 C6.42883663,16.0262701 6.70222707,16.5048001 7.27954647,14.9252756 C7.85686587,13.345751 7.78326065,12.9422888 8.11596132,10.825852 C8.448662,8.7094151 9.57001209,6.59269821 8.61970705,6.39999912 Z" id="Path-6" fill="#E58D8F" fill-rule="nonzero"></path>
                                    <path d="M8.51928887,6.38918418 L8.61970705,6.39999912 C8.90493184,6.45783587 9.0035333,6.68899618 8.99284801,7.04145108 L8.61970705,6.39999912 L8.2556472,7.08184501 C7.2092698,9.06815991 6.57511161,10.5214699 6.35317264,11.441775 L6.09337127,12.6360056 C5.82718336,13.8248791 5.39503538,15.6724831 4.79692733,18.1788175 L4.73658788,18.260669 C4.38872942,17.2241653 4.24986668,16.22738 4.31999965,15.2703131 L4.36388698,14.6707088 C4.46636295,13.3208936 4.63941071,11.669543 5.32290695,10.2594874 L5.49659967,9.91260046 C6.2929146,8.3697805 7.631194,6.37472445 8.51928887,6.38918418 L8.51928887,6.38918418 Z" id="Path" fill="#E07072" fill-rule="nonzero"></path>
                                    <path d="M12.2634423,6.39999912 C11.3131373,6.20730002 9.75529171,8.63250028 8.9666422,10.2594874 C8.1779927,11.8864746 8.06893436,13.8347126 7.96373491,15.2703131 C7.89360194,16.22738 8.03246468,17.2241653 8.38032313,18.260669 C9.65073883,16.971856 10.4983917,15.8600582 10.9232817,14.9252756 C11.5606168,13.5231016 11.4269959,12.9422888 11.7596966,10.825852 C12.0923973,8.7094151 13.2137473,6.59269821 12.2634423,6.39999912 Z" id="Path-6" fill="#E58D8F" fill-rule="nonzero" transform="translate(10.291721, 12.324927) scale(-1, 1) translate(-10.291721, -12.324927) "></path>
                                    <path d="M9.01853548,6.61503225 L9.63549512,9.23722011 C9.78668879,11.1338333 10.1495983,12.4972027 10.291721,12.8833617 C10.442474,14.1509239 11.0839291,15.9302332 12.2160862,18.2212896 L12.2031188,18.260669 C10.9327031,16.971856 10.0850503,15.8600582 9.66016023,14.9252756 C9.02282518,13.5231016 9.15644605,12.9422888 8.82374538,10.825852 C8.4910447,8.7094151 7.36969461,6.59269821 8.31999965,6.39999912 C8.52845544,6.35772928 8.76614447,6.44142586 9.01853548,6.61503225 Z" id="Path" fill="#E07072" fill-rule="nonzero"></path>
                                    <path d="M6.77625729,6.16191907 C6.49534337,6.63102667 6.49534337,7.21665139 6.77625729,7.68575898 C7.05928118,8.15839008 7.56970625,8.44767894 8.12059886,8.44767894 L9.19386734,8.44767894 C9.66073457,8.44767894 10.0977423,8.21807575 10.3626169,7.83361971 C10.6247571,7.45313257 10.6660804,6.96236806 10.4712556,6.5434036 L10.3626169,6.3097798 C10.1045844,5.75488927 9.54817068,5.39999912 8.93621945,5.39999912 L8.12059886,5.39999912 C7.56970625,5.39999912 7.05928118,5.68928798 6.77625729,6.16191907 Z" id="Path-5" fill="#E58D8F" fill-rule="nonzero"></path>
                                    <path d="M8.93621945,5.39999912 C8.96742091,5.39999912 8.99847799,5.40092171 9.02935851,5.40274637 L9.12059886,5.39999912 C8.56970625,5.39999912 8.05928118,5.68928798 7.77625729,6.16191907 C7.49534337,6.63102667 7.49534337,7.21665139 7.77625729,7.68575898 C8.05928118,8.15839008 8.56970625,8.44767894 9.12059886,8.44767894 L8.12059886,8.44767894 C7.56970625,8.44767894 7.05928118,8.15839008 6.77625729,7.68575898 C6.49534337,7.21665139 6.49534337,6.63102667 6.77625729,6.16191907 C7.05928118,5.68928798 7.56970625,5.39999912 8.12059886,5.39999912 L8.12059886,5.39999912 Z" id="Combined-Shape" fill="#E07072" fill-rule="nonzero"></path>
                                </g>
                                <g id="Group" stroke-width="1" fill="none" fill-rule="evenodd" transform="translate(6.920000, 41.920001)">
                                    <path d="M1.45992043,19.8860806 L1.45992043,1.29200004 C1.45992043,0.609280018 1.23609488,0.0556800017 0.959920431,0.0556800017 C0.683745978,0.0556800017 0.459920431,0.609120018 0.459920431,1.29200004 L0.459920431,19.8860806 C0.765084143,19.8860806 1.10059598,19.8860806 1.45992043,19.8860806 Z" id="Path" fill="#F2AFB0" fill-rule="nonzero"></path>
                                    <path d="M26.4599204,19.8860806 L26.4599204,1.29200004 C26.4599204,0.609280018 26.2360949,0.0556800017 25.9599204,0.0556800017 C25.6838107,0.0556800017 25.4599204,0.609120018 25.4599204,1.29200004 L25.4599204,19.8860806 C25.818339,19.8860806 26.1534626,19.8860806 26.4599204,19.8860806 Z" id="Path" fill="#F2AFB0" fill-rule="nonzero"></path>
                                </g>
                            </g>
                        </g>
                    </g>
                </g>
            </g>
        </g>
    </g>
</svg>