<svg xmlns="http://www.w3.org/2000/svg" width="200" height="195" viewBox="0 0 200 195">
  <defs>
    <linearGradient id="icon-error-a" x1="50.218%" x2="49.832%" y1="92.709%" y2="-16.586%">
      <stop offset="0%" stop-opacity="0"/>
      <stop offset="100%" stop-opacity=".333"/>
    </linearGradient>
    <linearGradient id="icon-error-b" x1="50.552%" x2="49.389%" y1="79.221%" y2="-52.361%">
      <stop offset="0%" stop-opacity="0"/>
      <stop offset="100%" stop-opacity=".331"/>
    </linearGradient>
    <linearGradient id="icon-error-c" x1="48.316%" x2="50.434%" y1="86.709%" y2="40.553%">
      <stop offset="0%" stop-opacity="0"/>
      <stop offset="100%" stop-opacity=".385"/>
    </linearGradient>
  </defs>
  <g fill="none">
    <path fill="#BDD657" d="M60.8291139,131.164557 C73.9177215,136.917722 88.721519,136.829114 103.018987,136.639241 C110.518987,136.544304 118.278481,136.392405 125.107595,133.28481 C134.601266,128.962025 140.765823,119.683544 149.094937,113.405063 C158.658228,106.183544 170.898734,103.06962 180.170886,95.4810127 C189.305152,88.0107911 194.687694,76.8982503 194.886446,65.0999655 C195.085197,53.3016806 190.080003,42.0141501 181.202532,34.2405063 C176.297468,29.9493671 170.443038,26.9177215 164.639241,23.9367089 L135.493671,8.93670886 C128.664557,5.42405063 121.658228,1.85443038 114.037975,0.898734177 C107.607595,0.0949367089 101.101266,1.20886076 94.8164557,2.64556962 C76.9050633,6.69620253 59.1329114,13.6772152 45.9936709,26.4556962 C34.6898734,37.4683544 27.3101266,52.2594937 14.943038,62.0632911 C11.778481,64.5632911 8.2721519,66.7721519 5.96835443,70.0759494 C-2.32278481,81.9810127 6.07594937,97.1898734 16.8481013,103.291139 C31.7658228,111.734177 45.1898734,124.297468 60.8291139,131.164557 Z" opacity=".18"/>
    <ellipse cx="99.797" cy="181.715" fill="#8A9F33" rx="99.797" ry="12.329"/>
    <path fill="#FFE5CC" d="M45.1265823,61.2658228 C41.3866805,58.7295976 36.7789946,57.8162802 32.3544304,58.7341772 C31.5528425,58.8590386 30.7954776,59.1833127 30.1518987,59.6772152 C28.6518987,60.943038 28.8860759,63.2974684 28.4873418,65.2341772 C28,67.6202532 26.3987342,69.664557 25.8227848,72.0189873 C25.4873707,73.7906522 25.4680861,75.6076913 25.7658228,77.3860759 C26.6091137,84.4011363 28.2898683,91.2898929 30.7721519,97.9050633 L23.8101266,189.620253 C23.8101266,189.620253 30.9303797,190.772152 45.3734177,191.924051 L46.9050633,104.582278 L45.1265823,61.2658228 Z"/>
    <polygon fill="url(#icon-error-a)" points="37.209 114.753 46.43 152.044 46.43 98.259 42.329 86.07"/>
    <path fill="#FFE5CC" d="M157.797468,62.0506329 C161.545337,59.533302 166.151879,58.6384733 170.56962,59.5696203 C171.372312,59.6973377 172.131053,60.0212697 172.778481,60.5126582 C174.272152,61.778481 174.044304,64.1329114 174.436709,66.0759494 C174.93038,68.4620253 176.531646,70.5063291 177.107595,72.8607595 C177.444057,74.6303583 177.461205,76.4458806 177.158228,78.221519 C176.320832,85.2370131 174.642093,92.1262186 172.158228,98.7405063 L179.088608,189.177215 C179.088608,189.177215 171.335443,190.481013 157.481013,191.791139 L155.993671,105.411392 L157.797468,62.0506329 Z"/>
    <polygon fill="url(#icon-error-b)" points="166.899 112.089 163.627 128.892 156.658 144.051 156.044 111.063"/>
    <rect width="133.994" height="84.411" x="33.316" y="31.266" fill="#BDD657" rx="5.297"/>
    <rect width="133.994" height="84.411" x="33.316" y="31.266" fill="url(#icon-error-c)" rx="5.297"/>
    <rect width="133.994" height="84.411" x="33.544" y="27.848" fill="#ACCC2D" rx="5.297"/>
    <path fill="#FFF" d="M62.9938517,85.443038 L62.9938517,80.6632911 L52.2596745,80.6632911 L52.2596745,72.8860759 L61.9811935,72.8860759 L61.9811935,68.1063291 L52.2596745,68.1063291 L52.2596745,61.3012658 L62.5887884,61.3012658 L62.5887884,56.521519 L46.4267631,56.521519 L46.4267631,85.443038 L62.9938517,85.443038 Z M72.3218807,85.443038 L72.3218807,73.2101266 L75.440868,73.2101266 C76.6560579,73.2101266 77.5201929,73.5341772 78.0332731,74.1822785 C78.5463532,74.8303797 78.8298975,75.721519 78.883906,76.8556962 L79.0459313,82.4050633 C79.0729355,82.9721519 79.1269439,83.5189873 79.2079566,84.0455696 C79.2889693,84.5721519 79.4779988,85.0379747 79.7750452,85.443038 L86.0940325,85.443038 L86.0940325,85.2 C85.5539482,84.9029536 85.2028933,84.3493671 85.040868,83.5392405 C84.9328511,82.7291139 84.8518385,81.5544304 84.79783,80.0151899 C84.7708258,79.2320675 84.7438216,78.5232068 84.7168174,77.8886076 C84.6898131,77.2540084 84.6493068,76.6666667 84.5952984,76.1265823 C84.4332731,74.5063291 84.0147077,73.3316456 83.3396022,72.6025316 C82.6644967,71.8734177 81.59783,71.4008439 80.1396022,71.1848101 L80.1396022,71.1037975 C81.7868596,70.7527426 83.0020494,69.9628692 83.7851718,68.7341772 C84.5682942,67.5054852 84.9598553,65.9189873 84.9598553,63.9746835 C84.9598553,61.4632911 84.2847498,59.5932489 82.9345389,58.364557 C81.5843279,57.135865 79.6940325,56.521519 77.2636528,56.521519 L66.4889693,56.521519 L66.4889693,85.443038 L72.3218807,85.443038 Z M74.7522604,69.1594937 L72.3218807,69.1594937 L72.3218807,60.8151899 L75.076311,60.8151899 C77.776733,60.8151899 79.1269439,62.1518987 79.1269439,64.8253165 C79.1269439,66.3915612 78.7488849,67.5054852 77.9927667,68.1670886 C77.2366486,68.828692 76.1564798,69.1594937 74.7522604,69.1594937 Z M95.4220615,85.443038 L95.4220615,73.2101266 L98.5410488,73.2101266 C99.7562387,73.2101266 100.620374,73.5341772 101.133454,74.1822785 C101.646534,74.8303797 101.930078,75.721519 101.984087,76.8556962 L102.146112,82.4050633 C102.173116,82.9721519 102.227125,83.5189873 102.308137,84.0455696 C102.38915,84.5721519 102.57818,85.0379747 102.875226,85.443038 L109.194213,85.443038 L109.194213,85.2 C108.654129,84.9029536 108.303074,84.3493671 108.141049,83.5392405 C108.033032,82.7291139 107.952019,81.5544304 107.898011,80.0151899 C107.871007,79.2320675 107.844002,78.5232068 107.816998,77.8886076 C107.789994,77.2540084 107.749488,76.6666667 107.695479,76.1265823 C107.533454,74.5063291 107.114888,73.3316456 106.439783,72.6025316 C105.764678,71.8734177 104.698011,71.4008439 103.239783,71.1848101 L103.239783,71.1037975 C104.88704,70.7527426 106.10223,69.9628692 106.885353,68.7341772 C107.668475,67.5054852 108.060036,65.9189873 108.060036,63.9746835 C108.060036,61.4632911 107.384931,59.5932489 106.03472,58.364557 C104.684509,57.135865 102.794213,56.521519 100.363834,56.521519 L89.5891501,56.521519 L89.5891501,85.443038 L95.4220615,85.443038 Z M97.8524412,69.1594937 L95.4220615,69.1594937 L95.4220615,60.8151899 L98.1764919,60.8151899 C100.876914,60.8151899 102.227125,62.1518987 102.227125,64.8253165 C102.227125,66.3915612 101.849066,67.5054852 101.092948,68.1670886 C100.336829,68.828692 99.2566606,69.1594937 97.8524412,69.1594937 Z M121.924774,85.8886076 C124.112116,85.8886076 125.853888,85.5375527 127.15009,84.835443 C128.446293,84.1333333 129.438698,83.1206751 130.127306,81.7974684 C130.815913,80.4742616 131.261483,78.8945148 131.464014,77.0582278 C131.666546,75.2219409 131.767812,73.1966245 131.767812,70.9822785 C131.767812,68.7949367 131.666546,66.7763713 131.464014,64.9265823 C131.261483,63.0767932 130.815913,61.4902954 130.127306,60.1670886 C129.438698,58.8438819 128.446293,57.8109705 127.15009,57.0683544 C125.853888,56.3257384 124.112116,55.9544304 121.924774,55.9544304 C119.737432,55.9544304 117.99566,56.3257384 116.699458,57.0683544 C115.403255,57.8109705 114.41085,58.8438819 113.722242,60.1670886 C113.033635,61.4902954 112.588065,63.0767932 112.385533,64.9265823 C112.183002,66.7763713 112.081736,68.7949367 112.081736,70.9822785 C112.081736,73.1966245 112.183002,75.2219409 112.385533,77.0582278 C112.588065,78.8945148 113.033635,80.4742616 113.722242,81.7974684 C114.41085,83.1206751 115.403255,84.1333333 116.699458,84.835443 C117.99566,85.5375527 119.737432,85.8886076 121.924774,85.8886076 Z M121.924774,81.7164557 C121.060639,81.7164557 120.36528,81.5206751 119.838698,81.1291139 C119.312116,80.7375527 118.907052,80.1164557 118.623508,79.2658228 C118.339964,78.4151899 118.150934,77.3080169 118.05642,75.9443038 C117.961905,74.5805907 117.914647,72.9265823 117.914647,70.9822785 C117.914647,69.0379747 117.961905,67.3907173 118.05642,66.0405063 C118.150934,64.6902954 118.339964,63.5831224 118.623508,62.7189873 C118.907052,61.8548523 119.312116,61.2270042 119.838698,60.835443 C120.36528,60.4438819 121.060639,60.2481013 121.924774,60.2481013 C122.788909,60.2481013 123.484268,60.4438819 124.01085,60.835443 C124.537432,61.2270042 124.942495,61.8548523 125.22604,62.7189873 C125.509584,63.5831224 125.698614,64.6902954 125.793128,66.0405063 C125.887643,67.3907173 125.934901,69.0379747 125.934901,70.9822785 C125.934901,72.9265823 125.887643,74.5805907 125.793128,75.9443038 C125.698614,77.3080169 125.509584,78.4151899 125.22604,79.2658228 C124.942495,80.1164557 124.537432,80.7375527 124.01085,81.1291139 C123.484268,81.5206751 122.788909,81.7164557 121.924774,81.7164557 Z M141.622423,85.443038 L141.622423,73.2101266 L144.74141,73.2101266 C145.9566,73.2101266 146.820735,73.5341772 147.333816,74.1822785 C147.846896,74.8303797 148.13044,75.721519 148.184448,76.8556962 L148.346474,82.4050633 C148.373478,82.9721519 148.427486,83.5189873 148.508499,84.0455696 C148.589512,84.5721519 148.778541,85.0379747 149.075588,85.443038 L155.394575,85.443038 L155.394575,85.2 C154.854491,84.9029536 154.503436,84.3493671 154.34141,83.5392405 C154.233394,82.7291139 154.152381,81.5544304 154.098373,80.0151899 C154.071368,79.2320675 154.044364,78.5232068 154.01736,77.8886076 C153.990356,77.2540084 153.949849,76.6666667 153.895841,76.1265823 C153.733816,74.5063291 153.31525,73.3316456 152.640145,72.6025316 C151.965039,71.8734177 150.898373,71.4008439 149.440145,71.1848101 L149.440145,71.1037975 C151.087402,70.7527426 152.302592,69.9628692 153.085714,68.7341772 C153.868837,67.5054852 154.260398,65.9189873 154.260398,63.9746835 C154.260398,61.4632911 153.585292,59.5932489 152.235081,58.364557 C150.88487,57.135865 148.994575,56.521519 146.564195,56.521519 L135.789512,56.521519 L135.789512,85.443038 L141.622423,85.443038 Z M144.052803,69.1594937 L141.622423,69.1594937 L141.622423,60.8151899 L144.376854,60.8151899 C147.077275,60.8151899 148.427486,62.1518987 148.427486,64.8253165 C148.427486,66.3915612 148.049427,67.5054852 147.293309,68.1670886 C146.537191,68.828692 145.457022,69.1594937 144.052803,69.1594937 Z"/>
    <path fill="#FFE5CC" d="M38.9936709 60.1582278C39.5367389 60.428608 39.99939 60.8367013 40.335443 61.3417722 40.6135211 61.9352916 40.7500154 62.5852644 40.7341772 63.2405063L40.9240506 67.3227848C41.0099647 67.9944133 40.9295486 68.6768637 40.6898734 69.3101266 40.42626 69.9550069 39.7379694 70.3178268 39.056962 70.1708861 39.5466827 71.7765631 39.356818 73.5127959 38.5316456 74.9746835 38.3269881 75.2793881 38.16713 75.6118931 38.056962 75.9620253 38.00438 76.3844397 38.0257973 76.8127856 38.1202532 77.2278481 38.4105956 79.2993574 37.7948742 81.3955776 36.4303797 82.9810127 36.2241798 83.2377823 35.9706573 83.4526318 35.6835443 83.6139241 35.3070251 83.77447 34.9029356 83.8604465 34.4936709 83.8670886L32.6329114 84.0253165C32.4464715 84.0865007 32.2421972 84.0577493 32.0798893 83.9474791 31.9175815 83.8372089 31.8155992 83.6578928 31.8037975 83.4620253 30.3909495 78.9803639 29.7489229 74.29143 29.9050633 69.5949367 29.9782485 67.2284182 30.2620703 64.873121 30.7531646 62.556962 31.0506329 61.2025316 31.6329114 59.1392405 33.0822785 58.5886076 34.9556962 57.9303797 37.3734177 59.2278481 38.9936709 60.1582278zM161.221519 60.1582278C160.678451 60.428608 160.2158 60.8367013 159.879747 61.3417722 159.601669 61.9352916 159.465174 62.5852644 159.481013 63.2405063L159.291139 67.3227848C159.205225 67.9944133 159.285641 68.6768637 159.525316 69.3101266 159.78893 69.9550069 160.47722 70.3178268 161.158228 70.1708861 160.669593 71.7759911 160.857036 73.5109787 161.677215 74.9746835 161.886324 75.2777167 162.048489 75.610581 162.158228 75.9620253 162.211702 76.3847066 162.188114 76.8135807 162.088608 77.2278481 161.804172 79.2999761 162.421735 81.3946192 163.78481 82.9810127 163.99101 83.2377823 164.244533 83.4526318 164.531646 83.6139241 164.908165 83.77447 165.312254 83.8604465 165.721519 83.8670886L167.601266 84.0506329C167.787706 84.1118172 167.99198 84.0830657 168.154288 83.9727955 168.316596 83.8625253 168.418578 83.6832093 168.43038 83.4873418 169.843228 79.0056803 170.485254 74.3167464 170.329114 69.6202532 170.256869 67.2533149 169.970896 64.8977459 169.474684 62.5822785 169.183544 61.2278481 168.841772 59.5316456 167.405063 58.9810127 165.512658 58.2911392 162.841772 59.2278481 161.221519 60.1582278z"/>
  </g>
</svg>
