<svg xmlns="http://www.w3.org/2000/svg" width="147" height="140" viewBox="0 0 147 140">
  <defs>
    <linearGradient id="icon-chat-a" x1="47.108%" x2="50.216%" y1="185.393%" y2="39.859%">
      <stop offset="1%"/>
      <stop offset="100%" stop-opacity="0"/>
    </linearGradient>
    <linearGradient id="icon-chat-b" x1="50.382%" x2="49.725%" y1="162.477%" y2="-31.232%">
      <stop offset="2%" stop-color="#FFF" stop-opacity="0"/>
      <stop offset="58%" stop-color="#FFF" stop-opacity=".39"/>
      <stop offset="68%" stop-color="#FFF" stop-opacity=".68"/>
      <stop offset="100%" stop-color="#FFF"/>
    </linearGradient>
    <linearGradient id="icon-chat-c" x1="49.852%" x2="51.41%" y1="41.167%" y2="143.812%">
      <stop offset="0%" stop-opacity="0"/>
      <stop offset="99%"/>
    </linearGradient>
    <linearGradient id="icon-chat-d" x1="51.478%" x2="32.654%" y1="108.827%" y2="-59.671%">
      <stop offset="0%" stop-opacity="0"/>
      <stop offset="99%"/>
    </linearGradient>
    <linearGradient id="icon-chat-e" x1=".004%" x2="100.003%" y1="50.017%" y2="50.017%">
      <stop offset="0%" stop-color="#ECC4D7"/>
      <stop offset="42%" stop-color="#EFD4D1"/>
      <stop offset="100%" stop-color="#F2EAC9"/>
    </linearGradient>
    <linearGradient id="icon-chat-f" x1="348.886%" x2="390.399%" y1="805.008%" y2="842.163%">
      <stop offset="0%" stop-color="#ECC4D7"/>
      <stop offset="42%" stop-color="#EFD4D1"/>
      <stop offset="100%" stop-color="#F2EAC9"/>
    </linearGradient>
    <linearGradient id="icon-chat-g" x1="50%" x2="-174.257%" y1="360.402%" y2="236.845%">
      <stop offset="0%" stop-opacity="0"/>
      <stop offset="100%"/>
    </linearGradient>
    <linearGradient id="icon-chat-h" x1="219.117%" x2="319.108%" y1="372.212%" y2="372.212%">
      <stop offset="0%" stop-color="#ECC4D7"/>
      <stop offset="42%" stop-color="#EFD4D1"/>
      <stop offset="100%" stop-color="#F2EAC9"/>
    </linearGradient>
    <linearGradient id="icon-chat-i" x1="894.992%" x2="995.211%" y1="407.763%" y2="407.763%">
      <stop offset="0%" stop-color="#ECC4D7"/>
      <stop offset="42%" stop-color="#EFD4D1"/>
      <stop offset="100%" stop-color="#F2EAC9"/>
    </linearGradient>
    <linearGradient id="icon-chat-j" x1="277.04%" x2="377.034%" y1="290.055%" y2="290.055%">
      <stop offset="0%" stop-color="#ECC4D7"/>
      <stop offset="42%" stop-color="#EFD4D1"/>
      <stop offset="100%" stop-color="#F2EAC9"/>
    </linearGradient>
    <linearGradient id="icon-chat-k" x1="359.517%" x2="459.493%" y1="359.031%" y2="359.031%">
      <stop offset="0%" stop-color="#ECC4D7"/>
      <stop offset="42%" stop-color="#EFD4D1"/>
      <stop offset="100%" stop-color="#F2EAC9"/>
    </linearGradient>
    <linearGradient id="icon-chat-l" x1="90.81%" x2="21.225%" y1="29.809%" y2="55.723%">
      <stop offset="0%" stop-color="#68E1FD"/>
      <stop offset="20%" stop-color="#5DB4CF"/>
      <stop offset="46%" stop-color="#50819B"/>
      <stop offset="69%" stop-color="#475C76"/>
      <stop offset="87%" stop-color="#41455E"/>
      <stop offset="99%" stop-color="#3F3D56"/>
    </linearGradient>
    <linearGradient id="icon-chat-m" x1="56.133%" x2="13.475%" y1="43.864%" y2="98.463%">
      <stop offset="0%" stop-opacity="0"/>
      <stop offset="99%"/>
    </linearGradient>
    <linearGradient id="icon-chat-n" x1="37.888%" x2="222.4%" y1="42.715%" y2="164.048%">
      <stop offset="0%" stop-opacity="0"/>
      <stop offset="99%"/>
    </linearGradient>
    <linearGradient id="icon-chat-o" x1="298.956%" x2="77.306%" y1="818.312%" y2="947.505%">
      <stop offset="0%" stop-color="#ECC4D7"/>
      <stop offset="42%" stop-color="#EFD4D1"/>
      <stop offset="100%" stop-color="#F2EAC9"/>
    </linearGradient>
  </defs>
  <g fill="none">
    <path fill="#BDD657" d="M33.1211829,17.8038359 C25.3737062,20.9047466 17.0934105,23.0408229 10.2699668,27.8409943 C3.44652309,32.6411658 -1.7136612,41.1398693 0.535219115,49.1729562 C2.28008143,55.3939784 8.09788921,60.2589521 8.36189864,66.7223829 C8.57310618,71.875367 5.16498446,76.3755277 3.35531983,81.2045002 C-0.300010715,90.9608486 2.86090218,102.325254 9.32913318,110.485546 C15.7973642,118.645837 25.1216972,124.074831 34.6740384,128.23178 C57.3116622,138.052155 82.1220065,141.788433 106.647809,139.070567 C113.95847,138.249737 121.333933,136.809686 127.814165,133.329562 C134.294396,129.849437 139.836194,124.082032 141.648259,116.953777 C144.113147,107.269431 139.502582,96.8170578 142.022672,87.1471124 C143.009107,83.354977 145.05398,79.8916533 145.925212,76.0707168 C148.020486,66.8615879 142.915504,57.455652 136.420872,50.6010072 C129.92624,43.7463624 121.909954,38.3797707 115.972142,31.0355084 C111.858395,25.9497268 108.843887,20.0335155 104.614936,15.0437373 C96.3058395,5.22498661 82.8869602,-0.568820315 70.0129005,0.0456016286 C57.2228437,0.652823315 45.1816136,12.9724633 33.1211829,17.8038359 Z" opacity=".18"/>
    <rect width="89.708" height="120.422" x="28.35" y="9.01" fill="#BDD657" rx="8.405"/>
    <rect width="89.708" height="120.422" x="28.35" y="9.01" fill="url(#icon-chat-a)" rx="8.405"/>
    <path fill="#000" fill-opacity=".14" d="M74.0546448,90.9752491 L27.3057752,90.6799389 C23.6150823,90.6600996 20.6066849,93.6351897 20.5855352,97.3258759 L20.5421931,104.214122 C20.5308388,105.988176 21.2245743,107.694133 22.4709186,108.956681 C23.7172628,110.219229 25.414116,110.934942 27.188171,110.946362 L27.188171,110.946362 L71.5225544,111.222372 C74.4473546,111.245208 77.2503811,112.396513 79.3468338,114.436087 L80.5876781,115.63613 L80.6572806,104.595736 L80.6740812,101.955641 L80.7005818,97.7026894 C80.7204211,94.0119965 77.745331,91.0035991 74.0546448,90.9824494 L74.0546448,90.9752491 Z"/>
    <path fill="#BDD657" d="M112.084003,22.8584164 L112.084003,118.108218 C112.081355,122.22687 108.743189,125.565037 104.624537,125.567685 L42.2871103,125.567685 C40.3093733,125.567685 38.4126393,124.782032 37.0141681,123.38356 C35.6156969,121.985089 34.8300435,120.088355 34.8300435,118.110618 L34.8300435,118.110618 L34.8300435,22.8584164 C34.8300435,20.8806794 35.6144497,18.9836925 37.0124709,17.5847711 C38.410492,16.1858498 40.3069732,15.3989484 42.2847102,15.3989484 L104.617336,15.3989484 C106.596762,15.3976765 108.495587,16.1829435 109.895927,17.5819339 C111.296268,18.9809242 112.084003,20.8789903 112.084003,22.8584164 Z"/>
    <path fill="url(#icon-chat-b)" d="M112.084003,22.8584164 L112.084003,118.108218 C112.081355,122.22687 108.743189,125.565037 104.624537,125.567685 L42.2871103,125.567685 C40.3093733,125.567685 38.4126393,124.782032 37.0141681,123.38356 C35.6156969,121.985089 34.8300435,120.088355 34.8300435,118.110618 L34.8300435,118.110618 L34.8300435,22.8584164 C34.8300435,20.8806794 35.6144497,18.9836925 37.0124709,17.5847711 C38.410492,16.1858498 40.3069732,15.3989484 42.2847102,15.3989484 L104.617336,15.3989484 C106.596762,15.3976765 108.495587,16.1829435 109.895927,17.5819339 C111.296268,18.9809242 112.084003,20.8789903 112.084003,22.8584164 Z" opacity=".69"/>
    <path fill="url(#icon-chat-c)" d="M73.5794278,26.712954 C73.7978356,25.7529197 74.0162434,24.7928855 73.9298404,23.8136505 C73.1806216,24.5829416 72.1570598,25.0239535 71.0833387,25.0400943 C70.9559348,25.0255034 70.8270959,25.0497653 70.7137255,25.1096968 C70.5653366,25.2494376 70.4945481,25.4528423 70.5241187,25.6545162 C70.5241187,26.8329583 70.504918,28.0762027 69.9024965,29.0866388 C69.300075,30.0970749 68.263238,30.6706954 67.1807993,31.0067074 C64.7807136,31.7699346 62.1910211,31.4363227 59.7069324,31.052309 C59.1381121,30.9635058 58.5428908,30.8627022 58.0916747,30.5074896 C57.4796528,30.0274724 57.2708454,29.1730419 57.3524483,28.4002143 C57.4340512,27.6273867 57.765263,26.9049609 58.072474,26.1849352 C58.5524912,25.0448945 58.9437051,23.828051 58.8165006,22.6016072 C58.689296,21.3751634 57.9092682,20.1439194 56.7140255,19.8415086 C56.2037047,19.686037 55.6492571,19.8069248 55.2499732,20.16072 C55.0619732,20.3705702 54.9168425,20.6151724 54.822758,20.8807457 C53.8047176,23.3860914 53.1453912,26.0225891 52.864288,28.7122254 C51.4770385,28.5826208 50.1545912,29.288246 48.7841423,29.4802529 C47.9033108,29.6050573 35.727676,29.6674596 34.8420444,29.6074574 C34.8420444,29.6074574 34.7172399,31.0067074 35.0460516,31.4579235 C35.3748634,31.9091396 37.1605272,31.9163399 37.6861459,32.115547 C41.4278796,33.5555984 45.5440266,33.4619951 49.532969,33.8268081 C56.3444123,34.4484303 64.5311047,36.6277081 70.5457195,32.2307511 C72.4153863,30.8627022 73.08021,28.9066324 73.5794278,26.712954 Z" opacity=".6"/>
    <path fill="url(#icon-chat-d)" d="M82.9781635,58.9437051 C83.0957677,56.6564234 82.4141434,54.3979428 81.4925104,52.3002679 C80.5708775,50.2025929 79.4116361,48.2201221 78.4948034,46.1200471 C78.2547948,45.5896282 78.091589,44.8648023 78.5572056,44.5215901 C78.7012108,44.8816029 79.2604307,44.7783992 79.5388407,44.5071895 C79.8172506,44.2359799 80.0188578,43.847166 80.4052716,43.7583628 C80.9570526,44.6499424 81.43006,45.5879264 81.8189221,46.5616629 L84.5454195,52.8018858 C84.8358299,53.4691096 85.1406407,54.1579342 85.6902604,54.6331512 C86.5422908,55.3675774 87.7951355,55.4371799 88.8871745,55.410779 C89.6114727,55.3910481 90.333389,55.3188564 91.0472517,55.1947712 C91.8464802,55.0555663 92.7513125,54.825158 93.2217293,54.1435337 C93.9417551,53.087496 93.2553305,51.5874424 93.7017465,50.3849995 C93.9121676,49.8857858 94.251836,49.451673 94.6857816,49.1273545 C95.2402014,48.6785385 96.0034287,48.328126 96.6514518,48.6281367 C96.9730815,48.8082619 97.2432624,49.0677016 97.4362799,49.3817636 C99.1163399,51.7242473 100.054773,54.5947498 102.087646,56.6324226 C103.256256,56.6200483 104.377242,56.1675403 105.226958,55.3651773 C106.047787,54.5851495 106.66701,53.620315 107.307832,52.6914818 C108.411872,51.0978249 109.619115,49.5713704 110.826358,48.0641166 L112.127205,46.4296582 C112.163267,46.3752891 112.215235,46.3333792 112.27601,46.3096539 C112.424815,46.2712525 112.516018,46.4608593 112.55922,46.6120647 C113.039237,48.8177435 111.584785,50.95862 110.024729,52.5858781 C108.824687,53.8411229 107.449437,55.0531662 106.604607,56.5388192 C106.463785,56.7860124 106.427157,57.0790952 106.502811,57.3533428 C106.578466,57.6275904 106.760179,57.860441 107.007822,58.0004714 C107.14201,58.0766902 107.290945,58.1233346 107.444637,58.1372763 C110.291139,58.3772849 113.204843,57.8180649 116.070545,58.1660774 C116.936976,58.2716811 117.952213,58.5956927 118.093818,59.5101254 C118.148367,59.9797119 117.968962,60.4461648 117.6138,60.7581699 C117.004179,61.3389907 116.173749,61.4541948 115.36732,61.5525983 C106.287796,62.6686382 97.1266688,62.9926497 87.9871424,63.2926605 C87.6270855,63.3254411 87.2640708,63.2953929 86.9143041,63.2038573 C86.155877,62.9638487 85.7142612,62.1862209 85.2846459,61.5237973 C84.6440636,60.5571933 83.8672147,59.6881895 82.9781635,58.9437051 L82.9781635,58.9437051 Z" opacity=".393"/>
    <path fill="#000" fill-opacity=".14" d="M129.568738 65.6207436L129.568738 71.707361C129.577565 73.2668973 128.966599 74.7661066 127.870142 75.8751669 126.773684 76.9842272 125.281555 77.612286 123.722019 77.6211722L84.9318333 77.6211722C82.36469 77.6124897 79.8965963 78.6112748 78.0579878 80.4028715L76.9683291 81.4565092 76.9683291 65.6159434C76.9617425 63.0523078 78.6102598 60.777354 81.0484946 59.9853423 81.6232085 59.8005259 82.2232586 59.7065909 82.8269581 59.7069315L123.724419 59.7069315C125.283737 59.7158172 126.775621 60.3439531 127.871698 61.4530832 128.967774 62.5622133 129.578204 64.0614293 129.568738 65.6207436L129.568738 65.6207436zM66.1967642 36.8533162L67.2048002 52.2810672 66.1967642 52.2810672 65.1263259 51.2514304C63.307061 49.5065681 60.537362 48.8825458 58.0196721 48.8825458L19.8871103 48.8825458C16.7058365 48.8825458 14.1269045 46.3036139 14.1269045 43.1223401L14.4845173 36.8533162C14.4845173 33.6720424 17.0634492 31.0930959 20.244723 31.0930959L60.4461588 31.0930959C62.3489026 31.0888307 64.1299397 32.028348 65.2007286 33.6012L65.2007286 33.6012C65.8560943 34.558551 66.2035923 35.6931531 66.1967642 36.8533162z"/>
    <path fill="#FFF" d="M67.2024315 36.8533162L67.2024315 52.2810672 66.1295618 51.2514304C64.3141958 49.5064048 61.8937889 48.5318771 59.3757206 48.5321333L21.2311583 48.5321333C18.0498845 48.5321333 15.4709525 45.9532013 15.4709525 42.7719276L15.4709525 36.8533162C15.4709525 33.6720424 18.0498845 31.0931011 21.2311583 31.0931011L61.4421944 31.0931011C63.3447301 31.0896748 65.1253961 32.0289964 66.1967642 33.6012L66.1967642 33.6012C66.8553905 34.5575081 67.2062513 35.6921535 67.2024315 36.8533162zM129.568627 65.1263259L129.568627 71.0425372C129.568627 74.223811 126.989696 76.802743 123.808422 76.802743L85.6830601 76.802743C83.1644034 76.8031145 80.7434735 77.7775065 78.9268188 79.5220401L77.8467802 80.5444766 77.8467802 65.1263259C77.8467802 61.9544016 80.4110883 59.3793366 83.5829851 59.3661202L123.815622 59.3661202C126.994084 59.3700933 129.568627 61.9478619 129.568627 65.1263259L129.568627 65.1263259z"/>
    <path fill="#3F3D56" d="M87.3895211,58.1948784 C87.1495125,57.7148612 86.7654988,57.3500482 86.5302904,56.8844316 C86.0262724,55.8907961 86.3214829,54.657152 86.9167042,53.7163184 C87.1567127,53.3251045 87.4687239,52.948291 87.5575271,52.4946748 C87.6607307,51.9618558 87.4543234,51.381035 87.6775313,50.8866174 C87.8599379,50.4882032 88.2727526,50.2577949 88.6375656,50.0033858 C89.1919854,49.6073717 89.6720026,49.0889532 90.2984249,48.8249437 C90.9248473,48.5609343 91.7936783,48.6569377 92.1008893,49.2665595 C92.67931,48.9809493 93.4113361,49.2401586 93.8433515,49.7153755 C94.275367,50.1905925 94.4673738,50.8386157 94.5993785,51.4674381 C94.7123623,52.1888977 94.877603,52.9011974 95.0937962,53.5987142 C95.3482053,54.2827387 95.7946212,54.9331619 96.4546448,55.242773 C97.7362906,55.8427944 99.5219544,55.0651666 100.534791,56.0636023 C101.053209,56.5796207 101.238016,57.4916533 101.941241,57.6884603 C102.303654,57.7892639 102.697268,57.6572592 103.057281,57.7532626 C103.678903,57.9212686 103.935712,58.6724954 103.950113,59.3157184 C103.971279,60.5905457 103.460836,61.8166534 102.541262,62.6998393 C102.094846,63.1246545 101.523626,63.5206686 101.432423,64.1398907 C101.422765,64.4535816 101.446905,64.7674007 101.504425,65.0759241 C101.574378,65.9233839 101.14062,66.7330376 100.396336,67.1442839 C99.6520528,67.5555303 98.7357397,67.4918451 98.055502,66.9815922 C97.5466838,66.6023787 97.1170685,65.9663559 96.4834458,65.995157 C96.2063659,66.0339667 95.9428278,66.1393819 95.7154184,66.3023679 C95.2169985,66.6429802 94.665478,66.8984639 94.0833601,67.0583949 C93.4897175,67.2148221 92.8571109,67.0694572 92.3912997,66.6695811 C92.0312868,66.3167685 91.896882,65.8031501 91.7216758,65.3279331 C91.4384657,64.5599057 90.9224472,63.7702775 90.1184185,63.616672 C89.7728062,63.5518697 89.4151934,63.616672 89.0695811,63.55907 C86.7270974,63.1822565 88.1023465,59.6325297 87.3895211,58.1948784 Z"/>
    <path fill="url(#icon-chat-e)" d="M106.148591,50.1281903 C106.731612,49.1991929 107.17174,48.1878683 107.454238,47.1280831 C107.57728,46.6836955 107.780639,46.2655886 108.054259,45.8944391 C108.109694,45.8178901 108.209634,45.7881214 108.29792,45.8218611 C108.386205,45.8556009 108.440819,45.944435 108.431073,46.0384442 L108.335069,46.9984785 C108.815086,46.4416586 109.383907,45.4216222 110.187935,44.5743919 C110.23378,44.528937 110.307696,44.528937 110.353541,44.5743919 C110.384619,44.6070039 110.394814,44.6542737 110.379942,44.6967963 L109.731919,46.3216543 C109.72669,46.338204 109.728318,46.3561596 109.736439,46.3714988 C109.744559,46.3868379 109.758494,46.3982784 109.775121,46.4032573 L109.775121,46.4032573 C109.799349,46.4105208 109.825589,46.4030236 109.842323,46.3840566 L110.802357,45.0904104 C111.323176,44.715997 111.263174,45.2656166 111.215172,45.3952213 L110.58875,46.5952641 C110.573945,46.6292539 110.584699,46.6689654 110.614632,46.6908397 C110.644566,46.712714 110.685667,46.7108973 110.713554,46.6864674 C110.98703,46.4178069 111.278084,46.1676452 111.584785,45.9376406 C111.662337,45.8855495 111.765517,45.893561 111.834098,45.9569988 C111.90268,46.0204367 111.918695,46.1226805 111.872795,46.2040501 L110.912761,47.5456981 C110.797557,47.7065038 110.699154,47.8001071 110.895961,47.7857066 L111.587185,47.5312975 C111.793593,47.4496946 111.695189,47.9225115 111.515183,48.0497161 C110.509547,48.7697418 110.101532,49.3313618 109.405507,49.9289832 C108.709482,50.5266045 104.242923,57.8924676 102.20525,60.5037608 C101.463624,61.4517947 100.045173,62.0830173 99.4715526,60.5565627 C99.0419372,59.3997214 100.359584,58.3172828 100.993207,57.4796528 C102.810872,55.1067681 104.529333,52.6562806 106.148591,50.1281903 Z"/>
    <path fill="#FFF" d="M75.0218794,90.9752491 L28.2730098,90.6799389 C24.5823168,90.6600996 21.5739195,93.6351897 21.5527697,97.3258759 L21.5094276,104.214122 C21.4980734,105.988176 22.1918089,107.694133 23.4381531,108.956681 C24.6844973,110.219229 26.3813506,110.934942 28.1554056,110.946362 L28.1554056,110.946362 L72.4825887,111.222372 C75.4115491,111.24212 78.2194274,112.393651 80.3188685,114.436087 L81.5597128,115.63613 L81.6293153,104.595736 L81.6461159,101.955641 L81.6726165,97.7026894 C81.6924558,94.0119965 78.7173657,91.0035991 75.0266795,90.9824494 L75.0218794,90.9752491 Z"/>
    <path fill="#000" fill-opacity=".187" d="M66.7919854,12.1852352 L82.013329,12.1852352 C82.4109883,12.1852352 82.7333548,12.5076017 82.7333548,12.9052609 L82.7333548,12.9052609 C82.7333548,13.3029201 82.4109883,13.6252866 82.013329,13.6252866 L66.7919854,13.6252866 C66.3943262,13.6252866 66.0719597,13.3029201 66.0719597,12.9052609 L66.0719597,12.9052609 C66.0719597,12.5076017 66.3943262,12.1852352 66.7919854,12.1852352 L66.7919854,12.1852352 Z"/>
    <path fill="#BDD657" d="M66.6815815,37.2325297 C65.4143362,37.7797493 65.1911283,37.6933462 63.8350798,37.9309547 C62.4790314,38.1685632 61.4181935,37.995757 60.1269474,37.5133398 C59.2413158,40.2158363 58.3004822,43.1679417 58.0604736,46.0000429 C57.9814696,46.8524317 57.8443456,47.6984301 57.6500589,48.5321333 L49.4897675,48.5321333 C49.4657666,48.3497268 49.4441659,48.1625201 49.4249652,47.9681131 C49.2096966,45.3605833 49.2394278,42.7386115 49.5137683,40.1366335 C49.535817,39.9774584 49.5494364,39.8172292 49.5545698,39.6566163 C49.5606169,39.5255296 49.5509478,39.3941902 49.5257688,39.2654023 C49.4558006,38.9884314 49.3406528,38.7248889 49.1849566,38.4853745 C48.860945,37.9165542 48.0785171,37.045323 47.6441016,36.4141005 C47.5864995,36.3276974 47.5336976,36.2460945 47.4904961,36.1740919 C47.7521054,34.9740491 48.9065467,34.3860281 49.4441659,33.2939891 C49.8427601,32.4588033 50.4089154,31.7145502 51.1074253,31.107511 C51.3325925,30.9178218 51.5734671,30.7476038 51.827451,30.5986928 C52.7490839,30.0634737 53.8123219,29.8498661 54.8731598,29.6890603 C55.0387657,29.6626594 55.2019715,29.6386585 55.3675774,29.6170578 C56.0476274,30.1136493 56.8572192,30.4021341 57.6980606,30.4474874 C57.9629802,30.4417642 58.2275419,30.4699949 58.4852888,30.5314904 C58.7035564,30.6147224 58.90759,30.731313 59.0901104,30.8771028 L59.4117218,31.1171113 C60.0021429,31.5371263 60.592564,31.9619415 61.1829851,32.3843566 C61.5924235,32.6957495 62.0285287,32.9704235 62.4862317,33.2051859 C63.9670845,33.9060109 64.5791064,33.8412086 66.2063645,33.6348012 L66.2063645,33.6348012 C66.3959713,34.6596378 66.5879781,36.1740919 66.6815815,37.2325297 Z"/>
    <path fill="url(#icon-chat-f)" d="M54.8611593,29.6194578 C54.4363442,30.0106718 55.6723883,31.3619201 56.1212043,31.7267331 C56.5700204,32.0915461 57.2516447,32.089146 57.820465,31.92114 C58.1996786,31.8107361 58.602893,31.5971285 58.7060966,31.2131148 C58.7404095,30.9397155 58.7150253,30.6621269 58.631694,30.3994857 C58.5284903,29.8354656 58.631694,29.2426444 58.4780885,28.6858245 C58.3062761,28.1238957 57.9567616,27.6328911 57.4820529,27.2865745 C57.0380371,26.9385621 55.8403943,26.0145291 55.5931855,26.9385621 C55.3243759,27.9225972 55.8547948,28.6978249 54.8611593,29.6194578 Z"/>
    <path fill="url(#icon-chat-g)" d="M54.7651559,48.5321333 L49.7249759,48.5321333 C49.6317526,48.3388179 49.5284056,48.15055 49.4153648,47.9681131 C49.3913759,47.930632 49.363193,47.8960073 49.3313618,47.8649095 C49.1102793,47.6319692 48.9567854,47.3432347 48.887346,47.0296796 C48.2394737,44.7939985 48.3448936,42.4072906 49.1873567,40.2374371 C49.2643043,40.0193736 49.3861309,39.8198724 49.5449695,39.6518161 C49.8041787,39.3758063 50.0969892,39.2414015 50.372999,38.7325833 C50.9178185,37.7317476 51.9570556,36.0252866 52.470674,35.0100504 C52.6746812,36.9805207 51.9090539,38.806986 51.9906568,40.7846566 C52.0314583,41.9366977 52.0746598,43.1079396 52.470674,44.1927783 C52.7990783,45.0881446 53.3182972,45.9013692 53.9923283,46.5760634 C54.2419372,46.8616736 54.6331512,47.8049073 54.7651559,48.5321333 Z"/>
    <path fill="url(#icon-chat-h)" d="M66.1967642,33.6180006 C66.1967642,33.6180006 66.6215793,36.7165113 66.6047787,36.538905 C66.5879781,36.3612986 72.6649952,34.7052395 74.4002572,28.952234 C74.5329035,28.7608378 74.6948983,28.5915533 74.8802743,28.4506161 C77.0403514,26.8377585 77.3763634,26.1585342 76.7307404,26.5545484 C76.3965122,26.7839818 75.9915197,26.8869316 75.5882996,26.8449587 C75.8264467,26.6447426 76.0472408,26.4247514 76.2483232,26.1873353 C76.5027322,25.8777242 77.0595521,25.5585128 77.196357,25.1840994 C77.2162245,25.1422477 77.2245123,25.095836 77.2203579,25.0496946 C77.1942332,24.9608711 77.1084426,24.9033409 77.0163506,24.9128897 C76.929877,24.9254442 76.847619,24.9583474 76.776342,25.0088932 C76.4508279,25.2123299 76.1389526,25.4368159 75.8427087,25.6809172 C75.6579021,25.8321226 75.1490839,26.0361299 75.3242902,25.6809172 C75.5978999,25.116897 76.2051216,24.7424837 76.3659274,24.1376621 C76.3933275,24.0695223 76.3880217,23.9925878 76.3515268,23.9288546 C76.2891246,23.8520519 76.1643202,23.8760527 76.0731169,23.9288546 C75.7443052,24.0776599 74.7530698,25.4385085 74.5106611,25.4073074 C74.2682524,25.3761063 74.7722704,23.9528555 74.7914711,23.6792457 C74.7914711,23.604843 74.7914711,23.5160399 74.7266688,23.4800386 C74.6545718,23.4535394 74.5736028,23.4757095 74.5250616,23.5352405 C73.891439,24.0584592 73.8050359,24.975292 73.3970213,25.6953177 C73.3427611,25.8169079 73.2439931,25.9130993 73.1210115,25.9641273 C72.8594021,26.04093 72.6409943,25.7433194 72.3745848,25.6833173 C72.3272365,25.6664735 72.2755279,25.6664735 72.2281796,25.6833173 C72.0817743,25.7481196 72.1033751,25.9761277 72.1921783,26.1105325 C73.3922212,27.9393978 70.336912,32.338755 66.1967642,33.6180006 Z"/>
    <path fill="url(#icon-chat-i)" d="M48.3257259,36.7525126 C48.3257259,36.7525126 47.0656809,46.8952748 48.0305154,48.5321333 L50.1257902,48.5321333 C49.6965092,45.2729681 49.7774826,41.9668257 50.3657988,38.7325833 C50.3657988,38.7325833 50.1809922,37.1365263 48.3257259,36.7525126 Z"/>
    <rect width="24.706" height="2.7" x="18.469" y="36.164" fill="#BDD657" opacity=".32" rx="1.349"/>
    <rect width="24.706" height="2.7" x="18.469" y="41.692" fill="#BDD657" opacity=".32" rx="1.349"/>
    <path fill="#BDD657" d="M124.564449 66.1439623L102.555663 66.1439623C101.810325 66.1439623 101.205738 65.5404505 101.204414 64.7951141L101.204414 64.7951141C101.204414 64.4373773 101.346525 64.0942925 101.599483 63.8413344 101.852441 63.5883763 102.195526 63.4462659 102.553263 63.4462659L124.564449 63.4462659C124.922186 63.4462659 125.26527 63.5883763 125.518228 63.8413344 125.771187 64.0942925 125.913297 64.4373773 125.913297 64.7951141L125.913297 64.7951141C125.913297 65.5400624 125.309397 66.1439623 124.564449 66.1439623L124.564449 66.1439623zM124.564449 71.6713597L102.555663 71.6713597C101.810325 71.6713597 101.205738 71.0678479 101.204414 70.3225115L101.204414 70.3225115C101.205685 69.9654106 101.348763 69.6234406 101.602172 69.3718324 101.85558 69.1202241 102.198562 68.9795882 102.555663 68.980855L124.564449 68.980855C125.309397 68.980855 125.913297 69.5847635 125.913297 70.3297118L125.913297 70.3297118C125.908029 71.0712988 125.306053 71.6700612 124.564449 71.6713597zM62.5870353 97.803493L40.5806493 97.803493C39.8353118 97.803493 39.2307249 97.1999812 39.2294011 96.4546448L39.2294011 96.4546448C39.2294011 95.708371 39.8343755 95.1033965 40.5806493 95.1033965L62.5870353 95.1033965C63.3319835 95.1033965 63.9358856 95.7072964 63.9358856 96.4522447L63.9358856 96.4522447C63.9365205 96.8099817 63.7950208 97.1533197 63.5425127 97.406728 63.2900046 97.6601363 62.9471723 97.802857 62.5894353 97.803493L62.5870353 97.803493z" opacity=".32"/>
    <rect width="24.706" height="2.7" x="39.232" y="101.272" fill="#BDD657" opacity=".32" rx="1.349"/>
    <path fill="#BDD657" d="M101.127612,61.5045966 C100.967123,61.9579652 100.695656,62.3639269 100.337983,62.6854388 C99.6683596,63.2974606 98.8187292,63.6814743 98.1587057,64.3030965 C96.6946534,65.6807457 96.4522447,67.8816243 96.2986392,69.8856959 L95.7634201,76.802743 L85.6830601,76.802743 C84.9603784,76.8033531 84.2399783,76.8838447 83.5349834,77.0427515 C83.664588,75.1866852 83.776592,73.330619 83.8709954,71.4745527 C84.0486017,67.9872281 84.055802,64.1518911 81.8333226,61.4565949 C81.6027498,61.2375742 81.4437889,60.9539545 81.3773063,60.6429658 C81.3485053,60.285353 81.590914,59.9685417 81.8189221,59.6829315 C81.8333226,59.668531 81.842923,59.6541305 81.8573235,59.6373299 L83.3405764,57.8252652 C83.492269,57.5805792 83.7363184,57.4074945 84.0174006,57.345248 C84.2617555,57.3606484 84.4909931,57.468828 84.6582235,57.6476588 C85.229543,58.1676617 85.7502901,58.7406442 86.2134791,59.35892 C86.5182899,59.7429337 86.8159006,60.1317476 87.1327119,60.5061609 C88.6279653,62.272624 90.9104468,63.5158684 93.0657238,62.0998179 C94.5461062,61.0969322 96.0884402,60.1886866 97.6834887,59.3805207 C98.4266642,59.0200635 99.1885786,58.6995948 99.9659702,58.4204864 C99.9203686,58.7924997 100.119576,59.0949105 100.366785,59.3805207 C100.632504,59.651123 100.866062,59.9515263 101.062809,60.2757527 C101.246742,60.6605081 101.270058,61.1026298 101.127612,61.5045966 L101.127612,61.5045966 Z"/>
    <path fill="url(#icon-chat-j)" d="M83.5493839,59.5581271 C84.012821,58.7330067 84.1660443,57.7694024 83.9813993,56.84123 C83.79668,55.9226761 83.5017354,55.0297836 83.102968,54.1819351 L80.5732776,48.1817208 C80.3457945,47.6924327 80.1696468,47.1808805 80.0476588,46.6552663 C79.8724526,45.7576342 80.0140576,44.8312011 80.1556627,43.9287689 C79.995397,43.8828952 79.8236538,43.9000695 79.6756456,43.9767706 C79.7220632,44.4735446 79.4617202,44.9486229 79.0180221,45.1768135 C78.7953821,44.2749729 78.3866203,43.4296534 77.8179792,42.6951248 C77.8803814,43.3655488 77.9267831,44.0375728 77.9571842,44.7111968 C77.4291653,44.1687775 76.8995464,43.6279581 76.3683274,43.0887389 C75.9579128,43.8087646 77.4339655,44.5743919 77.0883532,45.332819 L75.3458909,44.0775742 C75.2186864,44.9320047 76.6011358,45.3352191 76.6755384,46.19925 L75.4250938,45.6160291 C75.6891032,46.2616522 76.301125,46.6816672 76.7859424,47.1856852 C78.566806,49.0601521 78.566806,51.9618558 79.6804457,54.292339 C80.3188685,55.6339869 81.002893,56.7308261 81.2909032,58.1972785 C81.506911,59.2989178 82.4549448,61.3173899 83.5493839,59.5581271 Z"/>
    <circle cx="45.774" cy="71.115" r="1.889" fill="#BDD657"/>
    <circle cx="51.58" cy="71.115" r="1.889" fill="#BDD657"/>
    <circle cx="57.386" cy="71.115" r="1.889" fill="#BDD657"/>
    <circle cx="92.221" cy="103.16" r="1.889" fill="#BDD657"/>
    <circle cx="98.024" cy="103.16" r="1.889" fill="#BDD657"/>
    <circle cx="103.828" cy="103.16" r="1.889" fill="#BDD657"/>
    <circle cx="84.526" cy="38.862" r="1.889" fill="#BDD657"/>
    <circle cx="90.332" cy="38.862" r="1.889" fill="#BDD657"/>
    <circle cx="96.135" cy="38.862" r="1.889" fill="#BDD657"/>
    <path fill="#ECC4D7" d="M62.1238187,26.8305582 C61.8646095,27.7329905 61.4373942,28.6210222 60.7149684,29.230644 C59.702075,30.0761697 58.2787007,30.2259137 57.1120257,29.6096862 C55.9453508,28.9934587 55.266621,27.7334017 55.3939784,26.4201436 C55.3939784,26.3457409 55.3939784,26.2545377 55.3411765,26.2113361 C55.2851745,26.1921354 55.2243723,26.1921354 55.1683703,26.2113361 C54.8155577,26.2473374 54.5539484,25.8825244 54.4483446,25.5465124 C54.3523706,25.2923433 54.3282883,25.0166433 54.3787421,24.7496839 C54.4339214,24.4806211 54.6289993,24.2617308 54.8899604,24.1760634 C55.1603823,24.1006662 55.4421138,24.2521233 55.5283832,24.5192757 C55.5781178,24.0197865 55.7423804,23.5384971 56.0084003,23.1128255 C56.2777223,22.5581559 56.6415691,22.0546178 57.0836387,21.6247723 C58.0494399,20.8107203 59.3872353,20.5999274 60.5565627,21.0775528 C61.5876508,21.5035681 62.3846531,22.3539372 62.7430408,23.4104361 C62.8822458,23.8904532 62.6782385,24.3056681 62.5846352,24.7736848 C62.4286296,25.4409086 62.3206257,26.1609343 62.1238187,26.8305582 Z"/>
    <path fill="#3F3D56" d="M55.6963892,24.9728919 C55.6672703,25.011991 55.6226039,25.0365137 55.5739848,25.0400943 C55.4803814,25.0400943 55.4563806,24.9104897 55.4491803,24.8192864 C55.4513055,24.5940584 55.3651523,24.3769524 55.2091718,24.2144648 C55.1312708,24.1363462 55.0254838,24.0924413 54.9151613,24.0924413 C54.8048387,24.0924413 54.6990517,24.1363462 54.6211508,24.2144648 L54.6211508,24.2144648 C54.4631416,23.159239 54.6878938,22.0823011 55.2547734,21.1783564 C55.3245225,21.0917805 55.3700714,20.9882602 55.3867781,20.8783457 C55.3867781,20.7367406 55.3051752,20.5975356 55.3315761,20.4583307 C55.3622032,20.3574204 55.4234275,20.2685193 55.5067824,20.2039216 C55.7587127,19.9431994 56.0641249,19.7401372 56.4020144,19.6087003 C56.7402359,19.4766622 57.1217985,19.5197563 57.4220508,19.7239044 C58.1868621,19.2728117 59.0566626,19.0303268 59.9445409,19.0206793 C60.4602997,19.0094057 60.9734791,19.0965647 61.4565949,19.2774885 C62.3272921,19.6391202 63.0316766,20.3126933 63.4318654,21.1663559 C63.8228645,22.0192066 63.9651262,22.9651226 63.8422801,23.8952534 C62.2211257,24.6283725 60.3114717,23.9281305 59.5485267,22.3207972 C59.478807,22.6971412 59.5196563,23.0856259 59.6661309,23.4392371 C59.0730755,23.1458631 58.6531968,22.5898798 58.5332905,21.9391835 C58.353284,21.7711775 58.0796743,21.9847852 57.930869,22.1791921 C57.5468552,22.6856102 57.1916426,23.2808315 56.7308261,23.715247 C56.5232099,23.8698987 56.3325416,24.0460859 56.1620058,24.2408657 C55.9771992,24.4664738 55.9003964,24.7568842 55.6963892,24.9728919 Z"/>
    <path fill="url(#icon-chat-k)" d="M92.7393121,62.1982214 C92.6553091,62.8678453 92.0312868,63.4438659 91.3520626,63.6070717 C91.1799874,63.652534 91.0012202,63.6671604 90.8240437,63.6502732 C89.8640094,63.5518697 89.4271938,62.3662274 89.4463945,61.3989928 C89.4655952,60.4317583 89.6864031,59.445323 89.2447873,58.6220936 C89.2447873,58.5956927 89.2183864,58.5692918 89.2039859,58.5428908 C88.9639773,58.1180756 88.5439623,57.8012643 88.3303547,57.3572485 C88.1337057,56.8555433 88.0902728,56.3067856 88.2055502,55.7803922 C88.4911604,53.7739205 90.0632165,48.4721311 93.0921247,50.457002 C93.8769527,50.9706204 94.3449695,51.8586521 94.6137791,52.7562842 C95.564213,55.9219972 93.5337405,55.8667952 92.7393121,62.1982214 Z"/>
    <path fill="#3F3D56" d="M91.8920819,51.1050252 C92.2976963,51.3450338 92.4993035,51.8250509 92.5905068,52.305068 C92.8521161,53.6371156 92.427301,54.9955641 92.1896925,56.3324119 C91.952084,57.6692596 91.9496839,59.2125147 92.8881174,60.1965499 L92.9097182,60.2205507 C93.6528076,60.9764611 94.8678758,60.9872045 95.6242152,60.2445516 C95.8064685,60.0673335 95.9509738,59.855066 96.0490303,59.6205293 C96.094632,59.5173256 96.1474338,59.416522 96.2026358,59.3181185 C96.5674488,58.6724954 97.076267,58.1180756 97.43868,57.4700525 C97.7336311,56.9251036 97.9379095,56.3357766 98.0435016,55.7251902 C98.1770586,55.1030601 98.1811435,54.4600995 98.055502,53.8363227 C97.8154934,52.7898854 97.0954677,51.9162542 96.3418408,51.1698275 C95.5882139,50.4234008 94.8225865,49.7945784 93.8697525,49.4633665 C92.9169185,49.1321547 91.7792778,49.1849566 90.9896496,49.8065788 C90.7496411,49.9985857 90.0896175,50.7666131 90.4328297,51.1026251 C90.7232401,51.3618344 91.4672667,50.8458159 91.8920819,51.1050252 Z"/>
    <polygon fill="url(#icon-chat-l)" points="48.573 36.753 47.476 36.164 48.271 37.247 48.323 36.753"/>
    <path fill="url(#icon-chat-m)" d="M60.1269474,37.5133398 C60.1979621,36.9417369 60.6990184,36.5224429 61.2741884,36.5533055 C62.3494268,36.5221044 66.5207757,35.9724847 66.5207757,35.9724847 L66.6815815,37.23973 C66.6815815,37.23973 62.9926497,38.7997857 60.1269474,37.5133398 Z"/>
    <path fill="#FFF" d="M66.1967642 33.6180006L66.1967642 34.1796207C66.1967642 34.1796207 62.551034 35.1612558 58.7036966 31.2011143L58.463688 30.5218901C58.6819556 30.605122 58.8859892 30.7217127 59.0685096 30.8675024L59.3901211 31.107511 61.1613843 32.3747562C61.5708227 32.6861491 62.006928 32.9608231 62.4646309 33.1955856 63.9454838 33.8964106 64.5575056 33.8316083 66.1847637 33.6252009L66.1967642 33.6180006zM55.0603664 30.5242902C55.0603664 30.5242902 51.2706311 30.3394836 49.4705668 34.6596378 49.084153 35.5812708 48.1337191 36.5221044 48.1337191 36.5221044L47.6345012 36.4165006C47.5768992 36.3300975 47.5240973 36.2484946 47.4808957 36.176492 47.7425051 34.9764492 48.8969463 34.3884282 49.4345655 33.2963892 49.8331598 32.4612034 50.399315 31.7169503 51.0978249 31.1099111 51.3229922 30.9202219 51.5638668 30.7500039 51.8178506 30.6010929 52.7394836 30.0658738 53.8027215 29.8522662 54.8635594 29.6914604L55.0603664 30.5242902z" opacity=".18"/>
    <path fill="url(#icon-chat-n)" d="M101.127612,61.5045966 C100.967123,61.9579652 100.695656,62.3639269 100.337983,62.6854388 C99.6683596,63.2974606 98.8187292,63.6814743 98.1587057,64.3030965 C96.6946534,65.6807457 96.4522447,67.8816243 96.2986392,69.8856959 L95.7634201,76.802743 L88.1479481,76.802743 C88.1479481,76.802743 92.2976963,68.3736419 93.4281367,66.1415622 C94.5585771,63.9094825 98.0147005,62.44063 98.0147005,62.44063 C100.707597,60.3525554 101.127612,61.5045966 101.127612,61.5045966 Z"/>
    <path fill="url(#icon-chat-o)" d="M91.4720669,63.4894675 C91.4382444,63.5345133 91.3977824,63.574166 91.3520626,63.6070717 C91.1799874,63.652534 91.0012202,63.6671604 90.8240437,63.6502732 C89.8640094,63.5518697 89.4271938,62.3662274 89.4463945,61.3989928 C89.4655952,60.4317583 89.823208,59.4981249 89.0215793,58.2788814 C89.4415943,58.5836923 89.9984142,58.773299 91.2176578,58.8525019 C92.0984892,58.9005036 91.5704704,63.3622629 91.4720669,63.4894675 Z"/>
  </g>
</svg>
