<svg xmlns="http://www.w3.org/2000/svg" width="181" height="140" viewBox="0 0 181 140">
  <defs>
    <linearGradient id="icon-announcement-a" x1="49.384%" x2="49.384%" y1="-86.107%" y2="163.691%">
      <stop offset="0%" stop-color="#FFF" stop-opacity="0"/>
      <stop offset="100%" stop-color="#FFF"/>
    </linearGradient>
    <linearGradient id="icon-announcement-b" x1="-8.578%" x2="194.961%" y1="49.6%" y2="50.35%">
      <stop offset="0%" stop-color="#010101" stop-opacity="0"/>
      <stop offset="100%" stop-color="#010101" stop-opacity=".503"/>
    </linearGradient>
    <linearGradient id="icon-announcement-c" x1="100%" x2="-.001%" y1="49.984%" y2="49.984%">
      <stop offset="0%" stop-color="#E5C6D6"/>
      <stop offset="42%" stop-color="#EAD4D0"/>
      <stop offset="100%" stop-color="#F0E9CB"/>
    </linearGradient>
    <linearGradient id="icon-announcement-d" x1="97.546%" x2="-189.147%" y1="74.452%" y2="-103.684%">
      <stop offset="0%" stop-color="#010101" stop-opacity="0"/>
      <stop offset="95%" stop-color="#010101"/>
    </linearGradient>
    <linearGradient id="icon-announcement-e" x1="51.806%" x2="35.311%" y1="58.853%" y2="-46.803%">
      <stop offset="0%" stop-color="#010101" stop-opacity="0"/>
      <stop offset="95%" stop-color="#010101"/>
    </linearGradient>
    <linearGradient id="icon-announcement-f" x1="51.649%" x2="35.922%" y1="59.276%" y2="-50.359%">
      <stop offset="0%" stop-color="#010101" stop-opacity="0"/>
      <stop offset="95%" stop-color="#010101"/>
    </linearGradient>
    <linearGradient id="icon-announcement-g" x1="41.226%" x2="35.099%" y1="30.647%" y2="96.307%">
      <stop offset="0%" stop-color="#010101" stop-opacity="0"/>
      <stop offset="100%" stop-color="#010101" stop-opacity=".696"/>
    </linearGradient>
    <linearGradient id="icon-announcement-h" x1="51.316%" x2="42.571%" y1="70.544%" y2="33.789%">
      <stop offset="0%" stop-color="#010101" stop-opacity="0"/>
      <stop offset="100%" stop-color="#010101"/>
    </linearGradient>
    <linearGradient id="icon-announcement-i" x1="35.485%" x2="81.302%" y1="41.721%" y2="66.262%">
      <stop offset="0%" stop-color="#010101" stop-opacity="0"/>
      <stop offset="100%" stop-color="#010101"/>
    </linearGradient>
    <linearGradient id="icon-announcement-j" x1="661.344%" x2="761.35%" y1="49.97%" y2="49.97%">
      <stop offset="0%" stop-color="#E5C6D6"/>
      <stop offset="42%" stop-color="#EAD4D0"/>
      <stop offset="100%" stop-color="#F0E9CB"/>
    </linearGradient>
    <linearGradient id="icon-announcement-k" x1="71.184%" x2="-26.822%" y1="33.286%" y2="152.439%">
      <stop offset="0%" stop-color="#010101" stop-opacity="0"/>
      <stop offset="95%" stop-color="#010101"/>
    </linearGradient>
    <linearGradient id="icon-announcement-l" x1="53.478%" x2="-5.095%" y1="49.44%" y2="53.065%">
      <stop offset="0%" stop-color="#010101" stop-opacity="0"/>
      <stop offset="0%" stop-color="#010101" stop-opacity=".015"/>
      <stop offset="100%" stop-color="#010101"/>
    </linearGradient>
    <linearGradient id="icon-announcement-m" x1="0%" x2="100.028%" y1="50.029%" y2="50.029%">
      <stop offset="0%" stop-color="#FFF" stop-opacity="0"/>
      <stop offset="95%" stop-color="#FFF"/>
    </linearGradient>
    <linearGradient id="icon-announcement-n" x1="0%" x2="100%" y1="49.987%" y2="49.987%">
      <stop offset="0%" stop-color="#FFF" stop-opacity="0"/>
      <stop offset="95%" stop-color="#FFF"/>
    </linearGradient>
    <linearGradient id="icon-announcement-o" x1="0%" x2="100%" y1="49.983%" y2="49.983%">
      <stop offset="0%" stop-color="#FFF" stop-opacity="0"/>
      <stop offset="95%" stop-color="#FFF"/>
    </linearGradient>
  </defs>
  <g fill="none">
    <path fill="#BDD657" d="M22.7793019,43.8448586 C21.2774572,51.2401854 21.3145398,58.9613092 18.9147668,66.1155993 C14.591997,79.0017974 2.78119383,88.7810046 0.397313405,102.170466 C-1.34291931,111.933781 2.74146249,122.510264 10.5844291,128.573266 C17.3255132,133.78337 26.0505156,135.547441 34.4841548,136.755274 C66.1023555,141.284647 98.2503074,140.113897 130.104247,137.886293 C141.713745,137.073125 153.723205,136.003027 163.886482,130.339987 C170.344149,126.740327 175.882698,121.215022 178.634755,114.354744 C181.386813,107.494466 181.079557,99.2727273 177.045502,93.0799357 C172.608835,86.2779302 164.037461,81.9789991 162.334311,74.0353798 C160.882793,67.2651594 165.06253,60.7571658 168.08476,54.5272916 C173.117397,44.1494655 175.077476,31.3745152 169.501845,21.280106 C166.058462,15.0528805 160.125248,10.5288052 153.752341,7.36089301 C135.918267,-1.50184467 114.953363,-0.646296471 95.1221266,1.20783275 C66.3990162,3.89632012 29.541576,10.6056191 22.7793019,43.8448586 Z" opacity=".24"/>
    <rect width="96.907" height="62.625" x="46.952" y="38.423" fill="#BDD657" rx="5.147"/>
    <rect width="91.44" height="59.094" x="49.275" y="40.844" fill="#FFF" rx="4.858"/>
    <rect width="34.635" height="15.005" x="22.279" y="75.394" fill="#BDD657" opacity=".14" rx="4.039"/>
    <rect width="34.635" height="15.005" x="141.71" y="87.45" fill="#BDD657" opacity=".14" rx="4.039"/>
    <rect width="34.635" height="15.005" x="131.121" y="41.901" fill="#BDD657" opacity=".14" rx="4.039"/>
    <rect width="34.964" height="37.769" x="58.643" y="57.989" fill="#BDD657" opacity=".11" rx="3.833"/>
    <path fill="#BDD657" d="M57.0250686,68.6239712 C57.0250686,68.6239712 56.2728219,71.6276606 58.6778923,73.1268565 C61.0829628,74.6260524 70.2503074,70.5708069 75.8100464,69.9695393 C81.3697853,69.3682717 92.7991675,71.6276606 92.7991675,71.6276606 C92.7991675,71.6276606 90.6801627,75.5372245 90.8390881,79.8944282 C90.9980134,84.2516318 91.2893766,87.7082584 90.8390881,88.4605052 C90.3887995,89.2127519 93.3924889,92.2164412 93.8427774,92.3674203 C94.2930659,92.5183994 98.3456627,92.8177088 98.3456627,92.8177088 L103.455113,100.33223 L116.452559,100.05411 L108.463911,73.664554 L112.323148,60.6591619 L76.5649418,56 L57.0250686,68.6239712 Z" opacity=".14"/>
    <polygon fill="#BDD657" points="50.056 100.573 32.039 114.138 158.165 114.138 140.551 100.372"/>
    <polygon fill="url(#icon-announcement-a)" points="50.056 100.573 32.039 114.138 158.165 114.138 140.551 100.372"/>
    <polygon fill="#BDD657" points="37.202 119.099 32.039 114.138 158.165 114.138 153.509 119.403"/>
    <polygon fill="url(#icon-announcement-b)" points="37.202 119.099 32.039 114.138 158.165 114.138 153.509 119.403"/>
    <polygon fill="#BDD657" points="80.93 112.013 86.296 107.762 105.932 107.659 111.6 111.913" opacity=".58"/>
    <polygon fill="#BDD657" points="43.577 106.986 145.613 106.851 140.148 102.396 49.855 102.396" opacity=".58"/>
    <path fill="url(#icon-announcement-c)" d="M106.175385,92.8574402 C105.587362,92.0628134 104.551698,91.7502601 103.621985,91.3953268 C99.9825939,89.9967837 97.1139911,87.1387759 94.5658878,84.1933592 C93.9752152,83.5126289 93.3818939,82.7974648 93.1223158,81.9339703 C92.8110959,80.8617933 93.0467843,79.7051375 93.7527197,78.8402233 C93.8960227,78.6855195 94.0270891,78.5199153 94.1447356,78.3449059 C94.280007,78.0773804 94.3695363,77.7890961 94.4096112,77.4920064 C94.5870779,76.6073219 95.0002838,75.5954971 95.8849683,75.4153817 C96.0843949,75.3979053 96.281463,75.3597344 96.4729921,75.3014852 C96.7908429,75.1611011 96.9444707,74.8061678 97.082206,74.4856683 C97.5934159,73.3043231 98.4410179,72.0673541 99.7177183,71.9084287 C99.8820323,71.9069312 100.044296,71.871774 100.194494,71.8051272 C100.549428,71.601173 100.50175,71.0899631 100.581213,70.6873522 C100.777221,69.6834737 102.011541,69.1722637 103.012771,69.386813 C104.014001,69.6013622 104.819222,70.3218239 105.574118,71.0105004 L108.471857,73.6592565 C109.250591,74.3691231 110.061111,75.108126 111.102072,75.3571091 C111.275811,75.4177106 111.466576,75.4062647 111.631823,75.325324 C111.798582,75.1761857 111.894747,74.9636606 111.896699,74.7399489 C112.259578,72.5096963 116.21682,70.0463532 117.946457,70.3456627 C116.886955,73.3520008 116.060543,78.0985716 115.440734,82.4504777 C118.383502,87.3135938 122.761896,90.9821209 127.209157,94.5235077 C128.305897,95.4423155 129.464355,96.2848305 130.676379,97.0451235 C132.119951,97.9033204 133.709204,98.5390219 134.991202,99.6223631 L116.44991,100.05411 C115.934638,100.098881 115.415531,100.047689 114.918929,99.9031312 C114.437165,99.6987628 113.998545,99.4048519 113.626336,99.036988 C111.860499,97.5007095 110.146754,95.9114559 108.485101,94.2692271 C107.897077,93.6970958 106.985905,93.0640431 106.175385,92.8574402 Z"/>
    <path fill="url(#icon-announcement-d)" d="M110.490209,79.4414909 C110.299499,81.0492858 109.430707,82.4955066 108.482452,83.8013433 C107.813992,84.7920217 106.990266,85.6685159 106.042948,86.3971242 C105.079936,87.12445 103.888952,87.4841871 102.684325,87.4115978 C101.686328,87.312248 100.762826,86.8391427 100.099139,86.0872198 C99.8664708,85.8440294 99.7028131,85.5432284 99.6250118,85.215779 C99.4846278,84.4608835 100.046164,83.7748557 100.578564,83.2212657 C102.562131,81.1553991 104.677632,79.2203925 106.91174,77.4284363 C107.605714,76.8721975 109.526062,75.2246713 110.537887,75.6140384 C111.027907,75.8021001 110.582916,78.6495128 110.490209,79.4414909 Z"/>
    <path fill="#BDD657" d="M116.060543,68.9153344 L99.37338,90.4073408 C99.37338,90.4073408 95.0161763,90.1053827 92.3091477,87.8512913 C89.602119,85.5971999 94.4149087,84.2436856 94.4149087,84.2436856 C94.4149087,84.2436856 104.331851,74.326743 105.685366,66.5102639 L116.060543,68.9153344 Z"/>
    <path fill="url(#icon-announcement-e)" d="M92.3064989,87.8486425 C93.564658,88.8949011 95.1459654,89.5147101 96.4915334,89.8775896 C97.4336032,90.1433282 98.3983917,90.320679 99.37338,90.4073408 L115.795667,69.2941065 L116.073787,68.9312269 L105.693312,66.531454 C104.347744,74.3452843 94.4202062,84.2781194 94.4202062,84.2781194 C94.4202062,84.2781194 89.6206603,85.6024974 92.3064989,87.8486425 Z"/>
    <path fill="url(#icon-announcement-f)" d="M95.0161763,88.9160912 C95.4676225,89.2945986 95.9629675,89.6174177 96.4915334,89.8775896 C97.4336032,90.1433282 98.3983917,90.320679 99.37338,90.4073408 L115.795667,69.2941065 L108.408287,67.5644688 C107.041529,75.3782991 97.1351812,85.3111342 97.1351812,85.3111342 C97.1351812,85.3111342 92.3064989,86.6619998 95.0161763,88.9160912 Z"/>
    <path fill="#BDD657" d="M127.937565,56.5112099 C126.840347,54.4591613 124.920052,52.9724499 122.658594,52.4241794 C112.243686,49.9158074 79.6295525,40.8385205 77.7383407,25.1923186 C77.7383407,25.1923186 77.1370731,21.1344244 72.0276227,21.1344244 C66.9181724,21.1344244 58.8023839,69.5245483 60.1558982,70.5761044 C61.5094125,71.6276606 66.1659256,69.3735692 68.5709961,67.1327216 C70.9760666,64.891874 77.7383407,60.2194684 86.9056854,63.0748274 C91.0297985,64.359474 98.5416706,66.1023555 105.555577,67.628039 C110.588213,68.724624 115.371866,69.7099612 118.460316,70.3350676 C121.072296,70.8598386 123.761426,69.907502 125.460978,67.855832 C127.381326,65.5620093 129.246051,62.0841926 128.533535,57.6448775 C128.533535,57.6528238 128.292498,57.1733989 127.937565,56.5112099 Z"/>
    <ellipse cx="65.322" cy="45.841" fill="#BDD657" rx="25.346" ry="8.54" transform="rotate(-75.64 65.322 45.841)"/>
    <ellipse cx="65.322" cy="45.841" fill="url(#icon-announcement-g)" rx="25.346" ry="8.54" transform="rotate(-75.64 65.322 45.841)"/>
    <ellipse cx="66.26" cy="46.152" fill="url(#icon-announcement-h)" rx="7.626" ry="2.569" transform="rotate(-75.64 66.26 46.152)"/>
    <path fill="url(#icon-announcement-i)" d="M68.1471952,38.759247 L74.6578375,39.6200927 C74.6578375,39.6200927 72.1786018,55.3987324 69.397408,56.7522467 L64.9633904,53.4439504 L68.1471952,38.759247 Z"/>
    <path fill="url(#icon-announcement-j)" d="M105.735692,73.664554 C106.660108,74.4406395 107.7408,75.0021758 108.739381,75.6749598 C109.393624,76.1146533 110.063759,76.7053259 110.114086,77.4946552 C110.113092,77.8872658 110.008963,78.2727248 109.812128,78.6124302 C109.45792,79.3074832 108.969011,79.9251471 108.373853,80.4294769 C107.897077,80.8347365 107.351433,81.1684798 106.951471,81.6505534 C106.693181,81.9983033 106.461211,82.3648502 106.257497,82.7471384 C105.537035,83.9337811 104.50402,84.8926308 103.484249,85.8355879 C103.19945,86.1166523 102.888091,86.3694649 102.554536,86.5904834 C101.560077,87.1630386 100.359058,87.2517502 99.2912686,86.8315202 C98.235248,86.4077645 97.3257765,85.6851581 96.6742976,84.7522467 C95.9803235,83.8145871 95.4823574,82.6332419 95.6810141,81.4969256 C95.8410778,80.8063465 96.1334122,80.1533166 96.5418598,79.5739287 C97.8665527,77.4529236 99.3921988,75.4642617 101.09772,73.6354177 C101.534765,73.1692366 103.039258,71.1508845 103.733232,71.2515372 C104.257686,71.3151074 105.192697,73.2089679 105.735692,73.664554 Z"/>
    <path fill="url(#icon-announcement-k)" d="M113.194589,59.4063003 C113.194589,59.4063003 111.422571,67.4081922 105.544982,67.617444 L120.11314,70.9310377 C120.11314,70.9310377 125.320594,70.6290796 126.324473,68.5259673 C127.328351,66.422855 132.530508,59.1149371 125.227888,53.3936241 L113.504493,49.7886671 C113.504493,49.7886671 114.807681,54.5961593 113.194589,59.4063003 Z"/>
    <path fill="url(#icon-announcement-l)" d="M78.6389178,30.7520575 C78.6389178,30.7520575 80.3500142,49.5794154 69.4212468,66.2189008 C69.4212468,66.2189008 75.9345379,61.2101031 83.8490209,62.3119856 C83.8490209,62.3119856 88.158547,46.4830196 86.2540914,42.0728408 C84.3496358,37.662662 78.6389178,30.7520575 78.6389178,30.7520575 Z"/>
    <rect width="34.635" height="15.005" x="132.462" y="39.986" fill="#FFF" rx="4.039"/>
    <rect width="34.635" height="15.005" x="102.742" y="12.419" fill="#FFF" rx="4.039"/>
    <rect width="34.635" height="15.005" x="20.684" y="73.863" fill="#FFF" rx="4.039"/>
    <rect width="34.635" height="15.005" x="143.498" y="85.41" fill="#FFF" rx="4.039"/>
    <rect width="25.648" height="1.722" x="137.439" y="43.315" fill="#BDD657" opacity=".11" rx=".678"/>
    <rect width="25.648" height="1.722" x="137.439" y="49.248" fill="#BDD657" opacity=".11" rx=".678"/>
    <rect width="25.648" height="1.722" x="148.729" y="88.676" fill="#BDD657" opacity=".11" rx=".678"/>
    <rect width="25.648" height="1.722" x="148.729" y="94.61" fill="#BDD657" opacity=".11" rx=".678"/>
    <rect width="25.648" height="1.722" x="26.043" y="77.002" fill="#BDD657" opacity=".11" rx=".678"/>
    <rect width="25.648" height="1.722" x="26.043" y="82.935" fill="#BDD657" opacity=".11" rx=".678"/>
    <rect width="25.648" height="1.722" x="107.335" y="15.815" fill="#BDD657" opacity=".11" rx=".678"/>
    <rect width="25.648" height="1.722" x="107.335" y="21.748" fill="#BDD657" opacity=".11" rx=".678"/>
    <path fill="url(#icon-announcement-m)" d="M48.9463627,13.4583294 C49.3277836,14.2238199 55.4517075,24.6811087 55.4517075,24.6811087 L58.3865292,22.6389178 L55.1868319,10.7777883 L48.9463627,13.4583294 Z"/>
    <polygon fill="url(#icon-announcement-n)" points="36.569 26.345 46.396 33.745 44.353 36.937 32.487 33.237"/>
    <polygon fill="url(#icon-announcement-o)" points="29.679 53.907 42.438 51.865 42.568 55.566 30.063 59.777"/>
  </g>
</svg>
