<svg xmlns="http://www.w3.org/2000/svg" width="23" height="14" viewBox="0 0 23 14">
  <path fill="#AAA" d="M459.857158,30.281242 C460.03573,30.281242 460.236623,30.1919562 460.370552,30.0580274 L470.77235,19.6562293 C470.906278,19.5223006 470.995564,19.3214075 470.995564,19.1428359 C470.995564,18.9642642 470.906278,18.7633711 470.77235,18.6294424 L469.656277,17.5133696 C469.522348,17.3794409 469.321455,17.2901551 469.142884,17.2901551 C468.964312,17.2901551 468.763419,17.3794409 468.62949,17.5133696 L459.857158,26.2857015 L451.084826,17.5133696 C450.950898,17.3794409 450.750004,17.2901551 450.571433,17.2901551 C450.37054,17.2901551 450.191968,17.3794409 450.058039,17.5133696 L448.941967,18.6294424 C448.808038,18.7633711 448.718752,18.9642642 448.718752,19.1428359 C448.718752,19.3214075 448.808038,19.5223006 448.941967,19.6562293 L459.343765,30.0580274 C459.477693,30.1919562 459.678587,30.281242 459.857158,30.281242 Z" transform="translate(-448 -17)"/>
</svg>
