<svg xmlns="http://www.w3.org/2000/svg" xmlns:xlink="http://www.w3.org/1999/xlink" width="167" height="140" viewBox="0 0 167 140">
  <defs>
    <linearGradient id="icon-msg-a" x1="50.068%" x2="48.685%" y1="86.915%" y2="-65.995%">
      <stop offset="0%" stop-color="#010101" stop-opacity="0"/>
      <stop offset="100%" stop-color="#010101"/>
    </linearGradient>
    <linearGradient id="icon-msg-b" x1="30.026%" x2="91.738%" y1="50.039%" y2="50%">
      <stop offset="0%" stop-color="#010101" stop-opacity="0"/>
      <stop offset="100%" stop-color="#010101"/>
    </linearGradient>
    <linearGradient id="icon-msg-c" x1="52.151%" x2="50%" y1="23.849%" y2="143.686%">
      <stop offset="0%" stop-color="#010101" stop-opacity="0"/>
      <stop offset="100%" stop-color="#010101"/>
    </linearGradient>
    <linearGradient id="icon-msg-d" x1="49.49%" x2="49.49%" y1="-69.9%" y2="444.499%">
      <stop offset="0%" stop-color="#010101" stop-opacity="0"/>
      <stop offset="100%" stop-color="#010101"/>
    </linearGradient>
    <linearGradient id="icon-msg-e" x1="-3.287%" x2="68.081%" y1="75.752%" y2="40.106%">
      <stop offset="0%" stop-color="#FFF" stop-opacity="0"/>
      <stop offset="95%" stop-color="#FFF"/>
    </linearGradient>
    <linearGradient id="icon-msg-f" x1="85.418%" x2="40.351%" y1="10.174%" y2="59.43%">
      <stop offset="0%" stop-color="#FFF" stop-opacity="0"/>
      <stop offset="95%" stop-color="#FFF"/>
    </linearGradient>
    <linearGradient id="icon-msg-g" x1="103.284%" x2="31.98%" y1="75.724%" y2="40.124%">
      <stop offset="0%" stop-color="#FFF" stop-opacity="0"/>
      <stop offset="95%" stop-color="#FFF"/>
    </linearGradient>
    <linearGradient id="icon-msg-h" x1="14.593%" x2="59.668%" y1="10.22%" y2="59.415%">
      <stop offset="0%" stop-color="#FFF" stop-opacity="0"/>
      <stop offset="95%" stop-color="#FFF"/>
    </linearGradient>
    <linearGradient id="icon-msg-i" x1="51.023%" x2="47.923%" y1="20.933%" y2="110.543%">
      <stop offset="0%" stop-color="#FFF" stop-opacity="0"/>
      <stop offset="95%" stop-color="#FFF"/>
    </linearGradient>
    <linearGradient id="icon-msg-j" x1="48.168%" x2="55.983%" y1="31.078%" y2="58.58%">
      <stop offset="0%" stop-color="#FFF" stop-opacity="0"/>
      <stop offset="95%" stop-color="#FFF"/>
    </linearGradient>
    <linearGradient id="icon-msg-k" x1="47.521%" x2="92.135%" y1="52.002%" y2="16.206%">
      <stop offset="0%" stop-color="#FFF" stop-opacity="0"/>
      <stop offset="95%" stop-color="#FFF"/>
    </linearGradient>
    <path id="icon-msg-l" d="M0.0834216633,24.7377317 L21.4618271,28.6489243 L21.4618271,9.04483341 C21.4547462,4.04743454 17.4015635,0 12.4041596,0 L12.4041596,0 C7.39885983,0 2.58607156,5.02455095 2.58607156,10.0266422 L0.0834216633,24.7377317 Z"/>
    <linearGradient id="icon-msg-n" x1="59.618%" x2="38.4%" y1="21.957%" y2="78.445%">
      <stop offset="0%" stop-color="#FFF" stop-opacity="0"/>
      <stop offset="95%" stop-color="#FFF"/>
    </linearGradient>
    <linearGradient id="icon-msg-o" x1="51.396%" x2="45.455%" y1="30.614%" y2="60.786%">
      <stop offset="0%" stop-color="#FFF" stop-opacity="0"/>
      <stop offset="95%" stop-color="#FFF"/>
    </linearGradient>
    <linearGradient id="icon-msg-p" x1="59.627%" x2="38.4%" y1="21.953%" y2="78.459%">
      <stop offset="0%" stop-color="#FFF" stop-opacity="0"/>
      <stop offset="95%" stop-color="#FFF"/>
    </linearGradient>
    <linearGradient id="icon-msg-q" x1="51.388%" x2="45.452%" y1="30.608%" y2="60.793%">
      <stop offset="0%" stop-color="#FFF" stop-opacity="0"/>
      <stop offset="95%" stop-color="#FFF"/>
    </linearGradient>
  </defs>
  <g fill="none" fill-rule="evenodd">
    <path fill="#BDD657" fill-rule="nonzero" d="M166.87862,105.769043 C166.795599,106.67005 166.634569,107.562156 166.397342,108.435328 C165.863641,110.462123 165.052791,112.405571 163.987739,114.210674 C157.830578,124.956026 145.769731,131.167731 133.638296,133.708884 C121.506861,136.250036 108.97436,135.691752 96.595869,136.259661 C79.8730341,137.016873 63.1951185,139.824333 46.4722835,138.903486 C38.5452146,138.459723 30.68695,137.182096 23.0275876,135.091758 C-13.9057496,135.091758 4.15183201,78.6922967 6.27266737,57.3106827 C7.18709714,48.0990059 8.25874466,38.4445527 13.517518,30.8243046 C19.7356404,21.8115564 30.7473,17.3132037 41.5215286,15.3592116 C52.2957573,13.4052196 63.3908385,13.5046839 74.0912711,11.258716 C91.5937778,7.58816283 108.512333,-2.31013837 126.172057,0.497321454 C143.498095,3.26627897 157.548228,19.7484745 157.538603,37.2991091 C157.538603,49.6102214 151.95256,61.8507463 155.157877,74.1105222 C157.946085,84.7596184 167.950268,94.1862664 166.87862,105.769043 Z" opacity=".24"/>
    <path fill="#BDD657" fill-rule="nonzero" d="M166.384507,108.435328 C165.850806,110.462123 165.039957,112.405571 163.974905,114.210674 C157.817744,124.956026 145.756897,131.167731 133.625462,133.708884 C121.494027,136.250036 108.961526,135.691752 96.5830349,136.259661 C79.8602,137.016873 63.1822844,139.824333 46.4594494,138.903486 C38.5366952,138.458827 30.6827788,137.181208 23.0275876,135.091758 C17.8939468,133.69605 7.28656143,131.883233 4.18070874,127.112155 C2.23955081,124.144269 1.93474088,118.583894 1.85452775,113.899447 C3.01601398,114.082333 4.17108316,114.358266 5.18497723,114.454522 C8.62130805,114.775375 12.0993497,114.80746 15.5453061,114.913341 C22.8457711,115.146494 30.1483752,115.302642 37.4531183,115.381786 C66.5437496,115.691943 95.6129907,114.735803 124.660842,112.513364 C138.598676,111.445995 152.506565,110.086649 166.384507,108.435328 Z" opacity=".24"/>
    <rect width="8.211" height="50.634" x="107.797" y="70.783" fill="#BDD657" fill-rule="nonzero"/>
    <rect width="8.211" height="50.634" x="107.797" y="70.783" fill="url(#icon-msg-a)" fill-rule="nonzero"/>
    <path fill="#BDD657" fill-rule="nonzero" d="M135.309938,55.2411837 L135.309938,75.3040937 L79.0580686,75.3040937 L79.0580686,55.2411837 C79.0580686,52.4657 80.1615008,49.8040799 82.1252675,47.8427206 C84.0890341,45.8813612 86.7520057,44.7811925 89.5274873,44.7845912 L124.840519,44.7845912 C130.618343,44.7828254 135.304624,49.4633618 135.309938,55.2411837 L135.309938,55.2411837 Z"/>
    <path fill="url(#icon-msg-b)" fill-rule="nonzero" d="M89.5691982,46.5236199 L89.5691982,46.5236199 C94.5716098,46.5236199 98.6268657,50.5788758 98.6268657,55.5812874 L98.6268657,75.1853783 L80.5115306,75.1853783 L80.5115306,55.5812874 C80.5115306,50.5788758 84.5667865,46.5236199 89.5691982,46.5236199 L89.5691982,46.5236199 Z"/>
    <path fill="url(#icon-msg-c)" fill-rule="nonzero" d="M135.313146,55.2379752 L135.313146,75.3008852 L100.661071,75.3008852 L100.661071,54.0636549 C99.6247171,48.5161142 95.7199416,45.9653365 92.504999,44.7910141 L124.846936,44.7910141 C130.621217,44.7874693 135.306062,49.4636973 135.313146,55.2379752 Z"/>
    <rect width="39.657" height="2.878" x="60.994" y="72.426" fill="#BDD657" fill-rule="nonzero" rx="1.439"/>
    <rect width="39.657" height="2.878" x="60.994" y="72.426" fill="url(#icon-msg-d)" fill-rule="nonzero" rx="1.439"/>
    <path fill="#BDD657" fill-rule="nonzero" d="M90.1531498,116.976423 C85.3756553,117.833099 80.6334546,118.936832 75.8046237,119.405277 C72.6666858,119.710087 69.2046867,119.867305 66.9330507,122.049102 C66.3895415,122.508932 66.0296515,123.148989 65.9191566,123.852293 C65.7908156,125.363509 67.3662016,126.419114 68.7779528,126.97098 C72.8912826,128.597702 77.3639671,129.062939 81.7821067,129.345289 C88.9756209,129.8009 96.1883863,129.810525 103.397943,129.816942 L124.872604,129.836193 C131.209442,129.836193 138.245739,129.579511 142.789011,125.154955 C143.687398,124.279027 144.479904,123.200963 144.633913,121.946429 C144.884178,119.931475 143.350503,118.032028 141.505601,117.188186 C138.297075,115.725098 133.506746,116.029908 130.015871,115.641676 C125.476877,115.141146 120.919701,114.864144 116.344344,114.810668 C107.565232,114.706419 98.7958956,115.431557 90.1531498,116.976423 L90.1531498,116.976423 Z" opacity=".24"/>
    <path fill="#BDD657" fill-rule="nonzero" d="M120.252328 58.2860744C120.175323 58.5427565 119.931475 59.3224282 119.883347 59.6047784L119.113301 62.447532C119.078979 62.5718919 119.061709 62.7003377 119.061965 62.8293465 119.053977 62.9166469 119.085206 63.002981 119.147194 63.0649695 119.209183 63.126958 119.295517 63.1581868 119.382817 63.1501991 119.679242 63.1303751 119.962004 63.0181679 120.191366 62.8293465 120.875731 62.214549 121.254792 61.3296831 121.227719 60.4101183 121.255476 59.2903531 120.697264 58.2371703 119.755006 57.6315352 119.052357 57.2527577 118.261945 57.0667782 117.464119 57.0925029 114.76254 57.0925029 112.86951 58.8860687 112.86951 61.4208039 112.86951 63.8785344 114.570029 65.4892142 117.143266 65.4892142 117.805822 65.4893119 118.464955 65.3942239 119.100467 65.206864 119.608802 65.0518495 120.091919 64.8238012 120.534678 64.5298651L121.31435 65.6560575C120.818972 65.9806963 120.278393 66.2304438 119.710087 66.3972269 118.830865 66.6688921 117.915909 66.8073251 116.995674 66.8079182 115.192483 66.8079182 113.787149 66.2945541 112.773255 65.2838686 111.790964 64.2717581 111.255808 62.9078596 111.287707 61.4978085 111.249714 60.0102403 111.813019 58.5701693 112.850259 57.5031942 114.027788 56.3256653 115.574297 55.7481307 117.560375 55.7481307 120.541095 55.7481307 122.665139 57.6732461 122.665139 60.3427393 122.68797 61.4926636 122.250138 62.6039937 121.449108 63.4293408 120.820167 64.0800749 119.960289 64.4569917 119.055548 64.4785287 118.62753 64.5092868 118.213135 64.3208154 117.955023 63.9779987 117.886528 63.8573399 117.848015 63.7219943 117.842725 63.58335 117.431693 64.1101606 116.794034 64.4093238 116.126164 64.3886899 114.858796 64.3886899 114.053456 63.4421749 114.053456 61.9822958 114.053456 59.8197496 115.474833 58.0261839 117.175352 58.0261839 117.890853 58.0261839 118.250208 58.2058613 118.596728 58.7448936L118.725069 58.2957 120.252328 58.2860744zM117.61492 62.0881772C117.924386 61.4757218 118.098379 60.8038233 118.125075 60.1181425 118.125075 59.5919443 117.829891 59.235798 117.383906 59.235798 116.937921 59.235798 116.450225 59.5566505 116.129372 60.1566448 115.814117 60.7509753 115.638545 61.4093712 115.616008 62.0817601 115.616008 62.758759 115.87269 63.1181138 116.360386 63.1181138 116.848082 63.1181138 117.294067 62.7395078 117.61492 62.0881772zM43.3343455 43.4209757C43.2573409 42.0862291 43.4145587 40.687312 42.8659008 39.4680723 42.3424799 38.4278976 41.4736092 37.6021302 40.4081703 37.1322657 39.3490233 36.6701302 38.2461855 36.3154163 37.1162231 36.0734523 34.2120924 35.3260158 31.3564993 34.4012965 28.5655026 33.3044948 28.8478529 35.3001977 30.4906179 36.7953706 32.0018334 38.1172831 31.6590833 38.1924396 31.3329009 38.3294362 31.0392758 38.5215573 30.7453469 38.7233026 30.5833675 39.0681224 30.6157504 39.4231529 30.6810267 39.6721085 30.8196457 39.8956875 31.0136076 40.0648581 31.644937 40.6948574 32.4375261 41.138885 33.3044948 41.3482683L30.9526456 42.3108259C30.8390447 42.3439309 30.7397021 42.4139223 30.6702954 42.5097545 30.5676225 42.6926404 30.7055891 42.9140287 30.8563898 43.0616209 31.9857908 44.1653537 33.7921907 44.0498467 35.3483256 43.8605437 34.5817989 44.225622 33.9040464 44.7533711 33.3622483 45.407053 33.284528 45.4794727 33.24432 45.5835404 33.2531584 45.6894033 33.2884522 45.8145358 33.4392529 45.8562466 33.5740109 45.8754978 34.956064 46.0690688 36.3646037 45.8584565 37.6295872 45.2690864 37.257885 45.562661 36.9683199 45.9472742 36.7889535 46.3856533 36.7347548 46.4857377 36.7347548 46.6064215 36.7889535 46.7065059 36.8535654 46.7662992 36.9383507 46.7995258 37.0263844 46.7995531 38.1575002 46.9098884 39.2880359 46.5839268 40.186782 45.8883319 40.2252843 46.6968803 40.9119088 47.3578365 41.6787464 47.6209356 42.4613837 47.8326255 43.2783855 47.8860742 44.081932 47.7781534 45.6861947 47.665855 44.7236371 46.7417996 44.1749792 46.0583837 43.6362084 45.2836452 43.3432746 44.3645933 43.3343455 43.4209757z"/>
    <path fill="url(#icon-msg-e)" fill-rule="nonzero" d="M43.3343455,43.4209757 C43.2573409,42.0862291 43.4145587,40.687312 42.8659008,39.4680723 C42.3424799,38.4278976 41.4736092,37.6021302 40.4081703,37.1322657 C39.3490233,36.6701302 38.2461855,36.3154163 37.1162231,36.0734523 C34.2120924,35.3260158 31.3564993,34.4012965 28.5655026,33.3044948 C28.8478529,35.3001977 30.4906179,36.7953706 32.0018334,38.1172831 C31.6590833,38.1924396 31.3329009,38.3294362 31.0392758,38.5215573 C30.7453469,38.7233026 30.5833675,39.0681224 30.6157504,39.4231529 C30.6810267,39.6721085 30.8196457,39.8956875 31.0136076,40.0648581 C31.644937,40.6948574 32.4375261,41.138885 33.3044948,41.3482683 L30.9526456,42.3108259 C30.8390447,42.3439309 30.7397021,42.4139223 30.6702954,42.5097545 C30.5676225,42.6926404 30.7055891,42.9140287 30.8563898,43.0616209 C31.9857908,44.1653537 33.7921907,44.0498467 35.3483256,43.8605437 C34.5817989,44.225622 33.9040464,44.7533711 33.3622483,45.407053 C33.284528,45.4794727 33.24432,45.5835404 33.2531584,45.6894033 C33.2884522,45.8145358 33.4392529,45.8562466 33.5740109,45.8754978 C34.956064,46.0690688 36.3646037,45.8584565 37.6295872,45.2690864 C37.257885,45.562661 36.9683199,45.9472742 36.7889535,46.3856533 C36.7347548,46.4857377 36.7347548,46.6064215 36.7889535,46.7065059 C36.8535654,46.7662992 36.9383507,46.7995258 37.0263844,46.7995531 C38.1575002,46.9098884 39.2880359,46.5839268 40.186782,45.8883319 C40.2252843,46.6968803 40.9119088,47.3578365 41.6787464,47.6209356 C42.4613837,47.8326255 43.2783855,47.8860742 44.081932,47.7781534 C45.6861947,47.665855 44.7236371,46.7417996 44.1749792,46.0583837 C43.6362084,45.2836452 43.3432746,44.3645933 43.3343455,43.4209757 Z"/>
    <path fill="#BDD657" fill-rule="nonzero" d="M40.9472026,43.3183029 C40.8958662,42.4070817 41.0017475,41.4509411 40.62635,40.619933 C40.2701149,39.9055107 39.6754098,39.338044 38.9450826,39.0156702 C38.2221988,38.700414 37.4698718,38.4575199 36.6991148,38.2905434 C34.7143189,37.7807859 32.763007,37.1485651 30.8563898,36.3975134 C31.0456928,37.7611367 32.1590512,38.7814478 33.201822,39.679835 C32.9730413,39.734038 32.7557454,39.8285617 32.5601169,39.9589767 C32.3585588,40.0961582 32.2478502,40.3323365 32.2713496,40.5750136 C32.3147086,40.7444964 32.4087306,40.8967226 32.5408657,41.0113731 C32.973344,41.4410666 33.5146023,41.7449698 34.1066262,41.8905091 L32.5023634,42.5514653 C32.4234912,42.5741912 32.3545552,42.6227855 32.3066434,42.6894319 C32.2360558,42.8145644 32.3323116,42.9653651 32.4349844,43.0648294 C33.208239,43.8220414 34.4435214,43.7418283 35.5151689,43.6102787 C34.9915201,43.8609148 34.5284713,44.2221585 34.1579626,44.6690922 C34.1045052,44.7181187 34.0771783,44.7894063 34.0841665,44.8616037 C34.1066262,44.9450254 34.209299,44.9739021 34.2959292,44.9867362 C35.2405735,45.1214851 36.204009,44.9776388 37.0680952,44.5728364 C36.8146092,44.7741827 36.6168903,45.0370716 36.4937692,45.3364655 C36.4648924,45.4102616 36.4392242,45.5033088 36.4937692,45.5642708 C36.5368729,45.6053348 36.5946985,45.6273086 36.6541954,45.6252328 C37.4276311,45.7020844 38.2012093,45.4805702 38.8167416,45.0059873 C38.8889655,45.5676316 39.2890874,46.0321264 39.8338442,46.1867247 C40.3689425,46.3306925 40.9271729,46.3677624 41.4766093,46.2958146 C42.5835506,46.21881 41.9097602,45.5867305 41.5407798,45.1182857 C41.1661785,44.5917534 40.9592909,43.9643806 40.9472026,43.3183029 Z"/>
    <path fill="url(#icon-msg-f)" fill-rule="nonzero" d="M40.9472026,43.3183029 C40.8958662,42.4070817 41.0017475,41.4509411 40.62635,40.619933 C40.2701149,39.9055107 39.6754098,39.338044 38.9450826,39.0156702 C38.2221988,38.700414 37.4698718,38.4575199 36.6991148,38.2905434 C34.7143189,37.7807859 32.763007,37.1485651 30.8563898,36.3975134 C31.0456928,37.7611367 32.1590512,38.7814478 33.201822,39.679835 C32.9730413,39.734038 32.7557454,39.8285617 32.5601169,39.9589767 C32.3585588,40.0961582 32.2478502,40.3323365 32.2713496,40.5750136 C32.3147086,40.7444964 32.4087306,40.8967226 32.5408657,41.0113731 C32.973344,41.4410666 33.5146023,41.7449698 34.1066262,41.8905091 L32.5023634,42.5514653 C32.4234912,42.5741912 32.3545552,42.6227855 32.3066434,42.6894319 C32.2360558,42.8145644 32.3323116,42.9653651 32.4349844,43.0648294 C33.208239,43.8220414 34.4435214,43.7418283 35.5151689,43.6102787 C34.9915201,43.8609148 34.5284713,44.2221585 34.1579626,44.6690922 C34.1045052,44.7181187 34.0771783,44.7894063 34.0841665,44.8616037 C34.1066262,44.9450254 34.209299,44.9739021 34.2959292,44.9867362 C35.2405735,45.1214851 36.204009,44.9776388 37.0680952,44.5728364 C36.8146092,44.7741827 36.6168903,45.0370716 36.4937692,45.3364655 C36.4648924,45.4102616 36.4392242,45.5033088 36.4937692,45.5642708 C36.5368729,45.6053348 36.5946985,45.6273086 36.6541954,45.6252328 C37.4276311,45.7020844 38.2012093,45.4805702 38.8167416,45.0059873 C38.8889655,45.5676316 39.2890874,46.0321264 39.8338442,46.1867247 C40.3689425,46.3306925 40.9271729,46.3677624 41.4766093,46.2958146 C42.5835506,46.21881 41.9097602,45.5867305 41.5407798,45.1182857 C41.1661785,44.5917534 40.9592909,43.9643806 40.9472026,43.3183029 Z"/>
    <path fill="#BDD657" fill-rule="nonzero" d="M64.9309308,40.3857106 C65.0079354,39.050964 64.8507176,37.6520469 65.396167,36.4328072 C65.9197963,35.3908844 66.7899426,34.5638483 67.857106,34.0937921 C68.9166162,33.6326183 70.0193564,33.2779358 71.1490532,33.0349787 C74.0521451,32.2875789 76.9066729,31.3628576 79.6965652,30.2660211 C79.4174234,32.2585155 77.7874925,33.7536884 76.2634429,35.0788094 C76.6067009,35.154046 76.9330567,35.2922033 77.2260005,35.4862921 C77.5227044,35.6841707 77.6856821,36.0298809 77.6495259,36.3846793 C77.5876041,36.6342886 77.4497061,36.858513 77.2548772,37.0263844 C76.6227472,37.6553243 75.8304733,38.0991752 74.96399,38.3097946 L77.3126307,39.2723523 C77.4278626,39.3056544 77.5284799,39.3768779 77.5981895,39.4744894 C77.7008623,39.6573753 77.5596872,39.8787636 77.412095,40.0231472 C76.2794855,41.1300885 74.4730856,41.0145816 72.9041167,40.8220701 C73.6701428,41.1893898 74.3476581,41.7180488 74.8901939,42.3717879 C74.9702716,42.4424227 75.009963,42.5482663 74.9960753,42.6541381 C74.96399,42.7760621 74.8131893,42.8177729 74.6752227,42.8370241 C73.293481,43.0312243 71.8850598,42.821744 70.6196465,42.2338213 C70.9929457,42.5265843 71.2837344,42.9113541 71.4634887,43.3503882 C71.5208035,43.4496603 71.5208035,43.5719686 71.4634887,43.6712407 C71.400061,43.7325542 71.3141865,43.7650473 71.2260578,43.7610794 C70.0954223,43.8716645 68.9651694,43.5469319 68.0656602,42.8530667 C68.0303664,43.6616151 67.3405334,44.3225714 66.5769043,44.5856705 C65.7937469,44.7944342 64.9771177,44.8467683 64.1737187,44.7396797 C62.5502048,44.6305899 63.5320136,43.703326 64.0806715,43.01991 C64.6742487,42.2883662 64.8763858,41.2969318 64.9309308,40.3857106 Z"/>
    <path fill="url(#icon-msg-g)" fill-rule="nonzero" d="M64.9309308,40.3857106 C65.0079354,39.050964 64.8507176,37.6520469 65.396167,36.4328072 C65.9197963,35.3908844 66.7899426,34.5638483 67.857106,34.0937921 C68.9166162,33.6326183 70.0193564,33.2779358 71.1490532,33.0349787 C74.0521451,32.2875789 76.9066729,31.3628576 79.6965652,30.2660211 C79.4174234,32.2585155 77.7874925,33.7536884 76.2634429,35.0788094 C76.6067009,35.154046 76.9330567,35.2922033 77.2260005,35.4862921 C77.5227044,35.6841707 77.6856821,36.0298809 77.6495259,36.3846793 C77.5876041,36.6342886 77.4497061,36.858513 77.2548772,37.0263844 C76.6227472,37.6553243 75.8304733,38.0991752 74.96399,38.3097946 L77.3126307,39.2723523 C77.4278626,39.3056544 77.5284799,39.3768779 77.5981895,39.4744894 C77.7008623,39.6573753 77.5596872,39.8787636 77.412095,40.0231472 C76.2794855,41.1300885 74.4730856,41.0145816 72.9041167,40.8220701 C73.6701428,41.1893898 74.3476581,41.7180488 74.8901939,42.3717879 C74.9702716,42.4424227 75.009963,42.5482663 74.9960753,42.6541381 C74.96399,42.7760621 74.8131893,42.8177729 74.6752227,42.8370241 C73.293481,43.0312243 71.8850598,42.821744 70.6196465,42.2338213 C70.9929457,42.5265843 71.2837344,42.9113541 71.4634887,43.3503882 C71.5208035,43.4496603 71.5208035,43.5719686 71.4634887,43.6712407 C71.400061,43.7325542 71.3141865,43.7650473 71.2260578,43.7610794 C70.0954223,43.8716645 68.9651694,43.5469319 68.0656602,42.8530667 C68.0303664,43.6616151 67.3405334,44.3225714 66.5769043,44.5856705 C65.7937469,44.7944342 64.9771177,44.8467683 64.1737187,44.7396797 C62.5502048,44.6305899 63.5320136,43.703326 64.0806715,43.01991 C64.6742487,42.2883662 64.8763858,41.2969318 64.9309308,40.3857106 Z"/>
    <path fill="#BDD657" fill-rule="nonzero" d="M67.3180737,40.2830378 C67.3694101,39.3718165 67.2635288,38.4156759 67.6389263,37.5814593 C67.996258,36.8678469 68.5906241,36.3007037 69.3201937,35.9771966 C70.0430231,35.6625822 70.795393,35.4207491 71.5661615,35.2552783 C73.5504532,34.7424913 75.5016458,34.1092377 77.4088865,33.3590397 C77.2163749,34.7226631 76.1030166,35.7461827 75.0602458,36.6445699 C75.2890507,36.6970562 75.50646,36.7905422 75.7019509,36.9205031 C75.903642,37.0578327 76.0153264,37.2934745 75.9939267,37.5365399 C75.9495307,37.7072574 75.8544444,37.8605142 75.7212021,37.9761079 C75.2895329,38.4062109 74.7478421,38.709247 74.1554416,38.8520354 L75.7597044,39.5162002 C75.837497,39.537571 75.9055089,39.5851794 75.9522159,39.6509583 C76.0228034,39.7760908 75.9265477,39.9301 75.8270834,40.0295643 C75.0538287,40.7835678 73.8185464,40.7033546 72.7468989,40.5750136 C73.2702646,40.8246335 73.7324697,41.1860735 74.1008967,41.633827 C74.1561755,41.6815948 74.1838771,41.7538599 74.1746928,41.8263386 C74.1522331,41.9097602 74.0495603,41.9386369 73.9629301,41.9514711 C73.0182936,42.0841651 72.0554431,41.9404061 71.190764,41.5375713 C71.4458404,41.738116 71.6447799,42.0011582 71.7682986,42.3012003 C71.8065337,42.3711841 71.8065337,42.4558133 71.7682986,42.5257971 C71.7245341,42.5682159 71.6655968,42.5913286 71.6046638,42.5899676 C70.8319684,42.6640923 70.0600037,42.4415646 69.4453262,41.9675137 C69.3718897,42.5293052 68.9725263,42.9941793 68.4282236,43.1514596 C67.8920828,43.2959611 67.3324861,43.3319585 66.78225,43.2573409 C65.6753087,43.1835448 66.3523076,42.5482568 66.721288,42.0830206 C67.094893,41.5557765 67.3026851,40.9290488 67.3180737,40.2830378 L67.3180737,40.2830378 Z"/>
    <path fill="url(#icon-msg-h)" fill-rule="nonzero" d="M67.3180737,40.2830378 C67.3694101,39.3718165 67.2635288,38.4156759 67.6389263,37.5814593 C67.996258,36.8678469 68.5906241,36.3007037 69.3201937,35.9771966 C70.0430231,35.6625822 70.795393,35.4207491 71.5661615,35.2552783 C73.5504532,34.7424913 75.5016458,34.1092377 77.4088865,33.3590397 C77.2163749,34.7226631 76.1030166,35.7461827 75.0602458,36.6445699 C75.2890507,36.6970562 75.50646,36.7905422 75.7019509,36.9205031 C75.903642,37.0578327 76.0153264,37.2934745 75.9939267,37.5365399 C75.9495307,37.7072574 75.8544444,37.8605142 75.7212021,37.9761079 C75.2895329,38.4062109 74.7478421,38.709247 74.1554416,38.8520354 L75.7597044,39.5162002 C75.837497,39.537571 75.9055089,39.5851794 75.9522159,39.6509583 C76.0228034,39.7760908 75.9265477,39.9301 75.8270834,40.0295643 C75.0538287,40.7835678 73.8185464,40.7033546 72.7468989,40.5750136 C73.2702646,40.8246335 73.7324697,41.1860735 74.1008967,41.633827 C74.1561755,41.6815948 74.1838771,41.7538599 74.1746928,41.8263386 C74.1522331,41.9097602 74.0495603,41.9386369 73.9629301,41.9514711 C73.0182936,42.0841651 72.0554431,41.9404061 71.190764,41.5375713 C71.4458404,41.738116 71.6447799,42.0011582 71.7682986,42.3012003 C71.8065337,42.3711841 71.8065337,42.4558133 71.7682986,42.5257971 C71.7245341,42.5682159 71.6655968,42.5913286 71.6046638,42.5899676 C70.8319684,42.6640923 70.0600037,42.4415646 69.4453262,41.9675137 C69.3718897,42.5293052 68.9725263,42.9941793 68.4282236,43.1514596 C67.8920828,43.2959611 67.3324861,43.3319585 66.78225,43.2573409 C65.6753087,43.1835448 66.3523076,42.5482568 66.721288,42.0830206 C67.094893,41.5557765 67.3026851,40.9290488 67.3180737,40.2830378 L67.3180737,40.2830378 Z"/>
    <rect width="24.163" height="14.894" x="42.792" y="45.221" fill="#BDD657" fill-rule="nonzero" transform="rotate(-5.91 54.874 52.668)"/>
    <polygon fill="url(#icon-msg-i)" fill-rule="nonzero" points="67.658 58.828 43.623 61.315 42.089 46.501 66.564 43.777"/>
    <polygon fill="url(#icon-msg-j)" fill-rule="nonzero" points="42.089 46.501 55.414 57.49 66.237 44.223"/>
    <circle cx="66.866" cy="43.864" r="3.366" fill="#BDD657" fill-rule="nonzero"/>
    <circle cx="66.933" cy="43.909" r="3.366" fill="url(#icon-msg-k)" fill-rule="nonzero"/>
    <g transform="translate(82.78 49.732)">
      <mask id="icon-msg-m" fill="#fff">
        <use xlink:href="#icon-msg-l"/>
      </mask>
      <g fill-rule="nonzero" mask="url(#icon-msg-m)">
        <g transform="translate(1.925 -.32)">
          <rect width="21.933" height="13.521" x="3.719" y="9.511" fill="#BDD657" transform="rotate(9.62 14.686 16.272)"/>
          <polygon fill="url(#icon-msg-n)" points="24.362 24.776 2.734 21.109 4.996 7.781 27.064 11.345"/>
          <polygon fill="url(#icon-msg-o)" points="4.996 7.781 13.976 20.631 26.669 11.657"/>
          <rect width="16.023" height="9.879" x=".72" y="1.418" fill="#BDD657" transform="rotate(9.62 8.732 6.357)"/>
          <polygon fill="url(#icon-msg-p)" points="15.802 12.571 .003 9.892 1.656 .154 17.775 2.759"/>
          <polygon fill="url(#icon-msg-q)" points="1.656 .154 8.217 9.542 17.486 2.987"/>
        </g>
      </g>
    </g>
  </g>
</svg>
