<?xml version="1.0" encoding="UTF-8"?>
<svg width="70px" height="70px" viewBox="0 0 70 70" version="1.1" xmlns="http://www.w3.org/2000/svg" xmlns:xlink="http://www.w3.org/1999/xlink">
    <!-- Generator: Sketch 63.1 (92452) - https://sketch.com -->
    <title>line-green</title>
    <desc>Created with Sketch.</desc>
    <defs>
        <rect id="path-1" x="0" y="0" width="70" height="70"></rect>
    </defs>
    <g id="line-green" stroke="none" stroke-width="1" fill="none" fill-rule="evenodd">
        <g id="Combined-Shape">
            <mask id="mask-2" fill="white">
                <use xlink:href="#path-1"></use>
            </mask>
            <g id="Mask"></g>
            <path d="M-7,65.419 L-2.38,70 L-6.99969897,70.000301 L-7,65.419 Z M-7,58.479 L4.62,70 L1.881,70 L-7,61.194 L-7,58.479 Z M-7,51.538 L11.62,70 L8.881,70 L-7,54.254 L-7,51.538 Z M-7,44.598 L18.62,70 L15.881,70 L-7,47.313 L-7,44.598 Z M-7,37.657 L25.62,70 L22.881,70 L-7,40.373 L-7,37.657 Z M-7,30.717 L32.62,70 L29.881,70 L-7,33.432 L-7,30.717 Z M-7,23.776 L39.62,70 L36.881,70 L-7,26.491 L-7,23.776 Z M-7,16.836 L46.62,70 L43.881,70 L-7,19.551 L-7,16.836 Z M-7,9.895 L53.62,70 L50.881,70 L-7,12.61 L-7,9.895 Z M-7,2.955 L60.62,70 L57.881,70 L-7,5.67 L-7,2.955 Z M-2.981,0 L67.62,70 L64.881,70 L-5.718,0 L-2.981,0 Z M4.019,0 L74.62,70 L71.881,70 L1.281,0 L4.019,0 Z M11.019,0 L81.62,70 L78.881,70 L8.281,0 L11.019,0 Z M18.019,0 L88.62,70 L85.881,70 L15.281,0 L18.019,0 Z M25.019,0 L95.62,70 L92.881,70 L22.281,0 L25.019,0 Z M32.019,0 L102.62,70 L99.881,70 L29.281,0 L32.019,0 Z M39.019,0 L109.62,70 L106.881,70 L36.281,0 L39.019,0 Z M46.019,0 L116.62,70 L113.881,70 L43.281,0 L46.019,0 Z M53.019,0 L123.62,70 L120.881,70 L50.281,0 L53.019,0 Z M60.019,0 L130.62,70 L127.881,70 L57.281,0 L60.019,0 Z M67.019,0 L137.62,70 L134.881,70 L64.281,0 L67.019,0 Z M74.019,0 L144.62,70 L141.881,70 L71.281,0 L74.019,0 Z M81.019,0 L151.62,70 L148.881,70 L78.281,0 L81.019,0 Z M88.019,0 L158.62,70 L155.881,70 L85.281,0 L88.019,0 Z M95.019,0 L165.62,70 L162.881,70 L92.281,0 L95.019,0 Z M102.019,0 L172.62,70 L169.881,70 L99.281,0 L102.019,0 Z M109.019,0 L179.62,70 L176.881,70 L106.281,0 L109.019,0 Z M116.019,0 L186.62,70 L183.881,70 L113.281,0 L116.019,0 Z M123.019,0 L193.62,70 L190.881,70 L120.281,0 L123.019,0 Z M130.019,0 L200.62,70 L197.881,70 L127.281,0 L130.019,0 Z M137.019,0 L207.62,70 L204.881,70 L134.281,0 L137.019,0 Z M144.019,0 L214.62,70 L211.881,70 L141.281,0 L144.019,0 Z M151.019,0 L221.62,70 L218.881,70 L148.281,0 L151.019,0 Z M158.019,0 L228.62,70 L225.881,70 L155.281,0 L158.019,0 Z M165.019,0 L235.62,70 L232.881,70 L162.281,0 L165.019,0 Z M172.019,0 L242.62,70 L239.881,70 L169.281,0 L172.019,0 Z M179.019,0 L249.62,70 L246.881,70 L176.281,0 L179.019,0 Z M186.019,0 L256.62,70 L253.881,70 L183.281,0 L186.019,0 Z M193.019,0 L263.62,70 L260.881,70 L190.281,0 L193.019,0 Z M200.019,0 L270.62,70 L267.881,70 L197.281,0 L200.019,0 Z M207.019,0 L277.62,70 L274.881,70 L204.281,0 L207.019,0 Z M214.019,0 L284.62,70 L281.881,70 L211.281,0 L214.019,0 Z M221.019,0 L291.62,70 L288.881,70 L218.281,0 L221.019,0 Z M228.019,0 L298.62,70 L295.881,70 L225.281,0 L228.019,0 Z M235.019,0 L305.62,70 L302.881,70 L232.281,0 L235.019,0 Z M242.019,0 L312.62,70 L309.881,70 L239.281,0 L242.019,0 Z M249.019,0 L319.62,70 L316.881,70 L246.281,0 L249.019,0 Z M256.019,0 L326.62,70 L323.881,70 L253.281,0 L256.019,0 Z M263.019,0 L333.62,70 L330.881,70 L260.281,0 L263.019,0 Z M270.019,0 L340.62,70 L337.881,70 L267.281,0 L270.019,0 Z M277.019,0 L347.62,70 L344.881,70 L274.281,0 L277.019,0 Z M284.019,0 L354.62,70 L351.881,70 L281.281,0 L284.019,0 Z M291.019,0 L361.62,70 L358.881,70 L288.281,0 L291.019,0 Z M298.019,0 L368.62,70 L365.881,70 L295.281,0 L298.019,0 Z M305.019,0 L375.62,70 L372.881,70 L302.281,0 L305.019,0 Z M312.019,0 L382.62,70 L379.881,70 L309.281,0 L312.019,0 Z M319.019,0 L389.62,70 L386.881,70 L316.281,0 L319.019,0 Z M326.019,0 L396.62,70 L393.881,70 L323.281,0 L326.019,0 Z M333.019,0 L403.62,70 L400.881,70 L330.281,0 L333.019,0 Z M340.019,0 L410.62,70 L407.881,70 L337.281,0 L340.019,0 Z M347.019,0 L417.62,70 L414.881,70 L344.281,0 L347.019,0 Z M354.019,0 L420,65.419 L420,68.135 L351.281,0 L354.019,0 Z M361.019,0 L420,58.479 L420,61.195 L358.281,0 L361.019,0 Z M368.019,0 L420,51.538 L420,54.254 L365.281,0 L368.019,0 Z M375.019,0 L420,44.598 L420,47.314 L372.281,0 L375.019,0 Z M382.019,0 L420,37.658 L420,40.373 L379.281,0 L382.019,0 Z M389.019,0 L420,30.717 L420,33.433 L386.281,0 L389.019,0 Z M396.019,0 L420,23.777 L420,26.492 L393.281,0 L396.019,0 Z M403.019,0 L420,16.837 L420,19.552 L400.281,0 L403.019,0 Z M410.019,0 L420,9.896 L420,12.611 L407.281,0 L410.019,0 Z M420.000301,0.000301028227 L420,5.671 L414.281,0 L420.000301,0.000301028227 Z" fill="#E5EFBD" mask="url(#mask-2)"></path>
        </g>
    </g>
</svg>