<svg height="37" viewBox="0 0 40 37" width="40" xmlns="http://www.w3.org/2000/svg" xmlns:xlink="http://www.w3.org/1999/xlink"><linearGradient id="a" x1="50%" x2="50%" y1="0%" y2="100%"><stop offset="0" stop-color="#5c24ae"/><stop offset="1" stop-color="#30135a"/></linearGradient><linearGradient id="b" x1="50%" x2="50%" y1="-17.303%" y2="100%"><stop offset="0" stop-color="#7331d4"/><stop offset="1" stop-color="#461b84"/></linearGradient><linearGradient id="c" x1="50%" x2="50%" y1="0%" y2="100%"><stop offset="0" stop-color="#905bdd"/><stop offset="1" stop-color="#5521a0"/></linearGradient><g fill="none" fill-rule="evenodd"><path d="m0-1h40v40h-40z"/><g fill-rule="nonzero"><g transform="translate(0 10.06865)"><path d="m16.2913959 1.04379863-14.73684212 9.90366137c-2.02631579 1.3617391-2.02631579 3.5900686 0 4.9518077l14.73684212 9.9036614c2.0263158 1.3617391 5.3421052 1.3617391 7.368421 0l14.7368421-9.9036614c2.0263158-1.3617391 2.0263158-3.5900686 0-4.9518077l-14.7368421-9.90366137c-2.0263158-1.36173913-5.3421052-1.36173913-7.368421 0z" fill="#000"/><path d="m16.2913959 1.04379863-14.73684212 9.90366137c-2.02631579 1.3617391-2.02631579 3.5900686 0 4.9518077l14.73684212 9.9036614c2.0263158 1.3617391 5.3421052 1.3617391 7.368421 0l14.7368421-9.9036614c2.0263158-1.3617391 2.0263158-3.5900686 0-4.9518077l-14.7368421-9.90366137c-2.0263158-1.36173913-5.3421052-1.36173913-7.368421 0z" fill="url(#a)"/></g><g transform="translate(0 5.034325)"><path d="m16.2913959 1.04379863-14.73684212 9.90366137c-2.02631579 1.3617391-2.02631579 3.5900686 0 4.9518077l14.73684212 9.9036614c2.0263158 1.3617391 5.3421052 1.3617391 7.368421 0l14.7368421-9.9036614c2.0263158-1.3617391 2.0263158-3.5900686 0-4.9518077l-14.7368421-9.90366137c-2.0263158-1.36173913-5.3421052-1.36173913-7.368421 0z" fill="#000"/><path d="m16.2913959 1.04379863-14.73684212 9.90366137c-2.02631579 1.3617391-2.02631579 3.5900686 0 4.9518077l14.73684212 9.9036614c2.0263158 1.3617391 5.3421052 1.3617391 7.368421 0l14.7368421-9.9036614c2.0263158-1.3617391 2.0263158-3.5900686 0-4.9518077l-14.7368421-9.90366137c-2.0263158-1.36173913-5.3421052-1.36173913-7.368421 0z" fill="url(#b)"/></g><path d="m16.2913959 1.04379863-14.73684212 9.90366137c-2.02631579 1.3617391-2.02631579 3.5900686 0 4.9518077l14.73684212 9.9036614c2.0263158 1.3617391 5.3421052 1.3617391 7.368421 0l14.7368421-9.9036614c2.0263158-1.3617391 2.0263158-3.5900686 0-4.9518077l-14.7368421-9.90366137c-2.0263158-1.36173913-5.3421052-1.36173913-7.368421 0z" fill="#000"/><path d="m16.2913959 1.04379863-14.73684212 9.90366137c-2.02631579 1.3617391-2.02631579 3.5900686 0 4.9518077l14.73684212 9.9036614c2.0263158 1.3617391 5.3421052 1.3617391 7.368421 0l14.7368421-9.9036614c2.0263158-1.3617391 2.0263158-3.5900686 0-4.9518077l-14.7368421-9.90366137c-2.0263158-1.36173913-5.3421052-1.36173913-7.368421 0z" fill="url(#c)"/><path d="m22.1177574 19.4355606-11.4524942-7.6964302 4.484302-3.01359264c1.9601831-1.31734554 4.4297025-1.44086957 6.1439359-.28883295 1.1919451.80100686 1.4285584 2.13340959.5237529 3.00796339l.0635698.042746c1.7539588-.9122197 3.8492906-.8479176 5.3728146.1759725 2.0158353 1.3546911 1.7698399 3.1313044-.6664073 4.7685584zm-5.0874599-5.3389931 2.285675-1.5360183c1.6903891-1.1360183 1.9363845-2.2081922.6967506-3.0412357-1.1349199-.76270023-2.5395881-.66146453-3.9291075.27231121l-2.7295653 1.83437069zm8.0792677 1.6321739c1.7221968-1.1573913 1.9284211-2.2348741.6042563-3.1247597-1.324119-.8898856-2.9365217-.7145995-4.7616476.5119451l-2.6905721 1.8081464 4.0237987 2.7040733z" fill="#fff"/></g></g></svg>