<?xml version="1.0" encoding="UTF-8"?>
<svg width="40px" height="37px" viewBox="0 0 40 37" version="1.1" xmlns="http://www.w3.org/2000/svg" xmlns:xlink="http://www.w3.org/1999/xlink">
    <!-- Generator: Sketch 63.1 (92452) - https://sketch.com -->
    <title>skill_sketch</title>
    <desc>Created with Sketch.</desc>
    <g id="Portfolio" stroke="none" stroke-width="1" fill="none" fill-rule="evenodd">
        <g id="202003" transform="translate(-65.000000, -2652.000000)">
            <g id="skill_sketch" transform="translate(65.000000, 2650.000000)">
                <rect id="Rectangle" x="0" y="0" width="40" height="40"></rect>
                <g id="Group" transform="translate(0.000000, 2.000000)" fill-rule="nonzero">
                    <polygon id="Path" fill="#FDB300" points="8.72727277 1.19445598 20.0000001 0 31.2727273 1.19445598 40 12.9365656 20.0000001 36.2790698 0 12.9365656"></polygon>
                    <g transform="translate(0.000000, 13.023256)" id="Path">
                        <polygon fill="#EA6C00" points="8.08467005 0 19.9596954 23.2499238 0 0"></polygon>
                        <polygon fill="#EA6C00" transform="translate(29.939489, 11.624962) scale(-1, 1) translate(-29.939489, -11.624962) " points="28.0443115 0 39.9193369 23.2499238 19.9596414 0"></polygon>
                        <polygon fill="#FDAD00" points="8.08467005 0 31.8347208 0 19.9596954 23.2499238"></polygon>
                    </g>
                    <g id="Path">
                        <polygon fill="#FDD231" points="19.9596954 0 8.70964467 1.20131844 8.08467005 13.0110529"></polygon>
                        <polygon fill="#FDD231" transform="translate(25.897147, 6.505526) scale(-1, 1) translate(-25.897147, -6.505526) " points="31.8346595 0 20.5846087 1.20131844 19.9596341 13.0110529"></polygon>
                        <polygon fill="#FDAD00" transform="translate(35.564515, 7.106186) scale(-1, 1) translate(-35.564515, -7.106186) " points="31.2096414 13.0110529 39.9193876 1.20131844 39.2943115 13.0110529"></polygon>
                        <polygon fill="#FDAD00" points="0 13.0110529 8.70964467 1.20131844 8.08467005 13.0110529"></polygon>
                        <polygon fill="#FEEEB7" points="19.9596954 0 8.08467005 13.0110529 31.8347208 13.0110529"></polygon>
                    </g>
                </g>
            </g>
        </g>
    </g>
</svg>