<svg height="37" viewBox="0 0 40 37" width="40" xmlns="http://www.w3.org/2000/svg"><g fill="none" fill-rule="evenodd"><path d="m0-2h40v40h-40z"/><g fill-rule="nonzero"><path d="m8.72727277 1.19445598 11.27272733-1.19445598 11.2727272 1.19445598 8.7272727 11.74210962-19.9999999 23.3425042-20.0000001-23.3425042z" fill="#fdb300"/><g transform="translate(0 13.023256)"><path d="m8.08467005 0 11.87502535 23.2499238-19.9596954-23.2499238z" fill="#ea6c00"/><path d="m28.0443115 0 11.8750254 23.2499238-19.9596955-23.2499238z" fill="#ea6c00" transform="matrix(-1 0 0 1 59.878978 0)"/><path d="m8.08467005 0h23.75005075l-11.8750254 23.2499238z" fill="#fdad00"/></g><path d="m19.9596954 0-11.25005073 1.20131844-.62497462 11.80973446z" fill="#fdd231"/><path d="m31.8346595 0-11.2500508 1.20131844-.6249746 11.80973446z" fill="#fdd231" transform="matrix(-1 0 0 1 51.794294 0)"/><path d="m31.2096414 13.0110529 8.7097462-11.80973446-.6250761 11.80973446z" fill="#fdad00" transform="matrix(-1 0 0 1 71.12903 0)"/><path d="m0 13.0110529 8.70964467-11.80973446-.62497462 11.80973446z" fill="#fdad00"/><path d="m19.9596954 0-11.87502535 13.0110529h23.75005075z" fill="#feeeb7"/></g></g></svg>