<svg height="40" viewBox="0 0 40 40" width="40" xmlns="http://www.w3.org/2000/svg"><g fill="none" fill-rule="evenodd"><path d="m0 0h40v40h-40z"/><g fill-rule="nonzero" transform="translate(0 4)"><path d="m6.16535106 22.0589946-2.09223099.7644371-.11134192 6.2235147 7.24221025-2.6456169c-2.48608229-.8325717-4.29912758-2.2999585-5.03863734-4.3423349" fill="#fdbd39"/><path d="m7.26049024 15.4765268-7.26049024 2.6522642 4.07312007 4.6963025 2.09223099-.7644371c-.73784794-2.0357291-.28250935-4.3340257 1.09513918-6.5841296" fill="#f69833"/><path d="m19.4765268 6.49439136c-9.244703 3.37681761-15.20565019 10.34648944-13.31117574 15.56460324l33.47735774-12.22933112c-1.8944745-5.21811383-10.9214791-6.71208974-20.166182-3.33527212" fill="#fecf33"/><path d="m26.3298712 25.3959285c9.244703-3.3768176 15.2156211-10.3149148 13.3111757-15.5646032l-33.47735766 12.2276693c1.90444537 5.2513502 10.92147906 6.7137516 20.16618196 3.3369339" fill="#ee6723"/><path d="m39.6410469 9.82966348-33.47569584 12.22933112c.65475696 1.8080598 3.1557956 2.6987952 6.66223514 2.6987952 3.4200249 0 7.797258-.8458662 12.3606149-2.5126714 9.2447029-3.3768176 15.7474034-8.8458662 14.4528458-12.41545492" fill="#f69833"/><path d="m32.9788118 7.13253012c-3.4183631 0-7.797258.84586622-12.3606149 2.51267138-9.2447029 3.3768176-15.74740338 8.8442044-14.45284584 12.4137931l33.47735774-12.22933112c-.6564188-1.80805982-3.1557956-2.69713336-6.663897-2.69713336" fill="#fdbd39"/><g fill="#ee6723" transform="translate(12.946)"><path d="m18.1836311 29.3776485c-.9854591 0-2.4378895-.8890735-4.3190694-2.6439551-2.2251766-2.0756128-4.77274616-5.1167428-7.17739926-8.5616951-2.40299127-3.4449522-4.37723307-6.8882426-5.56044869-9.69837969-1.28791026-3.06107187-1.47237225-4.94225176-.54673868-5.59368508.21437474-.14624014.46863316-.22102202.72787703-.21437474.75280432 0 2.22185293.56003323 4.93560448 3.2322393l.05982551.05816369-.00830909.08309098c-.01828002.19277109-.03489822.38554217-.0498546.57665144l-.02991275.37723307-.26589115-.26755297c-2.92480266-2.94640632-4.2110511-3.26381388-4.62982966-3.26381388-.11965102 0-.21437474.02326548-.28250935.07145825-.40216037.28250934-.42874948 1.66514333.82093893 4.63149148 1.16161196 2.75862065 3.10760282 6.15039465 5.47901952 9.55047775 2.37307852 3.4017449 4.88242626 6.396344 7.06938096 8.4353968 2.3564603 2.1985874 3.4183631 2.4362277 3.7656834 2.4362277.1196511 0 .2160366-.0249273.2891567-.0764438.423764-.2974657.423764-1.778147-.9688409-4.9721645l-.064811-.1462401.1395929-.0764437c.1395928-.0764437.275862-.1512256.4021603-.2243457l.1678438-.0947237.0781056.1761529c.9871208 2.2633984 1.9110926 5.1400083.699626 5.99086-.2143747.1462401-.4702949.221022-.7312006.2143747zm.0416909-.3489821v.1744911z"/><path d="m13.6086415 25.299543-.0132946.1728292c-.2343166 2.8915663-.8491899 6.3680931-2.4545077 6.5093478-.0332364.0033236-.0664728.0033236-.0980473.0033236-1.09015376 0-2.12214379-1.5621105-3.06439556-4.6414624-.89405899-2.9148317-1.5870378-6.8267553-1.95097632-11.0162027-.36560033-4.1894475-.36061487-8.16285835.01495638-11.18903201.40880765-3.29705027 1.18653926-5.01869547 2.31325301-5.11840465.0332364-.00332364.06813461-.00498546.10137101-.00498546.79102617 0 1.98255088.89572081 3.20232658 5.06688824l-.7960117.15288741c-.4071458-1.3926049-.8508517-2.52596593-1.29123387-3.30702119-.40714583-.71956792-.80432073-1.11674283-1.11508101-1.11674283-.00997092 0-.01994184 0-.03157458.00166182-.48857499.04320731-1.19983382 1.22642293-1.5953469 4.42376402-.36892398 2.97133361-.37390943 6.88658085-.01329456 11.02118825.36061487 4.1362692 1.04196095 7.990029 1.91940174 10.8516825.39218945 1.281263.82260075 2.3381804 1.24636477 3.0544246.38886581.6614043.76609891 1.0253428 1.06024101 1.0253428.0099709 0 .0199418 0 .0299127-.0016618.4669713-.0398837 1.3477358-1.2729539 1.7183216-5.6086415z"/></g></g></g></svg>