<svg height="40" viewBox="0 0 40 40" width="40" xmlns="http://www.w3.org/2000/svg" xmlns:xlink="http://www.w3.org/1999/xlink"><linearGradient id="a" x1=".261%" x2="95.394%" y1="10.304%" y2="72.462%"><stop offset="0" stop-color="#2beaed"/><stop offset="1" stop-color="#0fccce"/></linearGradient><g fill="none" fill-rule="evenodd"><g fill-rule="nonzero" transform="translate(2 2)"><rect fill="url(#a)" height="36" rx="3.24" width="35.906" x=".055" y=".055"/><path d="m27.414989 7.13886434c.98486.14590692 1.6646787 1.06379415 1.5193424 2.04974302-.1453845.98627564-1.0615548 1.66823994-2.0467428 1.52228444-1.7445464-.2584544-4.3580815 2.4582656-7.2840969 8.0443616-3.7354236 7.131348-7.2122889 10.5291513-10.87275914 10.2580021-.99295386-.073553-1.737824-.9394532-1.66456209-1.9334579.07327425-.9941721.93728303-1.741158 1.9304049-1.6675925 1.80759983.1338978 4.46267423-2.6985597 7.41487573-8.3346476 3.7593187-7.17696657 7.2833684-10.48983593 11.0035379-9.93869316z" fill="#fff"/></g><path d="m0 0h40v40h-40z"/></g></svg>