<svg height="36" viewBox="0 0 36 36" width="36" xmlns="http://www.w3.org/2000/svg"><g fill="none" fill-rule="evenodd"><g fill-rule="nonzero"><path d="m0 0h36v36h-36z" fill="#f7df1e"/><path d="m24.1828571 28.1251429c.7251429 1.184 1.6685715 2.0542857 3.3371429 2.0542857 1.4017143 0 2.2971429-.7005715 2.2971429-1.6685715 0-1.16-.92-1.5708571-2.4628572-2.2457142l-.8457143-.3628572c-2.4411428-1.04-4.0628571-2.3428571-4.0628571-5.0971428 0-2.5371429 1.9331428-4.4685715 4.9542857-4.4685715 2.1508571 0 3.6971429.7485715 4.8114286 2.7085715l-2.6342857 1.6914285c-.58-1.04-1.2057143-1.4497143-2.1771429-1.4497143-.9908571 0-1.6188571.6285715-1.6188571 1.4497143 0 1.0148572.6285714 1.4257143 2.08 2.0542857l.8457142.3622858c2.8742858 1.2325714 4.4971429 2.4891428 4.4971429 5.3142857 0 3.0457143-2.3925714 4.7142857-5.6057143 4.7142857-3.1417143 0-5.1714286-1.4971429-6.1645714-3.4594286zm-11.9502857.2931428c.5314286.9428572 1.0148572 1.74 2.1771429 1.74 1.1114286 0 1.8125714-.4348571 1.8125714-2.1257143v-11.5028571h3.3828572v11.5485714c0 3.5028572-2.0537143 5.0971429-5.0514286 5.0971429-2.7085714 0-4.2771429-1.4017143-5.07485716-3.09z" fill="#000"/></g><path d="m-2-2h40v40h-40z"/></g></svg>