<svg height="40" viewBox="0 0 40 40" width="40" xmlns="http://www.w3.org/2000/svg"><g fill="none" fill-rule="evenodd"><g fill-rule="nonzero" transform="translate(2 2)"><path d="m6.375 0h23.25c3.525 0 6.375 2.85 6.375 6.375v22.35c0 3.525-2.85 6.375-6.375 6.375h-23.25c-3.525 0-6.375-2.85-6.375-6.375v-22.35c0-3.525 2.85-6.375 6.375-6.375z" fill="#00005b"/><path d="m10.11 12h-5.58l-1.14 3.54c-.03.135-.15.225-.285.21h-2.82c-.165 0-.21-.09-.165-.27l4.83-13.845c.045-.15.09-.285.15-.465.06-.315.09-.645.09-.975-.015-.075.045-.15.12-.165h.045 3.84c.105 0 .18.045.195.12l5.475 15.375c.045.165 0 .24-.15.24h-3.135c-.105.015-.21-.06-.24-.165zm-4.71-2.985h3.81c-.09-.315-.21-.69-.345-1.08-.135-.405-.27-.84-.405-1.29-.15-.465-.285-.915-.435-1.38s-.285-.9-.405-1.335c-.12-.42-.225-.81-.33-1.17h-.03c-.135.645-.3 1.29-.51 1.935-.225.72-.45 1.47-.69 2.22-.195.765-.435 1.47-.66 2.1zm18.36 1.605h-4.755c.06.465.21.93.465 1.335.27.405.645.72 1.095.9.6.255 1.26.39 1.92.375.525-.015 1.05-.06 1.56-.165.465-.06.915-.18 1.335-.345.075-.06.12-.03.12.12v2.295c0 .06-.015.12-.03.18-.03.045-.06.075-.105.105-.48.21-.975.36-1.5.45-.705.135-1.41.195-2.13.18-1.14 0-2.1-.18-2.88-.525-.735-.315-1.38-.81-1.89-1.425-.48-.585-.825-1.245-1.035-1.965-.21-.705-.315-1.44-.315-2.19 0-.81.12-1.605.375-2.385.24-.75.615-1.44 1.125-2.055.495-.6 1.11-1.08 1.815-1.425s1.545-.465 2.505-.465c.795-.015 1.59.135 2.325.465.615.27 1.155.675 1.575 1.2.39.51.705 1.08.9 1.71.195.6.285 1.215.285 1.83 0 .36-.015.675-.03.96-.03.285-.045.495-.06.63-.015.105-.105.195-.21.195-.09 0-.255.015-.495.03-.24.03-.525.045-.87.045s-.705-.06-1.095-.06zm-4.755-2.19h3.165c.39 0 .675 0 .855-.015.12-.015.24-.045.345-.12v-.15c0-.195-.03-.375-.09-.555-.27-.84-1.065-1.41-1.95-1.38-.825-.045-1.605.39-1.995 1.14-.18.345-.285.705-.33 1.08z" fill="#99f" transform="translate(4.35 9)"/></g><path d="m0 0h40v40h-40z"/></g></svg>