<svg height="40" viewBox="0 0 40 40" width="40" xmlns="http://www.w3.org/2000/svg"><g fill="none" fill-rule="evenodd"><path d="m34.4431328 22.2458279c-1.3954757.0073067-2.6082975.3434167-3.6238532.8402748-.3726139-.7379805-.7452278-1.3955868-.8109832-1.8778315-.0730616-.5626188-.1607355-.9060355-.0730616-1.5782553.0876739-.6722199.4822063-1.6294025.4749001-1.7024699-.0073061-.0730674-.0876738-.416484-.8913509-.4237908-.8036772-.0073067-1.4977619.1534415-1.5781296.3653369-.0803678.2118954-.233797.6941401-.3360832 1.1909982-.138817.7306738-1.6073542 3.3391791-2.4475621 4.705539-.2703278-.5333918-.5041247-1.001023-.5552678-1.3736666-.0730616-.5626188-.1607354-.9060355-.0730616-1.5782554.0876739-.6722198.4822063-1.6294024.4749001-1.7024698-.0073061-.0730674-.0876738-.4164841-.8913509-.4237908s-1.4977619.1534415-1.5781296.3653369-.1680416.7087535-.3360832 1.1909982-2.1187851 4.8370603-2.630216 5.9622979c-.2630216.5772322-.4895124 1.0375567-.6502478 1.3517464s-.0073062.0219202-.0292246.0584539c-.138817.2703493-.2191847.4164841-.2191847.4164841v.0073067c-.1095923.1972819-.2264908.3799504-.2849401.3799504-.0438369 0-.1242046-.5260851.0146123-1.2421454.2922463-1.5124947.986331-3.8652642.9790249-3.9456383 0-.0438404.1315108-.4530177-.4529817-.6649131-.5698801-.2118954-.7744524.138828-.8255955.138828s-.0876739.1242145-.0876739.1242145.6356355-2.645039-1.2128218-2.645039c-1.1543726 0-2.7471145 1.2640656-3.5361793 2.4039167-.4968186.2703493-1.5562111.8475815-2.6886652 1.4686542-.4310632.2411224-.87673869.4822447-1.29318956.7087536-.02922462-.029227-.05844924-.0657607-.08767387-.0949876-2.23568359-2.3893032-6.37096762-4.0771596-6.19561988-7.2848174.0657554-1.169078.46759395-4.2379078 7.94179101-7.96434393 6.151783-3.0322961 11.0469072-2.19202128 11.8944212-.3288032 1.2128219 2.65965253-2.6229098 7.59900713-8.9792651 8.31506733-2.4256436.2703493-3.6969147-.6649131-4.01838554-1.0156365-.33608315-.3653369-.38722624-.3872571-.51143089-.3141897-.20457235.1096011-.07306155.4384043 0 .6283794.18996005.4968582.97171873 1.3736667 2.29413283 1.8047642 1.1689849.3799504 4.0110794.5918458 7.4522786-.7379805 3.850344-1.4905745 6.8604801-5.6334947 5.9764353-9.10419501-.8840449-3.52184751-6.7289693-4.68361878-12.259729-2.71810637-3.28776999 1.16907801-6.85317389 3.01037588-9.41763448 5.40698578-3.04666686 2.8496277-3.52887312 5.3266117-3.33160692 6.3641685.70869709 3.6825957 5.78647518 6.0792056 7.81758641 7.8547428-.10228617.0584539-.1972662.1096011-.27763391.1534415-1.01555562.5041649-4.88781804 2.5281312-5.85223057 4.6690053-1.09592333 2.4258369.17534773 4.1648405 1.01555561 4.3986561 2.60829753.723367 5.28965661-.5772323 6.72896924-2.7254131 1.43931262-2.1481809 1.26396492-4.9393547.59910472-6.2180337-.0073061-.0146135-.0146123-.029227-.0292246-.0438405.2630216-.1534414.5333494-.3141897.796371-.4676312.518737-.3068829 1.0301679-.5918457 1.4685372-.8256613-.2484093.6795266-.4310631 1.4905745-.518737 2.6596525-.1095923 1.3736666.4529816 3.1565106 1.1909033 3.8579574.328777.306883.7160033.3141897.9644126.3141897.8621263 0 1.2493526-.7160603 1.6804157-1.5636418.5260432-1.0375567 1.0009433-2.2431684 1.0009433-2.2431684s-.5917986 3.2588049 1.0155557 3.2588049c.5844924 0 1.176291-.7599007 1.4393126-1.1471578v.0073068s.0146123-.0219203.0438369-.0730674c.0584493-.0949876.0949801-.1534415.0949801-.1534415s0-.0073068 0-.0146135c.2337969-.4091773.7598401-1.337133 1.5415988-2.8788546 1.0082494-1.9874326 1.9799681-4.4717234 1.9799681-4.4717234s.0876739.6064592.3872263 1.614789c.1753477.5918458.5406555 1.2421454.8329017 1.8705248-.233797.3288032-.3799201.5114717-.3799201.5114717s0 0 .0073062.0073067c-.1899601.2484291-.3945324.5187784-.6210233.7818209-.7963709.9498759-1.7461711 2.0385798-1.8776819 2.3527695-.1534293.3726436-.1168985.6429929.1753477.8621951.2118785.1607482.5917986.1826684.9790248.1607482.7160033-.0511472 1.220128-.2265089 1.4685373-.3361099.3872262-.1388281.8402079-.3507235 1.2639649-.6649132.7817587-.5772322 1.2566588-1.4028936 1.2128218-2.4915975-.0219184-.5991525-.2191846-1.1983049-.4602878-1.7609237.0730616-.1022944.138817-.2045887.2118785-.306883 1.2347403-1.8047642 2.1918467-3.7848901 2.1918467-3.7848901s.0876739.6064592.3872262 1.614789c.1461232.5114717.4456755 1.0667837.7086971 1.6074823-1.1616787.9425691-1.8776819 2.0385798-2.1333974 2.7546401-.4602878 1.3298262-.1022862 1.9289787.5771863 2.0678067.3068585.0657606.7452279-.0803741 1.0666987-.2192021.4091447-.1315213.891351-.3580302 1.3516388-.6941401.7817586-.5772323 1.5342926-1.3809734 1.4904557-2.4696773-.0219185-.4968582-.1534293-.9864096-.3360831-1.4613475.986331-.4091773 2.257602-.6356862 3.8795685-.445711 3.4777301.4091773 4.1645087 2.5792784 4.0329979 3.4926205-.1315108.9133422-.8621264 1.4102004-1.1032295 1.5636419s-.3214708.2045886-.2995524.3141897c.0292247.1607482.1461231.1534415.3506955.1242145.2849401-.0511471 1.8265389-.7379805 1.8922943-2.4185301.1095923-2.1481808-1.9361312-4.4936436-5.5526782-4.4717234zm-26.82820312 9.0457411c-1.15437257 1.2567589-2.76172679 1.7316968-3.45581156 1.3298263-.74522787-.4310975-.45298165-2.2870089.96441253-3.6168351.86212635-.8110479 1.97266199-1.5636419 2.7105837-2.0239663.16804157-.1022944.41645086-.2484291.71600324-.4310976.05114309-.0292269.08036771-.0438404.08036771-.0438404.05844924-.0365337.11689849-.0730674.17534773-.109601.51873704 1.8997517.02191847 3.5729946-1.19090335 4.8955141zm8.40207882-5.7138688c-.4018385.9791029-1.2420464 3.4853139-1.7534773 3.3464859-.4383693-.1169078-.7086971-2.0166596-.0876739-3.8944912.3141647-.9425691.9790249-2.0678067 1.3662511-2.506211.6283294-.7014468 1.3224142-.9352624 1.4904558-.6502996.2118785.3726436-.7671464 3.09075-1.0155557 3.7045159zm6.9335416 3.3172589c-.1680415.0876809-.328777.1461348-.4018385.1022943-.0511431-.0292269.0730615-.1461347.0730615-.1461347s.8694325-.9352624 1.2128219-1.3590532c.1972661-.2484291.4310631-.5406986.6794724-.8695018v.0949876c0 1.1179309-1.081311 1.8705248-1.5635173 2.1774078zm5.3481059-1.2202252c-.1242047-.0876808-.1022862-.3799503.3141647-1.2932925.1607354-.3580302.5406555-.9571826 1.1909033-1.5344149.0730616.2338156.1242047.4603245.1168985.6722198-.0073062 1.4102004-1.0155556 1.9362855-1.6219665 2.1554876z" fill="#cd6799" fill-rule="nonzero"/><path d="m0 0h40v40h-40z"/></g></svg>