<svg xmlns="http://www.w3.org/2000/svg" width="40" height="40" viewBox="0 0 40 40">
  <defs>
    <linearGradient id="skill_lottie-a" x1=".261%" x2="95.394%" y1="10.304%" y2="72.462%">
      <stop offset="0%" stop-color="#2BEAED"/>
      <stop offset="100%" stop-color="#0FCCCE"/>
    </linearGradient>
  </defs>
  <g fill="none" fill-rule="evenodd">
    <g fill-rule="nonzero" transform="translate(2 2)">
      <rect width="35.906" height="36" x=".055" y=".055" fill="url(#skill_lottie-a)" rx="3.24"/>
      <path fill="#FFF" d="M27.414989,7.13886434 C28.399849,7.28477126 29.0796677,8.20265849 28.9343314,9.18860736 C28.7889469,10.174883 27.8727766,10.8568473 26.8875886,10.7108918 C25.1430422,10.4524374 22.5295071,13.1691574 19.6034917,18.7552534 C15.8680681,25.8866014 12.3912028,29.2844047 8.73073256,29.0132555 C7.7377787,28.9397025 6.99290856,28.0738023 7.06617047,27.0797976 C7.13944472,26.0856255 8.0034535,25.3386396 8.99657537,25.4122051 C10.8041752,25.5461029 13.4592496,22.7136454 16.4114511,17.0775575 C20.1707698,9.90059093 23.6948195,6.58772157 27.414989,7.13886434 Z"/>
    </g>
    <rect width="40" height="40"/>
  </g>
</svg>
