<svg height="36" viewBox="0 0 36 36" width="36" xmlns="http://www.w3.org/2000/svg"><g fill="none" fill-rule="evenodd"><g fill-rule="nonzero"><path d="m32.7365156 0h-29.47303123c-1.80239062 0-3.26348437 1.46109375-3.26348437 3.26348437v29.47303123c0 1.8023907 1.46109375 3.2634844 3.26348437 3.2634844h29.47303123c1.8023907 0 3.2634844-1.4610937 3.2634844-3.2634844v-29.47303123c0-1.80239062-1.4610937-3.26348437-3.2634844-3.26348437" fill="#dc395f"/><path d="m12.1254704 11.0708106c1.1884869 0 2.1841065-.9465171 2.1841065-2.18706476 0-1.2396962-.9956196-2.18607142-2.1841065-2.18607142s-2.18382725.94637522-2.18382725 2.18607142c0 1.24040576.99534035 2.18706476 2.18382725 2.18706476m-4.52854014 11.710134c-.12834541.5548549-.19272761 1.1539846-.19272761 1.642711 0 1.9258147 1.02774092 3.2042514 3.21184745 3.2042514 1.8113602 0 3.2798608-1.0929648 4.3372091-2.8578574l-.6456375 2.6327935h3.5968837l2.0557612-8.3780247c.5139403-2.1212201 1.5095599-3.2222736 3.0192595-3.2222736 1.1883473 0 1.9269968.7509698 1.9269968 1.990666 0 .3591657-.0321213.7504022-.1606064 1.1748449l-1.0600018 3.8509199c-.1606064.5548548-.2245696 1.1099935-.2245696 1.6317841 0 1.828183 1.0595829 3.165369 3.2758107 3.165369 1.8950152 0 3.4044354-1.2395543 4.2395884-4.2095178l-1.4130565-.5542873c-.7066679 1.9896727-1.316972 2.349406-1.798791 2.349406s-.7387891-.3261014-.7387891-.9784462c0-.2937467.0645218-.6197062.1606063-1.0122199l1.0280202-3.7517271c.2568305-.8809563.353334-1.6621522.353334-2.3799158 0-2.8066291-1.670306-4.2713892-3.6936665-4.2713892-1.8948755 0-3.8221516 1.7367951-4.7855103 3.5646942l.7063886-3.280881h-5.4918989l-.7709104 2.8897864h2.5695618l-1.5823216 6.4368841c-1.2425344 2.806629-3.52496 2.8521811-3.8113979 2.7870459-.4703671-.107849-.7711898-.2893476-.7711898-.9103309 0-.3583142.0642426-.8730095.2248489-1.4935671l2.4090951-9.7098184h-6.10248225l-.77091043 2.8897864h2.53716118l-1.63776568 6.7993136" fill="#fff"/></g><path d="m-2-2h40v40h-40z"/></g></svg>