<svg height="40" viewBox="0 0 40 40" width="40" xmlns="http://www.w3.org/2000/svg"><path d="m39.0150538 18.24-17.2554839-17.25462366c-.9935484-.99397849-2.6051613-.99397849-3.5995699 0l-3.5827957 3.58365592 4.5449462 4.54494623c1.0563441-.35698924 2.2675269-.11741935 3.1092473.72473119.8468818.84731182 1.0843011 2.06881722.7182796 3.12903222l4.3810753 4.3806452c1.060215-.3655914 2.2825806-.1290323 3.1290322.7187097 1.1827957 1.1827957 1.1827957 3.0993548 0 4.2830107-1.1836559 1.1832258-3.100215 1.1832258-4.284301 0-.8894624-.8903226-1.1096774-2.1978494-.6584947-3.2937634l-4.0860215-4.0855914v10.7513978c.2881721.1427957.5604301.3329033.8004301.5729033 1.1827957 1.1827957 1.1827957 3.0993548 0 4.2834408-1.1827956 1.1823656-3.1006451 1.1823656-4.2825806 0-1.1827957-1.1845161-1.1827957-3.1010752 0-4.2834408.2924731-.292043.6309677-.5131183.9922581-.6610753v-10.8516129c-.3612904-.147957-.6989248-.3668817-.9922581-.6610753-.895914-.8954838-1.1113978-2.2107527-.652043-3.3109677l-4.4804301-4.48129034-11.83225808 11.83096774c-.99397849.9948387-.99397849 2.6064516 0 3.6004301l17.25634408 17.2550538c.9935484.9939785 2.6047312.9939785 3.5995699 0l17.1750538-17.1750538c.9939785-.9939785.9939785-2.6064516 0-3.6004301z" fill="#f05133"/></svg>