<svg height="40" viewBox="0 0 40 40" width="40" xmlns="http://www.w3.org/2000/svg"><g fill="none" fill-rule="evenodd"><g fill-rule="nonzero" transform="translate(2 2)"><path d="m6.375 0h23.25c3.525 0 6.375 2.85 6.375 6.375v22.35c0 3.525-2.85 6.375-6.375 6.375h-23.25c-3.525 0-6.375-2.85-6.375-6.375v-22.35c0-3.525 2.85-6.375 6.375-6.375z" fill="#300"/><path d="m10.095 13.41h-5.58l-1.14 3.525c-.03.135-.15.225-.285.21h-2.82c-.165 0-.21-.09-.165-.27l4.83-13.905c.045-.15.09-.315.15-.495.06-.315.09-.645.09-.975-.015-.075.045-.15.12-.165h.045 3.84c.12 0 .18.045.195.12l5.475 15.45c.045.165 0 .24-.15.24h-3.135c-.105.015-.21-.06-.24-.165zm-4.71-3.045h3.81c-.09-.315-.21-.69-.345-1.08-.135-.405-.27-.84-.405-1.29-.15-.465-.285-.915-.435-1.38s-.285-.9-.405-1.335c-.12-.42-.225-.81-.33-1.17h-.03c-.135.645-.3 1.29-.51 1.935-.225.72-.45 1.47-.69 2.22-.21.765-.435 1.47-.66 2.1zm12.735-6.465c-.495.015-.975-.18-1.335-.525-.345-.375-.525-.87-.51-1.38-.015-.51.18-.99.54-1.335s.84-.525 1.335-.525c.585 0 1.035.18 1.365.525.33.36.51.84.495 1.335.015.51-.165 1.005-.525 1.38-.345.36-.855.555-1.365.525zm-1.68 13.02v-11.55c0-.15.06-.21.195-.21h2.97c.135 0 .195.075.195.21v11.55c0 .165-.06.24-.195.24h-2.94c-.15 0-.225-.09-.225-.24z" fill="#ff9a00" transform="translate(7.35 7.65)"/></g><path d="m0 0h40v40h-40z"/></g></svg>