<svg height="40" viewBox="0 0 36 40" width="36" xmlns="http://www.w3.org/2000/svg"><g fill="none" fill-rule="evenodd"><g fill-rule="nonzero"><path d="m0 .04742268c11.7443299-.00119041 23.4876289-.00206186 35.2319588 0-.6463918 7.30412371-1.2824743 14.60824742-1.9556701 21.91030932-.4 4.6670103-.8123712 9.3340206-1.2474227 13.9979381-2.5061856.6639175-4.9876289 1.4206186-7.4927835 2.0876289-2.301031.6752577-4.6206186 1.2865979-6.9226804 1.956701h-.0680413c-2.1907216-.6515464-4.4030928-1.2247423-6.5938144-1.8762887-2.58556702-.6969072-5.14845362-1.4742268-7.73505155-2.1680412-.33711341-3.4958763-.64123712-6.9938144-.94123712-10.4917526-.56597938-6.4628866-1.1814433-12.9216495-1.72577319-19.38556698-.1886598-1.94536083-.32371134-3.89690722-.54948454-5.83814433zm17.671134 2.8814433c-.0247422 1.40309278.0185567 2.80721649-.0247422 4.20927835-4.028866-.01443299-8.05876293-.00309278-12.08762891.00103093.06907216 1.36185567.25154639 2.71443299.43917525 4.06494844 3.74845361.1391753 7.50206186-.0051546 11.25051546.1072165-3.2793814 1.471134-6.5989691 2.856701-9.8927835 4.2969072-.28247422.1257732-.58453608.2206186-.8371134.4041237.02783505 1.4958763.26907217 2.9835052.37525773 4.4762887 1.99793815-.0072165 3.99484537-.0391753 5.99278347-.042268 1.601031-.0082475 3.2030928.0237113 4.8041237-.0113403-.0762886 2.4597939.0237114 4.9226805-.0515463 7.3824743-1.0773196-.1597938-2.1412372-.4-3.214433-.5907217-.8463918-.1845361-1.7134021-.2804123-2.5474227-.5226804-.1185567-1.1804124-.2010309-2.3649484-.3061856-3.5463917-.2412371-.0742268-.4969072-.0670104-.7463917-.0711341-1.21030931.0072165-2.42164952-.0041237-3.63298972.014433.1185567 2.271134.32268041 4.5391753.67010309 6.7886598 1.19381443.3113402 2.38969073.6164949 3.58144333.9412371 1.8257732.4969073 3.6742268.9103093 5.5030928 1.3989691.2175257.0463918.4371134.1268041.6628866.1082474.1216494 1.4938145.027835 2.9969072.0505154 4.4948454.4216495-.0680412.8360825-.172165 1.243299-.2979382 3.4618557-.9402061 6.9195876-1.8979381 10.3793814-2.8474226.172165-1.3608248.2525773-2.7309279.3886598-4.0948454.3597938-4.1463917.7226804-8.2927835 1.1-12.4381443.4422681-4.7422681.8247423-9.48969075 1.2701031-14.23195879-4.7907216.00412371-9.5804124-.00927835-14.3701031.00618557z" fill="#0170ba"/><g fill="#29a9df" transform="translate(17.525773 2.886598)"><path d="m.14536083.04226804c4.78969072-.01546392 9.57938144-.00206185 14.37010307-.00618557-.4453608 4.74226805-.827835 9.48969073-1.2701031 14.23195873-.3773196 4.1453609-.7402062 8.2917526-1.1 12.4381444-.1360824 1.3639175-.2164948 2.7340206-.3886598 4.0948453-3.45979378.9494846-6.91752574 1.9072165-10.37938141 2.8474227-.4072165.1257732-.82164949.2298969-1.24329897.2979382-.02268041-1.4979382.07113402-3.001031-.05051547-4.4948454.03092784-.0061856.09381444-.0185567.12474227-.0247423 3.21958763-.8082474 6.41752578-1.6979381 9.62989691-2.5350515.40618557-4.5567011.85670107-9.1113402 1.14226807-13.6773196-2.73195879.014433-5.46494848.0061856-8.19690725.0175258-.39793814.0020618-.79587628 0-1.19175257-.028866 1.47010309-.756701 3.01649484-1.356701 4.52577319-2.0319588 1.44845361-.656701 2.91443299-1.27216493 4.36804123-1.91649482.2804124-.12886598.5793815-.23608248.8257732-.42783506.0969072-.3556701.0917526-.72783505.1298969-1.09175257.0835052-1.15463918.2319588-2.30309279.2876289-3.45876289-3.86907219-.03092784-7.73814435-.00412371-11.60824744-.02474227.04329897-1.40206185 0-2.80618557.02474227-4.20927835z"/><path d="m.16494845 17.5484536c1.86804124-.0319588 3.73711341.0185567 5.60618557.0061856-.10412371 1.9103093-.2628866 3.8175257-.36185567 5.727835-1.14536082.3742268-2.30824742.6907217-3.4628866 1.0371134-.61546391.1876289-1.24742268.3360825-1.83298969.6113402.07525773-2.4597938-.02474227-4.9226804.05154639-7.3824742z"/></g><g fill="#cfcfcf" transform="translate(5.463918 7.113402)"><path d="m.09484536.0257732c4.02886598-.00412372 8.05876289-.01546392 12.08762884-.00103093.0525773 4.43298969-.013402 8.86597938.0443299 13.29690723-1.6010309.0350515-3.20309276.0030928-4.80412369.0113402-1.99793814.0030928-3.99484536.0350515-5.9927835.042268-.10618557-1.4927835-.34742268-2.9804123-.37525773-4.47628863.25257731-.18350515.55463917-.27835051.8371134-.40412371 3.29381443-1.44020618 6.61340206-2.8257732 9.89278352-4.29690722-3.74845363-.11237113-7.50206187.03195877-11.25051548-.10721649-.18762887-1.35051546-.37010309-2.70309278-.43917526-4.06494845z"/><path d="m1.72783505 15.9876289c1.21134021-.0185567 2.42268041-.0072165 3.63298969-.014433.24948454.0041237.50515464-.0030928.74639175.071134.10515464 1.1814433.18762887 2.3659794.30618557 3.5463917.83402062.2422681 1.70103093.3381444 2.54742268.5226805 1.07319586.1907216 2.13711336.4309278 3.21443296.5907216.1030928 1.4969072-.0773196 3.0041237.0948454 4.4958763-.0309278.0061856-.0938144.0185567-.1247423.0247423-.2257732.0185567-.4453608-.0618557-.6628866-.1082475-1.82886595-.4886597-3.67731956-.9020618-5.50309276-1.398969-1.19175257-.3247423-2.38762886-.6298969-3.5814433-.9412371-.34742268-2.2494846-.55154639-4.5175258-.67010309-6.7886598z"/></g><path d="m.01752577.02474227c3.8701031.02061855 7.73917526-.00618557 11.60824743.02474227-.0556701 1.1556701-.2041237 2.30412371-.2876289 3.45876288-.0381443.36391753-.0329897.73608248-.1298969 1.09175258-.2463917.19175258-.5453608.29896907-.8257732.42783505-1.45360822.6443299-2.9195876 1.25979382-4.36804121 1.91649485-1.50927835.67525773-3.0556701 1.27525773-4.5257732 2.03195876.39587629.02886598.79381444.03092783 1.19175258.02886598 2.73195876-.01134021 5.46494845-.00309278 8.19690723-.01752577-.285567 4.56597933-.7360825 9.12061853-1.14226805 13.67731963-3.21237114.8371134-6.41030928 1.7268041-9.62989691 2.5350515-.17216495-1.4917526.00824742-2.9989691-.09484536-4.4958763.58556701-.2752577 1.21752577-.4237113 1.83298969-.6113402 1.15463917-.3463917 2.31752577-.6628866 3.4628866-1.0371134.09896907-1.9103093.25773196-3.8175258.36185567-5.727835-1.86907217.0123711-3.73814433-.0381444-5.60618557-.0061856-.05773196-4.43092785.00824742-8.86391754-.0443299-13.29690723z" fill="#fff" transform="translate(17.628866 7.113402)"/></g><path d="m-2 0h40v40h-40z"/></g></svg>