<svg height="40" viewBox="0 0 36 40" width="36" xmlns="http://www.w3.org/2000/svg" xmlns:xlink="http://www.w3.org/1999/xlink"><mask id="a" fill="#fff"><path d="m.00487805.02211382h35.24552845v39.97300818h-35.24552845z" fill="#fff" fill-rule="evenodd"/></mask><g fill="none" fill-rule="evenodd"><path d="m-2 0h40v40h-40z"/><g><path d="m3.20796748 36.0036585-3.20796748-35.98154468h35.2504065l-3.2114634 35.97585368-14.4353659 4.0020325z" fill="#d2492b" mask="url(#a)"/><path d="m17.6252033 36.9410569 11.6644715-3.2338211 2.7443902-30.74308946h-14.4088617z" fill="#e05f30"/><path d="m17.6252033 16.3092683h-5.8395122l-.4033334-4.5190244h6.2428456v-4.41300813h-11.0656911l1.1902439 13.34487803h9.8754472z" fill="#ebebe7"/><path d="m17.6252033 27.7701626-.0193496.0052033-4.9147155-1.3271545-.3143089-3.5195122h-4.42991873l.61829268 6.9290244 9.03967475 2.5094309.0203253-.0056098z" fill="#ebebe7"/><g fill="#fffffe"><path d="m17.6099187 16.3092683v4.4128455h5.434065l-.5121951 5.7233334-4.9218699 1.3284552v4.5911383l9.0468293-2.5073171 1.1034146-12.363496.1076423-1.1849593z"/><path d="m17.6099187 7.37723577v4.41300813h10.6594309l.0885366-.9919512.2010569-2.23715449.1055284-1.18390244z"/></g></g></g></svg>