<?xml version="1.0" encoding="UTF-8"?>
<svg width="117px" height="65px" viewBox="0 0 117 65" version="1.1" xmlns="http://www.w3.org/2000/svg" xmlns:xlink="http://www.w3.org/1999/xlink">
    <!-- Generator: Sketch 55 (78076) - https://sketchapp.com -->
    <title>logo</title>
    <desc>Created with Sketch.</desc>
    <g id="logo" stroke="none" stroke-width="1" fill="none" fill-rule="evenodd">
        <path d="M0.448,25 L0.448,0.928 L4.562,0.928 L4.562,21.226 L11.192,21.226 L11.192,25 L0.448,25 Z M14.344,25 L14.344,0.928 L18.424,0.928 L18.424,25 L14.344,25 Z M32.69,25 L25.856,8 L25.754,8 L25.822,25 L22.15,25 L22.15,0.928 L26.808,0.928 L33.574,18.03 L33.676,18.03 L33.642,0.928 L37.178,0.928 L37.178,25 L32.69,25 Z M13.912,48.034 C13.912,49.2580061 13.7250019,50.3289954 13.351,51.247 C12.9769981,52.1650046 12.4840031,52.9299969 11.872,53.542 C11.2599969,54.1540031 10.5573373,54.6073319 9.764,54.902 C8.9706627,55.1966681 8.15467086,55.344 7.316,55.344 L4.46,55.344 L4.46,65 L0.448,65 L0.448,40.928 L7.112,40.928 C7.88267052,40.928 8.67599592,41.0413322 9.492,41.268 C10.3080041,41.4946678 11.0389968,41.8856639 11.685,42.441 C12.3310032,42.9963361 12.8636646,43.7273288 13.283,44.634 C13.7023354,45.5406712 13.912,46.6739932 13.912,48.034 Z M10.036,48.068 C10.036,46.7759935 9.73000306,45.8353363 9.118,45.246 C8.50599694,44.6566637 7.72400476,44.362 6.772,44.362 L4.46,44.362 L4.46,52.012 L6.772,52.012 C7.72400476,52.012 8.50599694,51.67767 9.118,51.009 C9.73000306,50.34033 10.036,49.3600065 10.036,48.068 Z M17.778,65 L17.778,40.928 L28.556,40.928 L28.556,44.532 L21.688,44.532 L21.688,50.924 L28.046,50.924 L28.046,54.256 L21.688,54.256 L21.688,61.362 L28.896,61.362 L28.896,65 L17.778,65 Z M33.102,65 L33.102,40.928 L37.182,40.928 L37.182,65 L33.102,65 Z M48.11,65 L48.11,61.634 L56.202,44.532 L48.654,44.532 L48.654,40.928 L60.69,40.928 L60.69,44.226 L52.632,61.328 L60.69,61.328 L60.69,65 L48.11,65 Z M76.116,65 L76.116,54.324 L68.908,54.324 L68.908,65 L64.862,65 L64.862,40.928 L68.908,40.928 L68.908,50.686 L76.116,50.686 L76.116,40.928 L80.162,40.928 L80.162,65 L76.116,65 Z M85.558,65 L85.558,40.928 L96.336,40.928 L96.336,44.532 L89.468,44.532 L89.468,50.924 L95.826,50.924 L95.826,54.256 L89.468,54.256 L89.468,61.362 L96.676,61.362 L96.676,65 L85.558,65 Z M111.422,65 L104.588,48 L104.486,48 L104.554,65 L100.882,65 L100.882,40.928 L105.54,40.928 L112.306,58.03 L112.408,58.03 L112.374,40.928 L115.91,40.928 L115.91,65 L111.422,65 Z" id="LINPEIZHEN" fill-opacity="0.84" fill="#000000" fill-rule="nonzero"></path>
        <path d="M58.7460937,16.7734375 L59.7714843,16.7734375 L59.7714843,21.3339844 C59.7714843,22.0598995 59.9057603,22.5880517 60.1743164,22.918457 C60.4428724,23.2488623 60.8701142,23.4140625 61.4560547,23.4140625 C62.0289742,23.4140625 62.4350574,23.2586279 62.6743164,22.9477539 C62.9135754,22.63688 63.0332031,22.1103553 63.0332031,21.3681641 L63.0332031,16.7734375 L63.9316406,16.7734375 L63.9316406,21.3535156 C63.9316406,22.3398487 63.7290059,23.0576149 63.3237304,23.5068359 C62.918455,23.9560569 62.2731164,24.1806641 61.3876953,24.1806641 C60.4859981,24.1806641 59.8203146,23.947919 59.390625,23.4824219 C58.9609353,23.0169248 58.7460937,22.2975309 58.7460937,21.3242188 L58.7460937,16.7734375 Z M65.9285156,24 L65.9285156,16.7734375 L66.9539062,16.7734375 L66.9539062,24 L65.9285156,24 Z M72.3783203,24 L72.3783203,16.7734375 L74.780664,16.7734375 C75.4968135,16.7734375 76.075421,16.8531893 76.5165039,17.0126953 C76.9575868,17.1722013 77.3392562,17.4423809 77.6615234,17.8232422 C78.1725937,18.428714 78.428125,19.226232 78.428125,20.2158203 C78.428125,21.4169982 78.1107453,22.3479785 77.4759765,23.0087891 C76.8412077,23.6695997 75.947662,24 74.7953125,24 L72.3783203,24 Z M73.4037109,23.2333984 L74.7171875,23.2333984 C75.6546922,23.2333984 76.318748,22.9811223 76.709375,22.4765625 C77.129299,21.9394504 77.3392578,21.218429 77.3392578,20.3134766 C77.3392578,19.4638629 77.1325541,18.7965519 76.7191406,18.3115234 C76.4684883,18.015298 76.1690121,17.8126633 75.8207031,17.7036133 C75.4723941,17.5945633 74.9483108,17.5400391 74.2484375,17.5400391 L73.4037109,17.5400391 L73.4037109,23.2333984 Z M83.9845703,23.8291016 C83.3400358,24.024415 82.7882835,24.1220703 82.3292969,24.1220703 C81.548043,24.1220703 80.9108423,23.86247 80.4176758,23.3432617 C79.9245092,22.8240534 79.6779297,22.1510458 79.6779297,21.3242188 C79.6779297,20.5201783 79.8952127,19.8610052 80.3297851,19.3466797 C80.7643576,18.8323542 81.3201789,18.5751953 81.9972656,18.5751953 C82.6385449,18.5751953 83.1341454,18.8030576 83.484082,19.2587891 C83.8340187,19.7145205 84.0089844,20.3623005 84.0089844,21.2021484 L84.0041015,21.5 L80.659375,21.5 C80.7993496,22.7597719 81.4162055,23.3896484 82.5099609,23.3896484 C82.9103535,23.3896484 83.4018851,23.2822276 83.9845703,23.0673828 L83.9845703,23.8291016 Z M80.7033203,20.7773438 L83.0421875,20.7773438 C83.0421875,19.7910107 82.6743526,19.2978516 81.9386719,19.2978516 C81.1997359,19.2978516 80.7879561,19.7910107 80.7033203,20.7773438 Z M87.2753906,24.1220703 C86.8359353,24.1220703 86.3020865,24.0195323 85.6738281,23.8144531 L85.6738281,22.9306641 C86.3020865,23.2431656 86.848956,23.3994141 87.3144531,23.3994141 C87.5911472,23.3994141 87.8206371,23.324545 88.0029297,23.1748047 C88.1852223,23.0250644 88.2763672,22.8378917 88.2763672,22.6132812 C88.2763672,22.2845036 88.0208359,22.0126964 87.5097656,21.7978516 L86.9482422,21.5585938 C86.1181599,21.2135399 85.703125,20.7171256 85.703125,20.0693359 C85.703125,19.607094 85.8666976,19.2433281 86.1938476,18.9780273 C86.5209977,18.7127265 86.9693982,18.5800781 87.5390625,18.5800781 C87.8352879,18.5800781 88.2014952,18.6207678 88.6376953,18.7021484 L88.8378906,18.7412109 L88.8378906,19.5419922 C88.3007785,19.3824862 87.8743505,19.3027344 87.5585937,19.3027344 C86.9401011,19.3027344 86.6308594,19.5273415 86.6308594,19.9765625 C86.6308594,20.2662775 86.865232,20.5104157 87.3339844,20.7089844 L87.7978515,20.9042969 C88.3219427,21.1256521 88.6930327,21.359211 88.9111328,21.6049805 C89.1292328,21.8507499 89.2382812,22.1575502 89.2382812,22.5253906 C89.2382812,22.9908877 89.0543638,23.3733709 88.6865234,23.6728516 C88.318683,23.9723322 87.8483101,24.1220703 87.2753906,24.1220703 Z M91.1667969,24 L91.1667969,18.6972656 L92.1287109,18.6972656 L92.1287109,24 L91.1667969,24 Z M91.1667969,17.7353516 L91.1667969,16.7734375 L92.1287109,16.7734375 L92.1287109,17.7353516 L91.1667969,17.7353516 Z M94.2769531,25.7626953 L94.3892578,24.9277344 C94.9459012,25.1914076 95.4943983,25.3232422 96.0347656,25.3232422 C97.1187554,25.3232422 97.6607422,24.7487037 97.6607422,23.5996094 L97.6607422,22.7646484 C97.3059227,23.5068396 96.7232462,23.8779297 95.9126953,23.8779297 C95.2779265,23.8779297 94.7733743,23.6468122 94.3990234,23.1845703 C94.0246726,22.7223284 93.8375,22.0989623 93.8375,21.3144531 C93.8375,20.5071574 94.050714,19.8496119 94.4771484,19.3417969 C94.9035829,18.8339818 95.4553351,18.5800781 96.1324219,18.5800781 C96.7248727,18.5800781 97.2343078,18.8209611 97.6607422,19.3027344 L97.6607422,18.6972656 L98.6275391,18.6972656 L98.6275391,22.5546875 C98.6275391,23.3847698 98.584408,23.9991842 98.4981445,24.3979492 C98.4118811,24.7967142 98.2499361,25.1230456 98.0123047,25.3769531 C97.5923807,25.8229189 96.939718,26.0458984 96.0542969,26.0458984 C95.4358042,26.0458984 94.8433622,25.9514983 94.2769531,25.7626953 Z M97.6607422,22.1640625 L97.6607422,19.9619141 C97.237563,19.5224587 96.7769556,19.3027344 96.2789062,19.3027344 C95.8361957,19.3027344 95.4895195,19.4801415 95.2388672,19.8349609 C94.9882149,20.1897804 94.8628906,20.6764292 94.8628906,21.2949219 C94.8628906,22.4570371 95.2714152,23.0380859 96.0884766,23.0380859 C96.64512,23.0380859 97.1692033,22.7467477 97.6607422,22.1640625 Z M100.692773,24 L100.692773,18.6972656 L101.654687,18.6972656 L101.654687,19.6933594 C102.162503,18.9511682 102.784241,18.5800781 103.519922,18.5800781 C103.978909,18.5800781 104.345116,18.7257472 104.618555,19.0170898 C104.891994,19.3084324 105.028711,19.6998673 105.028711,20.1914062 L105.028711,24 L104.066797,24 L104.066797,20.5039062 C104.066797,20.1100241 104.009017,19.8292652 103.893457,19.6616211 C103.777897,19.493977 103.586655,19.4101562 103.319727,19.4101562 C102.730531,19.4101562 102.175523,19.7958946 101.654687,20.5673828 L101.654687,24 L100.692773,24 Z M110.985547,23.8291016 C110.341012,24.024415 109.78926,24.1220703 109.330273,24.1220703 C108.54902,24.1220703 107.911819,23.86247 107.418652,23.3432617 C106.925486,22.8240534 106.678906,22.1510458 106.678906,21.3242188 C106.678906,20.5201783 106.896189,19.8610052 107.330762,19.3466797 C107.765334,18.8323542 108.321155,18.5751953 108.998242,18.5751953 C109.639521,18.5751953 110.135122,18.8030576 110.485059,19.2587891 C110.834995,19.7145205 111.009961,20.3623005 111.009961,21.2021484 L111.005078,21.5 L107.660352,21.5 C107.800326,22.7597719 108.417182,23.3896484 109.510937,23.3896484 C109.91133,23.3896484 110.402862,23.2822276 110.985547,23.0673828 L110.985547,23.8291016 Z M107.704297,20.7773438 L110.043164,20.7773438 C110.043164,19.7910107 109.675329,19.2978516 108.939648,19.2978516 C108.200712,19.2978516 107.788933,19.7910107 107.704297,20.7773438 Z M112.870117,24 L112.870117,18.6972656 L113.832031,18.6972656 L113.832031,19.6933594 C114.212893,18.9511682 114.766272,18.5800781 115.492188,18.5800781 C115.589844,18.5800781 115.692382,18.5882161 115.799805,18.6044922 L115.799805,19.5029297 C115.633788,19.4475909 115.487305,19.4199219 115.360352,19.4199219 C114.751625,19.4199219 114.24219,19.7812464 113.832031,20.5039062 L113.832031,24 L112.870117,24 Z" id="UIDesigner" fill="#666666" fill-rule="nonzero"></path>
    </g>
</svg>