<?xml version="1.0" encoding="UTF-8"?>
<svg width="117px" height="65px" viewBox="0 0 117 65" version="1.1" xmlns="http://www.w3.org/2000/svg" xmlns:xlink="http://www.w3.org/1999/xlink">
    <!-- Generator: Sketch 55 (78076) - https://sketchapp.com -->
    <title>logo</title>
    <desc>Created with Sketch.</desc>
    <g id="logo" stroke="none" stroke-width="1" fill="none" fill-rule="evenodd">
        <path d="M0.448,25 L0.448,0.928 L4.562,0.928 L4.562,21.226 L11.192,21.226 L11.192,25 L0.448,25 Z M14.344,25 L14.344,0.928 L18.424,0.928 L18.424,25 L14.344,25 Z M34.36,25 L27.526,8 L27.424,8 L27.492,25 L23.82,25 L23.82,0.928 L28.478,0.928 L35.244,18.03 L35.346,18.03 L35.312,0.928 L38.848,0.928 L38.848,25 L34.36,25 Z M13.912,48.034 C13.912,49.2580061 13.7250019,50.3289954 13.351,51.247 C12.9769981,52.1650046 12.4840031,52.9299969 11.872,53.542 C11.2599969,54.1540031 10.5573373,54.6073319 9.764,54.902 C8.9706627,55.1966681 8.15467086,55.344 7.316,55.344 L4.46,55.344 L4.46,65 L0.448,65 L0.448,40.928 L7.112,40.928 C7.88267052,40.928 8.67599592,41.0413322 9.492,41.268 C10.3080041,41.4946678 11.0389968,41.8856639 11.685,42.441 C12.3310032,42.9963361 12.8636646,43.7273288 13.283,44.634 C13.7023354,45.5406712 13.912,46.6739932 13.912,48.034 Z M10.036,48.068 C10.036,46.7759935 9.73000306,45.8353363 9.118,45.246 C8.50599694,44.6566637 7.72400476,44.362 6.772,44.362 L4.46,44.362 L4.46,52.012 L6.772,52.012 C7.72400476,52.012 8.50599694,51.67767 9.118,51.009 C9.73000306,50.34033 10.036,49.3600065 10.036,48.068 Z M17.778,65 L17.778,40.928 L28.556,40.928 L28.556,44.532 L21.688,44.532 L21.688,50.924 L28.046,50.924 L28.046,54.256 L21.688,54.256 L21.688,61.362 L28.896,61.362 L28.896,65 L17.778,65 Z M33.102,65 L33.102,40.928 L37.182,40.928 L37.182,65 L33.102,65 Z M48.11,65 L48.11,61.634 L56.202,44.532 L48.654,44.532 L48.654,40.928 L60.69,40.928 L60.69,44.226 L52.632,61.328 L60.69,61.328 L60.69,65 L48.11,65 Z M76.116,65 L76.116,54.324 L68.908,54.324 L68.908,65 L64.862,65 L64.862,40.928 L68.908,40.928 L68.908,50.686 L76.116,50.686 L76.116,40.928 L80.162,40.928 L80.162,65 L76.116,65 Z M85.558,65 L85.558,40.928 L96.336,40.928 L96.336,44.532 L89.468,44.532 L89.468,50.924 L95.826,50.924 L95.826,54.256 L89.468,54.256 L89.468,61.362 L96.676,61.362 L96.676,65 L85.558,65 Z M111.422,65 L104.588,48 L104.486,48 L104.554,65 L100.882,65 L100.882,40.928 L105.54,40.928 L112.306,58.03 L112.408,58.03 L112.374,40.928 L115.91,40.928 L115.91,65 L111.422,65 Z" id="LINPEIZHEN" fill-opacity="0.84" fill="#000000" fill-rule="nonzero"></path>
        <text id="UI-Designer" font-family="LucidaGrande, Lucida Grande" font-size="10" font-weight="normal" letter-spacing="0.200000003" fill="#666666">
            <tspan x="58.8720703" y="24">UI Designe</tspan>
            <tspan x="112.908203" y="24">r</tspan>
        </text>
    </g>
</svg>